<?xml version="1.0" encoding="utf-8" standalone="no"?>
<!DOCTYPE svg PUBLIC "-//W3C//DTD SVG 1.1//EN"
  "http://www.w3.org/Graphics/SVG/1.1/DTD/svg11.dtd">
<!-- Created with matplotlib (https://matplotlib.org/) -->
<svg height="348.8025pt" version="1.1" viewBox="0 0 703.805823 348.8025" width="703.805823pt" xmlns="http://www.w3.org/2000/svg" xmlns:xlink="http://www.w3.org/1999/xlink">
 <defs>
  <style type="text/css">
*{stroke-linecap:butt;stroke-linejoin:round;}
  </style>
 </defs>
 <g id="figure_1">
  <g id="patch_1">
   <path d="M 0 348.8025 
L 703.805823 348.8025 
L 703.805823 -0 
L 0 -0 
z
" style="fill:#ffffff;"/>
  </g>
  <g id="axes_1">
   <g id="patch_2">
    <path d="M 31.821875 326.94 
L 589.821875 326.94 
L 589.821875 49.74 
L 31.821875 49.74 
z
" style="fill:#ffffff;"/>
   </g>
   <g id="PolyCollection_1">
    <defs>
     <path d="M 550.673654 -32.119559 
L 550.673654 -24.707514 
L 547.916737 -24.70307 
L 545.15982 -24.698107 
L 531.375235 -24.661192 
L 484.507646 -24.416966 
L 470.723061 -24.673383 
L 465.209227 -24.765507 
L 445.910808 -24.987921 
L 432.126223 -25.083632 
L 106.810017 -26.139227 
L 57.185511 -26.159498 
L 57.185511 -34.594365 
L 57.185511 -34.594365 
L 106.810017 -34.561009 
L 432.126223 -32.779505 
L 445.910808 -32.613015 
L 465.209227 -32.22234 
L 470.723061 -32.058884 
L 484.507646 -31.598416 
L 531.375235 -32.037176 
L 545.15982 -32.10285 
L 547.916737 -32.111666 
L 550.673654 -32.119559 
z
" id="m841d31926b" style="stroke:#a90000;stroke-opacity:0.3;"/>
    </defs>
    <g clip-path="url(#pa7e46dd025)">
     <use style="fill:#a90000;fill-opacity:0.3;stroke:#a90000;stroke-opacity:0.3;" x="0" xlink:href="#m841d31926b" y="348.8025"/>
    </g>
   </g>
   <g id="PathCollection_1">
    <defs>
     <path d="M 0 3 
C 0.795609 3 1.55874 2.683901 2.12132 2.12132 
C 2.683901 1.55874 3 0.795609 3 0 
C 3 -0.795609 2.683901 -1.55874 2.12132 -2.12132 
C 1.55874 -2.683901 0.795609 -3 0 -3 
C -0.795609 -3 -1.55874 -2.683901 -2.12132 -2.12132 
C -2.683901 -1.55874 -3 -0.795609 -3 0 
C -3 0.795609 -2.683901 1.55874 -2.12132 2.12132 
C -1.55874 2.683901 -0.795609 3 0 3 
z
" id="m5c03f9a310" style="stroke:#a90000;"/>
    </defs>
    <g clip-path="url(#pa7e46dd025)">
     <use style="fill:#a90000;stroke:#a90000;" x="57.185511" xlink:href="#m5c03f9a310" y="315.893975"/>
     <use style="fill:#a90000;stroke:#a90000;" x="106.810017" xlink:href="#m5c03f9a310" y="320.312385"/>
     <use style="fill:#a90000;stroke:#a90000;" x="432.126223" xlink:href="#m5c03f9a310" y="326.94"/>
     <use style="fill:#a90000;stroke:#a90000;" x="445.910808" xlink:href="#m5c03f9a310" y="317.550879"/>
     <use style="fill:#a90000;stroke:#a90000;" x="465.209227" xlink:href="#m5c03f9a310" y="324.730795"/>
     <use style="fill:#a90000;stroke:#a90000;" x="470.723061" xlink:href="#m5c03f9a310" y="315.893975"/>
     <use style="fill:#a90000;stroke:#a90000;" x="484.507646" xlink:href="#m5c03f9a310" y="320.864686"/>
     <use style="fill:#a90000;stroke:#a90000;" x="531.375235" xlink:href="#m5c03f9a310" y="323.626192"/>
     <use style="fill:#a90000;stroke:#a90000;" x="545.15982" xlink:href="#m5c03f9a310" y="315.893975"/>
     <use style="fill:#a90000;stroke:#a90000;" x="547.916737" xlink:href="#m5c03f9a310" y="318.655481"/>
     <use style="fill:#a90000;stroke:#a90000;" x="550.673654" xlink:href="#m5c03f9a310" y="318.10318"/>
    </g>
   </g>
   <g id="PolyCollection_2">
    <defs>
     <path d="M 564.458239 -55.443439 
L 564.458239 -40.865554 
L 550.673654 -40.968007 
L 547.916737 -40.989781 
L 545.15982 -41.011374 
L 531.375235 -41.084346 
L 484.507646 -35.068969 
L 470.723061 -35.475081 
L 465.209227 -35.67908 
L 445.910808 -36.198893 
L 432.126223 -36.429203 
L 106.810017 -33.802028 
L 57.185511 -33.550385 
L 57.185511 -45.615452 
L 57.185511 -45.615452 
L 106.810017 -45.965687 
L 432.126223 -49.562941 
L 445.910808 -49.25152 
L 465.209227 -48.54604 
L 470.723061 -48.26816 
L 484.507646 -47.7132 
L 531.375235 -55.728383 
L 545.15982 -55.633396 
L 547.916737 -55.605279 
L 550.673654 -55.576922 
L 564.458239 -55.443439 
z
" id="m79afdbae3b" style="stroke:#a33475;stroke-opacity:0.3;"/>
    </defs>
    <g clip-path="url(#pa7e46dd025)">
     <use style="fill:#a33475;fill-opacity:0.3;stroke:#a33475;stroke-opacity:0.3;" x="0" xlink:href="#m79afdbae3b" y="348.8025"/>
    </g>
   </g>
   <g id="PathCollection_2">
    <defs>
     <path d="M 0 3 
C 0.795609 3 1.55874 2.683901 2.12132 2.12132 
C 2.683901 1.55874 3 0.795609 3 0 
C 3 -0.795609 2.683901 -1.55874 2.12132 -2.12132 
C 1.55874 -2.683901 0.795609 -3 0 -3 
C -0.795609 -3 -1.55874 -2.683901 -2.12132 -2.12132 
C -2.683901 -1.55874 -3 -0.795609 -3 0 
C -3 0.795609 -2.683901 1.55874 -2.12132 2.12132 
C -1.55874 2.683901 -0.795609 3 0 3 
z
" id="me46deba115" style="stroke:#a33475;"/>
    </defs>
    <g clip-path="url(#pa7e46dd025)">
     <use style="fill:#a33475;stroke:#a33475;" x="57.185511" xlink:href="#me46deba115" y="315.893975"/>
     <use style="fill:#a33475;stroke:#a33475;" x="106.810017" xlink:href="#me46deba115" y="271.157573"/>
     <use style="fill:#a33475;stroke:#a33475;" x="432.126223" xlink:href="#me46deba115" y="304.84795"/>
     <use style="fill:#a33475;stroke:#a33475;" x="445.910808" xlink:href="#me46deba115" y="307.057155"/>
     <use style="fill:#a33475;stroke:#a33475;" x="465.209227" xlink:href="#me46deba115" y="303.743347"/>
     <use style="fill:#a33475;stroke:#a33475;" x="470.723061" xlink:href="#me46deba115" y="299.324937"/>
     <use style="fill:#a33475;stroke:#a33475;" x="484.507646" xlink:href="#me46deba115" y="309.818661"/>
     <use style="fill:#a33475;stroke:#a33475;" x="531.375235" xlink:href="#me46deba115" y="319.207782"/>
     <use style="fill:#a33475;stroke:#a33475;" x="545.15982" xlink:href="#me46deba115" y="299.324937"/>
     <use style="fill:#a33475;stroke:#a33475;" x="547.916737" xlink:href="#me46deba115" y="302.086444"/>
     <use style="fill:#a33475;stroke:#a33475;" x="550.673654" xlink:href="#me46deba115" y="303.743347"/>
     <use style="fill:#a33475;stroke:#a33475;" x="564.458239" xlink:href="#me46deba115" y="315.341674"/>
    </g>
   </g>
   <g id="PolyCollection_3">
    <defs>
     <path d="M 564.458239 -126.002173 
L 564.458239 -100.557541 
L 550.673654 -99.272905 
L 547.916737 -98.954273 
L 545.15982 -98.610355 
L 531.375235 -96.44825 
L 484.507646 -104.600087 
L 470.723061 -101.397072 
L 465.209227 -100.425386 
L 445.910808 -98.282952 
L 432.126223 -97.429344 
L 106.810017 -99.200357 
L 57.185511 -99.28141 
L 57.185511 -124.574197 
L 57.185511 -124.574197 
L 106.810017 -124.483427 
L 432.126223 -122.497907 
L 445.910808 -123.455432 
L 465.209227 -125.854391 
L 470.723061 -126.940442 
L 484.507646 -130.51197 
L 531.375235 -121.396144 
L 545.15982 -123.822431 
L 547.916737 -124.207789 
L 550.673654 -124.564673 
L 564.458239 -126.002173 
z
" id="m008362c1b4" style="stroke:#cfbb0a;stroke-opacity:0.3;"/>
    </defs>
    <g clip-path="url(#pa7e46dd025)">
     <use style="fill:#cfbb0a;fill-opacity:0.3;stroke:#cfbb0a;stroke-opacity:0.3;" x="0" xlink:href="#m008362c1b4" y="348.8025"/>
    </g>
   </g>
   <g id="PathCollection_3">
    <defs>
     <path d="M 0 3 
C 0.795609 3 1.55874 2.683901 2.12132 2.12132 
C 2.683901 1.55874 3 0.795609 3 0 
C 3 -0.795609 2.683901 -1.55874 2.12132 -2.12132 
C 1.55874 -2.683901 0.795609 -3 0 -3 
C -0.795609 -3 -1.55874 -2.683901 -2.12132 -2.12132 
C -2.683901 -1.55874 -3 -0.795609 -3 0 
C -3 0.795609 -2.683901 1.55874 -2.12132 2.12132 
C -1.55874 2.683901 -0.795609 3 0 3 
z
" id="mf3ddf9d2d0" style="stroke:#cfbb0a;"/>
    </defs>
    <g clip-path="url(#pa7e46dd025)">
     <use style="fill:#cfbb0a;stroke:#cfbb0a;" x="57.185511" xlink:href="#mf3ddf9d2d0" y="164.01113"/>
     <use style="fill:#cfbb0a;stroke:#cfbb0a;" x="106.810017" xlink:href="#mf3ddf9d2d0" y="282.7559"/>
     <use style="fill:#cfbb0a;stroke:#cfbb0a;" x="432.126223" xlink:href="#mf3ddf9d2d0" y="266.186862"/>
     <use style="fill:#cfbb0a;stroke:#cfbb0a;" x="445.910808" xlink:href="#mf3ddf9d2d0" y="232.496485"/>
     <use style="fill:#cfbb0a;stroke:#cfbb0a;" x="465.209227" xlink:href="#mf3ddf9d2d0" y="234.70569"/>
     <use style="fill:#cfbb0a;stroke:#cfbb0a;" x="470.723061" xlink:href="#mf3ddf9d2d0" y="260.663849"/>
     <use style="fill:#cfbb0a;stroke:#cfbb0a;" x="484.507646" xlink:href="#mf3ddf9d2d0" y="155.17431"/>
     <use style="fill:#cfbb0a;stroke:#cfbb0a;" x="531.375235" xlink:href="#mf3ddf9d2d0" y="267.291464"/>
     <use style="fill:#cfbb0a;stroke:#cfbb0a;" x="545.15982" xlink:href="#mf3ddf9d2d0" y="260.663849"/>
     <use style="fill:#cfbb0a;stroke:#cfbb0a;" x="547.916737" xlink:href="#mf3ddf9d2d0" y="244.094812"/>
     <use style="fill:#cfbb0a;stroke:#cfbb0a;" x="550.673654" xlink:href="#mf3ddf9d2d0" y="234.70569"/>
     <use style="fill:#cfbb0a;stroke:#cfbb0a;" x="564.458239" xlink:href="#mf3ddf9d2d0" y="238.019498"/>
    </g>
   </g>
   <g id="PolyCollection_4">
    <defs>
     <path d="M 564.458239 -241.420825 
L 564.458239 -208.40989 
L 550.673654 -208.602495 
L 547.916737 -208.647302 
L 545.15982 -208.694565 
L 531.375235 -208.974423 
L 484.507646 -210.507038 
L 470.723061 -209.817699 
L 465.209227 -208.753656 
L 445.910808 -203.957343 
L 432.126223 -202.949774 
L 374.230966 -203.476004 
L 374.230966 -203.476004 
L 106.810017 -222.318957 
L 57.185511 -223.769344 
L 57.185511 -257.250958 
L 57.185511 -257.250958 
L 106.810017 -255.761256 
L 374.230966 -236.309694 
L 374.230966 -236.309694 
L 432.126223 -235.763791 
L 445.910808 -236.808896 
L 465.209227 -241.77646 
L 470.723061 -242.876845 
L 484.507646 -243.589412 
L 531.375235 -242.004816 
L 545.15982 -241.715333 
L 547.916737 -241.666441 
L 550.673654 -241.620088 
L 564.458239 -241.420825 
z
" id="m11e23fe7bd" style="stroke:#f55916;stroke-opacity:0.3;"/>
    </defs>
    <g clip-path="url(#pa7e46dd025)">
     <use style="fill:#f55916;fill-opacity:0.3;stroke:#f55916;stroke-opacity:0.3;" x="0" xlink:href="#m11e23fe7bd" y="348.8025"/>
    </g>
   </g>
   <g id="PathCollection_4">
    <defs>
     <path d="M 0 3 
C 0.795609 3 1.55874 2.683901 2.12132 2.12132 
C 2.683901 1.55874 3 0.795609 3 0 
C 3 -0.795609 2.683901 -1.55874 2.12132 -2.12132 
C 1.55874 -2.683901 0.795609 -3 0 -3 
C -0.795609 -3 -1.55874 -2.683901 -2.12132 -2.12132 
C -2.683901 -1.55874 -3 -0.795609 -3 0 
C -3 0.795609 -2.683901 1.55874 -2.12132 2.12132 
C -1.55874 2.683901 -0.795609 3 0 3 
z
" id="m2df9800b2d" style="stroke:#f55916;"/>
    </defs>
    <g clip-path="url(#pa7e46dd025)">
     <use style="fill:#f55916;stroke:#f55916;" x="57.185511" xlink:href="#m2df9800b2d" y="122.588536"/>
     <use style="fill:#f55916;stroke:#f55916;" x="106.810017" xlink:href="#m2df9800b2d" y="146.33749"/>
     <use style="fill:#f55916;stroke:#f55916;" x="374.230966" xlink:href="#m2df9800b2d" y="119.827029"/>
     <use style="fill:#f55916;stroke:#f55916;" x="374.230966" xlink:href="#m2df9800b2d" y="125.350042"/>
     <use style="fill:#f55916;stroke:#f55916;" x="432.126223" xlink:href="#m2df9800b2d" y="117.065523"/>
     <use style="fill:#f55916;stroke:#f55916;" x="445.910808" xlink:href="#m2df9800b2d" y="107.1241"/>
     <use style="fill:#f55916;stroke:#f55916;" x="465.209227" xlink:href="#m2df9800b2d" y="99.944184"/>
     <use style="fill:#f55916;stroke:#f55916;" x="470.723061" xlink:href="#m2df9800b2d" y="119.827029"/>
     <use style="fill:#f55916;stroke:#f55916;" x="484.507646" xlink:href="#m2df9800b2d" y="136.396067"/>
     <use style="fill:#f55916;stroke:#f55916;" x="531.375235" xlink:href="#m2df9800b2d" y="170.638745"/>
     <use style="fill:#f55916;stroke:#f55916;" x="545.15982" xlink:href="#m2df9800b2d" y="119.827029"/>
     <use style="fill:#f55916;stroke:#f55916;" x="547.916737" xlink:href="#m2df9800b2d" y="122.588536"/>
     <use style="fill:#f55916;stroke:#f55916;" x="550.673654" xlink:href="#m2df9800b2d" y="112.647113"/>
     <use style="fill:#f55916;stroke:#f55916;" x="564.458239" xlink:href="#m2df9800b2d" y="93.316569"/>
    </g>
   </g>
   <g id="PolyCollection_5">
    <defs>
     <path d="M 564.458239 -263.667773 
L 564.458239 -230.028482 
L 550.673654 -229.693324 
L 547.916737 -229.60493 
L 545.15982 -229.507286 
L 531.375235 -228.831415 
L 484.507646 -217.845185 
L 470.723061 -207.702638 
L 465.209227 -203.979895 
L 445.910808 -199.378352 
L 432.126223 -202.045203 
L 374.230966 -212.654424 
L 374.230966 -212.654424 
L 106.810017 -216.924799 
L 57.185511 -216.67252 
L 57.185511 -249.951668 
L 57.185511 -249.951668 
L 106.810017 -250.211583 
L 374.230966 -245.807565 
L 374.230966 -245.807565 
L 432.126223 -234.825056 
L 445.910808 -232.054898 
L 465.209227 -236.832282 
L 470.723061 -240.68896 
L 484.507646 -251.159548 
L 531.375235 -262.442046 
L 545.15982 -263.134185 
L 547.916737 -263.23416 
L 550.673654 -263.324661 
L 564.458239 -263.667773 
z
" id="m5911b9825f" style="stroke:#507cd4;stroke-opacity:0.3;"/>
    </defs>
    <g clip-path="url(#pa7e46dd025)">
     <use style="fill:#507cd4;fill-opacity:0.3;stroke:#507cd4;stroke-opacity:0.3;" x="0" xlink:href="#m5911b9825f" y="348.8025"/>
    </g>
   </g>
   <g id="PathCollection_5">
    <defs>
     <path d="M 0 3 
C 0.795609 3 1.55874 2.683901 2.12132 2.12132 
C 2.683901 1.55874 3 0.795609 3 0 
C 3 -0.795609 2.683901 -1.55874 2.12132 -2.12132 
C 1.55874 -2.683901 0.795609 -3 0 -3 
C -0.795609 -3 -1.55874 -2.683901 -2.12132 -2.12132 
C -2.683901 -1.55874 -3 -0.795609 -3 0 
C -3 0.795609 -2.683901 1.55874 -2.12132 2.12132 
C -1.55874 2.683901 -0.795609 3 0 3 
z
" id="m311e91eb63" style="stroke:#507cd4;"/>
    </defs>
    <g clip-path="url(#pa7e46dd025)">
     <use style="fill:#507cd4;stroke:#507cd4;" x="57.185511" xlink:href="#m311e91eb63" y="164.01113"/>
     <use style="fill:#507cd4;stroke:#507cd4;" x="106.810017" xlink:href="#m311e91eb63" y="62.94"/>
     <use style="fill:#507cd4;stroke:#507cd4;" x="374.230966" xlink:href="#m311e91eb63" y="78.404435"/>
     <use style="fill:#507cd4;stroke:#507cd4;" x="374.230966" xlink:href="#m311e91eb63" y="86.688954"/>
     <use style="fill:#507cd4;stroke:#507cd4;" x="432.126223" xlink:href="#m311e91eb63" y="78.404435"/>
     <use style="fill:#507cd4;stroke:#507cd4;" x="445.910808" xlink:href="#m311e91eb63" y="118.170126"/>
     <use style="fill:#507cd4;stroke:#507cd4;" x="465.209227" xlink:href="#m311e91eb63" y="119.274728"/>
     <use style="fill:#507cd4;stroke:#507cd4;" x="470.723061" xlink:href="#m311e91eb63" y="86.688954"/>
     <use style="fill:#507cd4;stroke:#507cd4;" x="484.507646" xlink:href="#m311e91eb63" y="160.145021"/>
     <use style="fill:#507cd4;stroke:#507cd4;" x="531.375235" xlink:href="#m311e91eb63" y="186.655481"/>
     <use style="fill:#507cd4;stroke:#507cd4;" x="545.15982" xlink:href="#m311e91eb63" y="86.688954"/>
     <use style="fill:#507cd4;stroke:#507cd4;" x="547.916737" xlink:href="#m311e91eb63" y="94.973473"/>
     <use style="fill:#507cd4;stroke:#507cd4;" x="550.673654" xlink:href="#m311e91eb63" y="116.513222"/>
     <use style="fill:#507cd4;stroke:#507cd4;" x="564.458239" xlink:href="#m311e91eb63" y="117.617824"/>
    </g>
   </g>
   <g id="matplotlib.axis_1">
    <g id="xtick_1">
     <g id="line2d_1">
      <defs>
       <path d="M 0 0 
L 0 2 
" id="mbab268ad48" style="stroke:#000000;stroke-width:0.6;"/>
      </defs>
      <g>
       <use style="stroke:#000000;stroke-width:0.6;" x="32.373258" xlink:href="#mbab268ad48" y="326.94"/>
      </g>
     </g>
     <g id="text_1">
      <!-- feb -->
      <defs>
       <path d="M 8.6875 0 
L 8.6875 45.015625 
L 0.921875 45.015625 
L 0.921875 51.859375 
L 8.6875 51.859375 
L 8.6875 57.375 
Q 8.6875 62.59375 9.625 65.140625 
Q 10.890625 68.5625 14.078125 70.671875 
Q 17.28125 72.796875 23.046875 72.796875 
Q 26.765625 72.796875 31.25 71.921875 
L 29.9375 64.265625 
Q 27.203125 64.75 24.75 64.75 
Q 20.75 64.75 19.09375 63.03125 
Q 17.4375 61.328125 17.4375 56.640625 
L 17.4375 51.859375 
L 27.546875 51.859375 
L 27.546875 45.015625 
L 17.4375 45.015625 
L 17.4375 0 
z
" id="ArialMT-102"/>
       <path d="M 42.09375 16.703125 
L 51.171875 15.578125 
Q 49.03125 7.625 43.21875 3.21875 
Q 37.40625 -1.171875 28.375 -1.171875 
Q 17 -1.171875 10.328125 5.828125 
Q 3.65625 12.84375 3.65625 25.484375 
Q 3.65625 38.578125 10.390625 45.796875 
Q 17.140625 53.03125 27.875 53.03125 
Q 38.28125 53.03125 44.875 45.953125 
Q 51.46875 38.875 51.46875 26.03125 
Q 51.46875 25.25 51.421875 23.6875 
L 12.75 23.6875 
Q 13.234375 15.140625 17.578125 10.59375 
Q 21.921875 6.0625 28.421875 6.0625 
Q 33.25 6.0625 36.671875 8.59375 
Q 40.09375 11.140625 42.09375 16.703125 
z
M 13.234375 30.90625 
L 42.1875 30.90625 
Q 41.609375 37.453125 38.875 40.71875 
Q 34.671875 45.796875 27.984375 45.796875 
Q 21.921875 45.796875 17.796875 41.75 
Q 13.671875 37.703125 13.234375 30.90625 
z
" id="ArialMT-101"/>
       <path d="M 14.703125 0 
L 6.546875 0 
L 6.546875 71.578125 
L 15.328125 71.578125 
L 15.328125 46.046875 
Q 20.90625 53.03125 29.546875 53.03125 
Q 34.328125 53.03125 38.59375 51.09375 
Q 42.875 49.171875 45.625 45.671875 
Q 48.390625 42.1875 49.953125 37.25 
Q 51.515625 32.328125 51.515625 26.703125 
Q 51.515625 13.375 44.921875 6.09375 
Q 38.328125 -1.171875 29.109375 -1.171875 
Q 19.921875 -1.171875 14.703125 6.5 
z
M 14.59375 26.3125 
Q 14.59375 17 17.140625 12.84375 
Q 21.296875 6.0625 28.375 6.0625 
Q 34.125 6.0625 38.328125 11.0625 
Q 42.53125 16.0625 42.53125 25.984375 
Q 42.53125 36.140625 38.5 40.96875 
Q 34.46875 45.796875 28.765625 45.796875 
Q 23 45.796875 18.796875 40.796875 
Q 14.59375 35.796875 14.59375 26.3125 
z
" id="ArialMT-98"/>
      </defs>
      <g transform="translate(25.423258 339.497813)scale(0.1 -0.1)">
       <use xlink:href="#ArialMT-102"/>
       <use x="27.783203" xlink:href="#ArialMT-101"/>
       <use x="83.398438" xlink:href="#ArialMT-98"/>
      </g>
     </g>
    </g>
    <g id="xtick_2">
     <g id="line2d_2">
      <g>
       <use style="stroke:#000000;stroke-width:0.6;" x="112.323851" xlink:href="#mbab268ad48" y="326.94"/>
      </g>
     </g>
     <g id="text_2">
      <!-- mar -->
      <defs>
       <path d="M 6.59375 0 
L 6.59375 51.859375 
L 14.453125 51.859375 
L 14.453125 44.578125 
Q 16.890625 48.390625 20.9375 50.703125 
Q 25 53.03125 30.171875 53.03125 
Q 35.9375 53.03125 39.625 50.640625 
Q 43.3125 48.25 44.828125 43.953125 
Q 50.984375 53.03125 60.84375 53.03125 
Q 68.5625 53.03125 72.703125 48.75 
Q 76.859375 44.484375 76.859375 35.59375 
L 76.859375 0 
L 68.109375 0 
L 68.109375 32.671875 
Q 68.109375 37.9375 67.25 40.25 
Q 66.40625 42.578125 64.15625 43.984375 
Q 61.921875 45.40625 58.890625 45.40625 
Q 53.421875 45.40625 49.796875 41.765625 
Q 46.1875 38.140625 46.1875 30.125 
L 46.1875 0 
L 37.40625 0 
L 37.40625 33.6875 
Q 37.40625 39.546875 35.25 42.46875 
Q 33.109375 45.40625 28.21875 45.40625 
Q 24.515625 45.40625 21.359375 43.453125 
Q 18.21875 41.5 16.796875 37.734375 
Q 15.375 33.984375 15.375 26.90625 
L 15.375 0 
z
" id="ArialMT-109"/>
       <path d="M 40.4375 6.390625 
Q 35.546875 2.25 31.03125 0.53125 
Q 26.515625 -1.171875 21.34375 -1.171875 
Q 12.796875 -1.171875 8.203125 3 
Q 3.609375 7.171875 3.609375 13.671875 
Q 3.609375 17.484375 5.34375 20.625 
Q 7.078125 23.78125 9.890625 25.6875 
Q 12.703125 27.59375 16.21875 28.5625 
Q 18.796875 29.25 24.03125 29.890625 
Q 34.671875 31.15625 39.703125 32.90625 
Q 39.75 34.71875 39.75 35.203125 
Q 39.75 40.578125 37.25 42.78125 
Q 33.890625 45.75 27.25 45.75 
Q 21.046875 45.75 18.09375 43.578125 
Q 15.140625 41.40625 13.71875 35.890625 
L 5.125 37.0625 
Q 6.296875 42.578125 8.984375 45.96875 
Q 11.671875 49.359375 16.75 51.1875 
Q 21.828125 53.03125 28.515625 53.03125 
Q 35.15625 53.03125 39.296875 51.46875 
Q 43.453125 49.90625 45.40625 47.53125 
Q 47.359375 45.171875 48.140625 41.546875 
Q 48.578125 39.3125 48.578125 33.453125 
L 48.578125 21.734375 
Q 48.578125 9.46875 49.140625 6.21875 
Q 49.703125 2.984375 51.375 0 
L 42.1875 0 
Q 40.828125 2.734375 40.4375 6.390625 
z
M 39.703125 26.03125 
Q 34.90625 24.078125 25.34375 22.703125 
Q 19.921875 21.921875 17.671875 20.9375 
Q 15.4375 19.96875 14.203125 18.09375 
Q 12.984375 16.21875 12.984375 13.921875 
Q 12.984375 10.40625 15.640625 8.0625 
Q 18.3125 5.71875 23.4375 5.71875 
Q 28.515625 5.71875 32.46875 7.9375 
Q 36.421875 10.15625 38.28125 14.015625 
Q 39.703125 17 39.703125 22.796875 
z
" id="ArialMT-97"/>
       <path d="M 6.5 0 
L 6.5 51.859375 
L 14.40625 51.859375 
L 14.40625 44 
Q 17.4375 49.515625 20 51.265625 
Q 22.5625 53.03125 25.640625 53.03125 
Q 30.078125 53.03125 34.671875 50.203125 
L 31.640625 42.046875 
Q 28.421875 43.953125 25.203125 43.953125 
Q 22.3125 43.953125 20.015625 42.21875 
Q 17.71875 40.484375 16.75 37.40625 
Q 15.28125 32.71875 15.28125 27.15625 
L 15.28125 0 
z
" id="ArialMT-114"/>
      </defs>
      <g transform="translate(103.713695 339.497813)scale(0.1 -0.1)">
       <use xlink:href="#ArialMT-109"/>
       <use x="83.300781" xlink:href="#ArialMT-97"/>
       <use x="138.916016" xlink:href="#ArialMT-114"/>
      </g>
     </g>
    </g>
    <g id="xtick_3">
     <g id="line2d_3">
      <g>
       <use style="stroke:#000000;stroke-width:0.6;" x="197.788278" xlink:href="#mbab268ad48" y="326.94"/>
      </g>
     </g>
     <g id="text_3">
      <!-- apr -->
      <defs>
       <path d="M 6.59375 -19.875 
L 6.59375 51.859375 
L 14.59375 51.859375 
L 14.59375 45.125 
Q 17.4375 49.078125 21 51.046875 
Q 24.5625 53.03125 29.640625 53.03125 
Q 36.28125 53.03125 41.359375 49.609375 
Q 46.4375 46.1875 49.015625 39.953125 
Q 51.609375 33.734375 51.609375 26.3125 
Q 51.609375 18.359375 48.75 11.984375 
Q 45.90625 5.609375 40.453125 2.21875 
Q 35.015625 -1.171875 29 -1.171875 
Q 24.609375 -1.171875 21.109375 0.6875 
Q 17.625 2.546875 15.375 5.375 
L 15.375 -19.875 
z
M 14.546875 25.640625 
Q 14.546875 15.625 18.59375 10.84375 
Q 22.65625 6.0625 28.421875 6.0625 
Q 34.28125 6.0625 38.453125 11.015625 
Q 42.625 15.96875 42.625 26.375 
Q 42.625 36.28125 38.546875 41.203125 
Q 34.46875 46.140625 28.8125 46.140625 
Q 23.1875 46.140625 18.859375 40.890625 
Q 14.546875 35.640625 14.546875 25.640625 
z
" id="ArialMT-112"/>
      </defs>
      <g transform="translate(190.562497 339.497813)scale(0.1 -0.1)">
       <use xlink:href="#ArialMT-97"/>
       <use x="55.615234" xlink:href="#ArialMT-112"/>
       <use x="111.230469" xlink:href="#ArialMT-114"/>
      </g>
     </g>
    </g>
    <g id="xtick_4">
     <g id="line2d_4">
      <g>
       <use style="stroke:#000000;stroke-width:0.6;" x="280.495788" xlink:href="#mbab268ad48" y="326.94"/>
      </g>
     </g>
     <g id="text_4">
      <!-- mag -->
      <defs>
       <path d="M 4.984375 -4.296875 
L 13.53125 -5.5625 
Q 14.0625 -9.515625 16.5 -11.328125 
Q 19.78125 -13.765625 25.4375 -13.765625 
Q 31.546875 -13.765625 34.859375 -11.328125 
Q 38.1875 -8.890625 39.359375 -4.5 
Q 40.046875 -1.8125 39.984375 6.78125 
Q 34.234375 0 25.640625 0 
Q 14.9375 0 9.078125 7.71875 
Q 3.21875 15.4375 3.21875 26.21875 
Q 3.21875 33.640625 5.90625 39.90625 
Q 8.59375 46.1875 13.6875 49.609375 
Q 18.796875 53.03125 25.6875 53.03125 
Q 34.859375 53.03125 40.828125 45.609375 
L 40.828125 51.859375 
L 48.921875 51.859375 
L 48.921875 7.03125 
Q 48.921875 -5.078125 46.453125 -10.125 
Q 44 -15.1875 38.640625 -18.109375 
Q 33.296875 -21.046875 25.484375 -21.046875 
Q 16.21875 -21.046875 10.5 -16.875 
Q 4.78125 -12.703125 4.984375 -4.296875 
z
M 12.25 26.859375 
Q 12.25 16.65625 16.296875 11.96875 
Q 20.359375 7.28125 26.46875 7.28125 
Q 32.515625 7.28125 36.609375 11.9375 
Q 40.71875 16.609375 40.71875 26.5625 
Q 40.71875 36.078125 36.5 40.90625 
Q 32.28125 45.75 26.3125 45.75 
Q 20.453125 45.75 16.34375 40.984375 
Q 12.25 36.234375 12.25 26.859375 
z
" id="ArialMT-103"/>
      </defs>
      <g transform="translate(270.770007 339.380625)scale(0.1 -0.1)">
       <use xlink:href="#ArialMT-109"/>
       <use x="83.300781" xlink:href="#ArialMT-97"/>
       <use x="138.916016" xlink:href="#ArialMT-103"/>
      </g>
     </g>
    </g>
    <g id="xtick_5">
     <g id="line2d_5">
      <g>
       <use style="stroke:#000000;stroke-width:0.6;" x="365.960215" xlink:href="#mbab268ad48" y="326.94"/>
      </g>
     </g>
     <g id="text_5">
      <!-- giu -->
      <defs>
       <path d="M 6.640625 61.46875 
L 6.640625 71.578125 
L 15.4375 71.578125 
L 15.4375 61.46875 
z
M 6.640625 0 
L 6.640625 51.859375 
L 15.4375 51.859375 
L 15.4375 0 
z
" id="ArialMT-105"/>
       <path d="M 40.578125 0 
L 40.578125 7.625 
Q 34.515625 -1.171875 24.125 -1.171875 
Q 19.53125 -1.171875 15.546875 0.578125 
Q 11.578125 2.34375 9.640625 5 
Q 7.71875 7.671875 6.9375 11.53125 
Q 6.390625 14.109375 6.390625 19.734375 
L 6.390625 51.859375 
L 15.1875 51.859375 
L 15.1875 23.09375 
Q 15.1875 16.21875 15.71875 13.8125 
Q 16.546875 10.359375 19.234375 8.375 
Q 21.921875 6.390625 25.875 6.390625 
Q 29.828125 6.390625 33.296875 8.421875 
Q 36.765625 10.453125 38.203125 13.9375 
Q 39.65625 17.4375 39.65625 24.078125 
L 39.65625 51.859375 
L 48.4375 51.859375 
L 48.4375 0 
z
" id="ArialMT-117"/>
      </defs>
      <g transform="translate(359.28834 339.497813)scale(0.1 -0.1)">
       <use xlink:href="#ArialMT-103"/>
       <use x="55.615234" xlink:href="#ArialMT-105"/>
       <use x="77.832031" xlink:href="#ArialMT-117"/>
      </g>
     </g>
    </g>
    <g id="xtick_6">
     <g id="line2d_6">
      <g>
       <use style="stroke:#000000;stroke-width:0.6;" x="448.667725" xlink:href="#mbab268ad48" y="326.94"/>
      </g>
     </g>
     <g id="text_6">
      <!-- lug -->
      <defs>
       <path d="M 6.390625 0 
L 6.390625 71.578125 
L 15.1875 71.578125 
L 15.1875 0 
z
" id="ArialMT-108"/>
      </defs>
      <g transform="translate(441.99585 339.497813)scale(0.1 -0.1)">
       <use xlink:href="#ArialMT-108"/>
       <use x="22.216797" xlink:href="#ArialMT-117"/>
       <use x="77.832031" xlink:href="#ArialMT-103"/>
      </g>
     </g>
    </g>
    <g id="xtick_7">
     <g id="line2d_7">
      <g>
       <use style="stroke:#000000;stroke-width:0.6;" x="534.132152" xlink:href="#mbab268ad48" y="326.94"/>
      </g>
     </g>
     <g id="text_7">
      <!-- ago -->
      <defs>
       <path d="M 3.328125 25.921875 
Q 3.328125 40.328125 11.328125 47.265625 
Q 18.015625 53.03125 27.640625 53.03125 
Q 38.328125 53.03125 45.109375 46.015625 
Q 51.90625 39.015625 51.90625 26.65625 
Q 51.90625 16.65625 48.90625 10.90625 
Q 45.90625 5.171875 40.15625 2 
Q 34.421875 -1.171875 27.640625 -1.171875 
Q 16.75 -1.171875 10.03125 5.8125 
Q 3.328125 12.796875 3.328125 25.921875 
z
M 12.359375 25.921875 
Q 12.359375 15.96875 16.703125 11.015625 
Q 21.046875 6.0625 27.640625 6.0625 
Q 34.1875 6.0625 38.53125 11.03125 
Q 42.875 16.015625 42.875 26.21875 
Q 42.875 35.84375 38.5 40.796875 
Q 34.125 45.75 27.640625 45.75 
Q 21.046875 45.75 16.703125 40.8125 
Q 12.359375 35.890625 12.359375 25.921875 
z
" id="ArialMT-111"/>
      </defs>
      <g transform="translate(525.790745 339.380625)scale(0.1 -0.1)">
       <use xlink:href="#ArialMT-97"/>
       <use x="55.615234" xlink:href="#ArialMT-103"/>
       <use x="111.230469" xlink:href="#ArialMT-111"/>
      </g>
     </g>
    </g>
   </g>
   <g id="matplotlib.axis_2">
    <g id="ytick_1">
     <g id="line2d_8">
      <path clip-path="url(#pa7e46dd025)" d="M 31.821875 326.94 
L 589.821875 326.94 
" style="fill:none;stroke:#b0b0b0;stroke-linecap:square;stroke-width:0.8;"/>
     </g>
     <g id="line2d_9">
      <defs>
       <path d="M 0 0 
L -10 0 
" id="m419c149977" style="stroke:#000000;stroke-width:0.8;"/>
      </defs>
      <g>
       <use style="stroke:#000000;stroke-width:0.8;" x="31.821875" xlink:href="#m419c149977" y="326.94"/>
      </g>
     </g>
     <g id="text_8">
      <!-- 0 -->
      <defs>
       <path d="M 4.15625 35.296875 
Q 4.15625 48 6.765625 55.734375 
Q 9.375 63.484375 14.515625 67.671875 
Q 19.671875 71.875 27.484375 71.875 
Q 33.25 71.875 37.59375 69.546875 
Q 41.9375 67.234375 44.765625 62.859375 
Q 47.609375 58.5 49.21875 52.21875 
Q 50.828125 45.953125 50.828125 35.296875 
Q 50.828125 22.703125 48.234375 14.96875 
Q 45.65625 7.234375 40.5 3 
Q 35.359375 -1.21875 27.484375 -1.21875 
Q 17.140625 -1.21875 11.234375 6.203125 
Q 4.15625 15.140625 4.15625 35.296875 
z
M 13.1875 35.296875 
Q 13.1875 17.671875 17.3125 11.828125 
Q 21.4375 6 27.484375 6 
Q 33.546875 6 37.671875 11.859375 
Q 41.796875 17.71875 41.796875 35.296875 
Q 41.796875 52.984375 37.671875 58.78125 
Q 33.546875 64.59375 27.390625 64.59375 
Q 21.34375 64.59375 17.71875 59.46875 
Q 13.1875 52.9375 13.1875 35.296875 
z
" id="ArialMT-48"/>
      </defs>
      <g transform="translate(12.760938 330.518906)scale(0.1 -0.1)">
       <use xlink:href="#ArialMT-48"/>
      </g>
     </g>
    </g>
    <g id="ytick_2">
     <g id="line2d_10">
      <path clip-path="url(#pa7e46dd025)" d="M 31.821875 271.709874 
L 589.821875 271.709874 
" style="fill:none;stroke:#b0b0b0;stroke-linecap:square;stroke-width:0.8;"/>
     </g>
     <g id="line2d_11">
      <g>
       <use style="stroke:#000000;stroke-width:0.8;" x="31.821875" xlink:href="#m419c149977" y="271.709874"/>
      </g>
     </g>
     <g id="text_9">
      <!-- 10 -->
      <defs>
       <path d="M 37.25 0 
L 28.46875 0 
L 28.46875 56 
Q 25.296875 52.984375 20.140625 49.953125 
Q 14.984375 46.921875 10.890625 45.40625 
L 10.890625 53.90625 
Q 18.265625 57.375 23.78125 62.296875 
Q 29.296875 67.234375 31.59375 71.875 
L 37.25 71.875 
z
" id="ArialMT-49"/>
      </defs>
      <g transform="translate(7.2 275.288781)scale(0.1 -0.1)">
       <use xlink:href="#ArialMT-49"/>
       <use x="55.615234" xlink:href="#ArialMT-48"/>
      </g>
     </g>
    </g>
    <g id="ytick_3">
     <g id="line2d_12">
      <path clip-path="url(#pa7e46dd025)" d="M 31.821875 216.479749 
L 589.821875 216.479749 
" style="fill:none;stroke:#b0b0b0;stroke-linecap:square;stroke-width:0.8;"/>
     </g>
     <g id="line2d_13">
      <g>
       <use style="stroke:#000000;stroke-width:0.8;" x="31.821875" xlink:href="#m419c149977" y="216.479749"/>
      </g>
     </g>
     <g id="text_10">
      <!-- 20 -->
      <defs>
       <path d="M 50.34375 8.453125 
L 50.34375 0 
L 3.03125 0 
Q 2.9375 3.171875 4.046875 6.109375 
Q 5.859375 10.9375 9.828125 15.625 
Q 13.8125 20.3125 21.34375 26.46875 
Q 33.015625 36.03125 37.109375 41.625 
Q 41.21875 47.21875 41.21875 52.203125 
Q 41.21875 57.421875 37.46875 61 
Q 33.734375 64.59375 27.734375 64.59375 
Q 21.390625 64.59375 17.578125 60.78125 
Q 13.765625 56.984375 13.71875 50.25 
L 4.6875 51.171875 
Q 5.609375 61.28125 11.65625 66.578125 
Q 17.71875 71.875 27.9375 71.875 
Q 38.234375 71.875 44.234375 66.15625 
Q 50.25 60.453125 50.25 52 
Q 50.25 47.703125 48.484375 43.546875 
Q 46.734375 39.40625 42.65625 34.8125 
Q 38.578125 30.21875 29.109375 22.21875 
Q 21.1875 15.578125 18.9375 13.203125 
Q 16.703125 10.84375 15.234375 8.453125 
z
" id="ArialMT-50"/>
      </defs>
      <g transform="translate(7.2 220.058655)scale(0.1 -0.1)">
       <use xlink:href="#ArialMT-50"/>
       <use x="55.615234" xlink:href="#ArialMT-48"/>
      </g>
     </g>
    </g>
    <g id="ytick_4">
     <g id="line2d_14">
      <path clip-path="url(#pa7e46dd025)" d="M 31.821875 161.249623 
L 589.821875 161.249623 
" style="fill:none;stroke:#b0b0b0;stroke-linecap:square;stroke-width:0.8;"/>
     </g>
     <g id="line2d_15">
      <g>
       <use style="stroke:#000000;stroke-width:0.8;" x="31.821875" xlink:href="#m419c149977" y="161.249623"/>
      </g>
     </g>
     <g id="text_11">
      <!-- 30 -->
      <defs>
       <path d="M 4.203125 18.890625 
L 12.984375 20.0625 
Q 14.5 12.59375 18.140625 9.296875 
Q 21.78125 6 27 6 
Q 33.203125 6 37.46875 10.296875 
Q 41.75 14.59375 41.75 20.953125 
Q 41.75 27 37.796875 30.921875 
Q 33.84375 34.859375 27.734375 34.859375 
Q 25.25 34.859375 21.53125 33.890625 
L 22.515625 41.609375 
Q 23.390625 41.5 23.921875 41.5 
Q 29.546875 41.5 34.03125 44.421875 
Q 38.53125 47.359375 38.53125 53.46875 
Q 38.53125 58.296875 35.25 61.46875 
Q 31.984375 64.65625 26.8125 64.65625 
Q 21.6875 64.65625 18.265625 61.421875 
Q 14.84375 58.203125 13.875 51.765625 
L 5.078125 53.328125 
Q 6.6875 62.15625 12.390625 67.015625 
Q 18.109375 71.875 26.609375 71.875 
Q 32.46875 71.875 37.390625 69.359375 
Q 42.328125 66.84375 44.9375 62.5 
Q 47.5625 58.15625 47.5625 53.265625 
Q 47.5625 48.640625 45.0625 44.828125 
Q 42.578125 41.015625 37.703125 38.765625 
Q 44.046875 37.3125 47.5625 32.6875 
Q 51.078125 28.078125 51.078125 21.140625 
Q 51.078125 11.765625 44.234375 5.25 
Q 37.40625 -1.265625 26.953125 -1.265625 
Q 17.53125 -1.265625 11.296875 4.34375 
Q 5.078125 9.96875 4.203125 18.890625 
z
" id="ArialMT-51"/>
      </defs>
      <g transform="translate(7.2 164.82853)scale(0.1 -0.1)">
       <use xlink:href="#ArialMT-51"/>
       <use x="55.615234" xlink:href="#ArialMT-48"/>
      </g>
     </g>
    </g>
    <g id="ytick_5">
     <g id="line2d_16">
      <path clip-path="url(#pa7e46dd025)" d="M 31.821875 106.019498 
L 589.821875 106.019498 
" style="fill:none;stroke:#b0b0b0;stroke-linecap:square;stroke-width:0.8;"/>
     </g>
     <g id="line2d_17">
      <g>
       <use style="stroke:#000000;stroke-width:0.8;" x="31.821875" xlink:href="#m419c149977" y="106.019498"/>
      </g>
     </g>
     <g id="text_12">
      <!-- 40 -->
      <defs>
       <path d="M 32.328125 0 
L 32.328125 17.140625 
L 1.265625 17.140625 
L 1.265625 25.203125 
L 33.9375 71.578125 
L 41.109375 71.578125 
L 41.109375 25.203125 
L 50.78125 25.203125 
L 50.78125 17.140625 
L 41.109375 17.140625 
L 41.109375 0 
z
M 32.328125 25.203125 
L 32.328125 57.46875 
L 9.90625 25.203125 
z
" id="ArialMT-52"/>
      </defs>
      <g transform="translate(7.2 109.598404)scale(0.1 -0.1)">
       <use xlink:href="#ArialMT-52"/>
       <use x="55.615234" xlink:href="#ArialMT-48"/>
      </g>
     </g>
    </g>
    <g id="ytick_6">
     <g id="line2d_18">
      <path clip-path="url(#pa7e46dd025)" d="M 31.821875 50.789372 
L 589.821875 50.789372 
" style="fill:none;stroke:#b0b0b0;stroke-linecap:square;stroke-width:0.8;"/>
     </g>
     <g id="line2d_19">
      <g>
       <use style="stroke:#000000;stroke-width:0.8;" x="31.821875" xlink:href="#m419c149977" y="50.789372"/>
      </g>
     </g>
     <g id="text_13">
      <!-- 50 -->
      <defs>
       <path d="M 4.15625 18.75 
L 13.375 19.53125 
Q 14.40625 12.796875 18.140625 9.390625 
Q 21.875 6 27.15625 6 
Q 33.5 6 37.890625 10.78125 
Q 42.28125 15.578125 42.28125 23.484375 
Q 42.28125 31 38.0625 35.34375 
Q 33.84375 39.703125 27 39.703125 
Q 22.75 39.703125 19.328125 37.765625 
Q 15.921875 35.84375 13.96875 32.765625 
L 5.71875 33.84375 
L 12.640625 70.609375 
L 48.25 70.609375 
L 48.25 62.203125 
L 19.671875 62.203125 
L 15.828125 42.96875 
Q 22.265625 47.46875 29.34375 47.46875 
Q 38.71875 47.46875 45.15625 40.96875 
Q 51.609375 34.46875 51.609375 24.265625 
Q 51.609375 14.546875 45.953125 7.46875 
Q 39.0625 -1.21875 27.15625 -1.21875 
Q 17.390625 -1.21875 11.203125 4.25 
Q 5.03125 9.71875 4.15625 18.75 
z
" id="ArialMT-53"/>
      </defs>
      <g transform="translate(7.2 54.368279)scale(0.1 -0.1)">
       <use xlink:href="#ArialMT-53"/>
       <use x="55.615234" xlink:href="#ArialMT-48"/>
      </g>
     </g>
    </g>
   </g>
   <g id="line2d_20">
    <path clip-path="url(#pa7e46dd025)" d="M 550.673654 320.388963 
L 547.916737 320.395132 
L 545.15982 320.402021 
L 531.375235 320.453316 
L 484.507646 320.794809 
L 470.723061 320.436366 
L 465.209227 320.308577 
L 445.910808 320.002032 
L 432.126223 319.870932 
L 106.810017 318.452382 
L 57.185511 318.425569 
" style="fill:none;stroke:#a90000;stroke-linecap:square;stroke-width:1.5;"/>
   </g>
   <g id="line2d_21">
    <path clip-path="url(#pa7e46dd025)" d="M 564.458239 300.648003 
L 550.673654 300.530036 
L 547.916737 300.50497 
L 545.15982 300.480115 
L 531.375235 300.396136 
L 484.507646 307.411416 
L 470.723061 306.93088 
L 465.209227 306.68994 
L 445.910808 306.077294 
L 432.126223 305.806428 
L 106.810017 308.918642 
L 57.185511 309.219582 
" style="fill:none;stroke:#a33475;stroke-linecap:square;stroke-width:1.5;"/>
   </g>
   <g id="line2d_22">
    <path clip-path="url(#pa7e46dd025)" d="M 564.458239 235.522643 
L 550.673654 236.883711 
L 547.916737 237.221469 
L 545.15982 237.586107 
L 531.375235 239.880303 
L 484.507646 231.246471 
L 470.723061 234.633743 
L 465.209227 235.662612 
L 445.910808 237.933308 
L 432.126223 238.838874 
L 106.810017 236.960608 
L 57.185511 236.874696 
" style="fill:none;stroke:#cfbb0a;stroke-linecap:square;stroke-width:1.5;"/>
   </g>
   <g id="line2d_23">
    <path clip-path="url(#pa7e46dd025)" d="M 564.458239 123.887142 
L 550.673654 123.691208 
L 547.916737 123.645628 
L 545.15982 123.597551 
L 531.375235 123.312881 
L 484.507646 121.754275 
L 470.723061 122.455228 
L 465.209227 123.537442 
L 445.910808 128.419381 
L 432.126223 129.445717 
L 374.230966 128.909651 
L 374.230966 128.909651 
L 106.810017 109.762393 
L 57.185511 108.292349 
" style="fill:none;stroke:#f55916;stroke-linecap:square;stroke-width:1.5;"/>
   </g>
   <g id="line2d_24">
    <path clip-path="url(#pa7e46dd025)" d="M 564.458239 101.954372 
L 550.673654 102.293507 
L 547.916737 102.382955 
L 545.15982 102.481765 
L 531.375235 103.16577 
L 484.507646 114.300133 
L 470.723061 124.606701 
L 465.209227 128.396411 
L 445.910808 133.085875 
L 432.126223 130.36737 
L 374.230966 119.571506 
L 374.230966 119.571506 
L 106.810017 115.234309 
L 57.185511 115.490406 
" style="fill:none;stroke:#507cd4;stroke-linecap:square;stroke-width:1.5;"/>
   </g>
   <g id="patch_3">
    <path d="M 31.821875 326.94 
L 589.821875 326.94 
" style="fill:none;stroke:#000000;stroke-linecap:square;stroke-linejoin:miter;stroke-width:0.8;"/>
   </g>
   <g id="text_14">
    <!-- Conca: 1% (±0.8%) -->
    <defs>
     <path d="M 58.796875 25.09375 
L 68.265625 22.703125 
Q 65.28125 11.03125 57.546875 4.90625 
Q 49.8125 -1.21875 38.625 -1.21875 
Q 27.046875 -1.21875 19.796875 3.484375 
Q 12.546875 8.203125 8.765625 17.140625 
Q 4.984375 26.078125 4.984375 36.328125 
Q 4.984375 47.515625 9.25 55.828125 
Q 13.53125 64.15625 21.40625 68.46875 
Q 29.296875 72.796875 38.765625 72.796875 
Q 49.515625 72.796875 56.828125 67.328125 
Q 64.15625 61.859375 67.046875 51.953125 
L 57.71875 49.75 
Q 55.21875 57.5625 50.484375 61.125 
Q 45.75 64.703125 38.578125 64.703125 
Q 30.328125 64.703125 24.78125 60.734375 
Q 19.234375 56.78125 16.984375 50.109375 
Q 14.75 43.453125 14.75 36.375 
Q 14.75 27.25 17.40625 20.4375 
Q 20.0625 13.625 25.671875 10.25 
Q 31.296875 6.890625 37.84375 6.890625 
Q 45.796875 6.890625 51.3125 11.46875 
Q 56.84375 16.0625 58.796875 25.09375 
z
" id="ArialMT-67"/>
     <path d="M 6.59375 0 
L 6.59375 51.859375 
L 14.5 51.859375 
L 14.5 44.484375 
Q 20.21875 53.03125 31 53.03125 
Q 35.6875 53.03125 39.625 51.34375 
Q 43.5625 49.65625 45.515625 46.921875 
Q 47.46875 44.1875 48.25 40.4375 
Q 48.734375 37.984375 48.734375 31.890625 
L 48.734375 0 
L 39.9375 0 
L 39.9375 31.546875 
Q 39.9375 36.921875 38.90625 39.578125 
Q 37.890625 42.234375 35.28125 43.8125 
Q 32.671875 45.40625 29.15625 45.40625 
Q 23.53125 45.40625 19.453125 41.84375 
Q 15.375 38.28125 15.375 28.328125 
L 15.375 0 
z
" id="ArialMT-110"/>
     <path d="M 40.4375 19 
L 49.078125 17.875 
Q 47.65625 8.9375 41.8125 3.875 
Q 35.984375 -1.171875 27.484375 -1.171875 
Q 16.84375 -1.171875 10.375 5.78125 
Q 3.90625 12.75 3.90625 25.734375 
Q 3.90625 34.125 6.6875 40.421875 
Q 9.46875 46.734375 15.15625 49.875 
Q 20.84375 53.03125 27.546875 53.03125 
Q 35.984375 53.03125 41.359375 48.75 
Q 46.734375 44.484375 48.25 36.625 
L 39.703125 35.296875 
Q 38.484375 40.53125 35.375 43.15625 
Q 32.28125 45.796875 27.875 45.796875 
Q 21.234375 45.796875 17.078125 41.03125 
Q 12.9375 36.28125 12.9375 25.984375 
Q 12.9375 15.53125 16.9375 10.796875 
Q 20.953125 6.0625 27.390625 6.0625 
Q 32.5625 6.0625 36.03125 9.234375 
Q 39.5 12.40625 40.4375 19 
z
" id="ArialMT-99"/>
     <path d="M 9.03125 41.84375 
L 9.03125 51.859375 
L 19.046875 51.859375 
L 19.046875 41.84375 
z
M 9.03125 0 
L 9.03125 10.015625 
L 19.046875 10.015625 
L 19.046875 0 
z
" id="ArialMT-58"/>
     <path id="ArialMT-32"/>
     <path d="M 5.8125 54.390625 
Q 5.8125 62.0625 9.671875 67.421875 
Q 13.53125 72.796875 20.84375 72.796875 
Q 27.59375 72.796875 32 67.984375 
Q 36.421875 63.1875 36.421875 53.859375 
Q 36.421875 44.78125 31.953125 39.875 
Q 27.484375 34.96875 20.953125 34.96875 
Q 14.453125 34.96875 10.125 39.796875 
Q 5.8125 44.625 5.8125 54.390625 
z
M 21.09375 66.75 
Q 17.828125 66.75 15.65625 63.90625 
Q 13.484375 61.078125 13.484375 53.515625 
Q 13.484375 46.625 15.671875 43.8125 
Q 17.875 41.015625 21.09375 41.015625 
Q 24.421875 41.015625 26.59375 43.84375 
Q 28.765625 46.6875 28.765625 54.203125 
Q 28.765625 61.140625 26.5625 63.9375 
Q 24.359375 66.75 21.09375 66.75 
z
M 21.140625 -2.640625 
L 60.296875 72.796875 
L 67.4375 72.796875 
L 28.421875 -2.640625 
z
M 52.09375 16.796875 
Q 52.09375 24.515625 55.953125 29.859375 
Q 59.8125 35.203125 67.1875 35.203125 
Q 73.921875 35.203125 78.34375 30.390625 
Q 82.765625 25.59375 82.765625 16.265625 
Q 82.765625 7.171875 78.296875 2.265625 
Q 73.828125 -2.640625 67.234375 -2.640625 
Q 60.75 -2.640625 56.421875 2.21875 
Q 52.09375 7.078125 52.09375 16.796875 
z
M 67.4375 29.15625 
Q 64.109375 29.15625 61.9375 26.3125 
Q 59.765625 23.484375 59.765625 15.921875 
Q 59.765625 9.078125 61.953125 6.25 
Q 64.15625 3.421875 67.390625 3.421875 
Q 70.75 3.421875 72.921875 6.25 
Q 75.09375 9.078125 75.09375 16.609375 
Q 75.09375 23.53125 72.890625 26.34375 
Q 70.703125 29.15625 67.4375 29.15625 
z
" id="ArialMT-37"/>
     <path d="M 23.390625 -21.046875 
Q 16.109375 -11.859375 11.078125 0.4375 
Q 6.0625 12.75 6.0625 25.921875 
Q 6.0625 37.546875 9.8125 48.1875 
Q 14.203125 60.546875 23.390625 72.796875 
L 29.6875 72.796875 
Q 23.78125 62.640625 21.875 58.296875 
Q 18.890625 51.5625 17.1875 44.234375 
Q 15.09375 35.109375 15.09375 25.875 
Q 15.09375 2.390625 29.6875 -21.046875 
z
" id="ArialMT-40"/>
     <path d="M 23.296875 12.703125 
L 23.296875 32.375 
L 3.8125 32.375 
L 3.8125 40.53125 
L 23.296875 40.53125 
L 23.296875 60.015625 
L 31.59375 60.015625 
L 31.59375 40.53125 
L 51.078125 40.53125 
L 51.078125 32.375 
L 31.59375 32.375 
L 31.59375 12.703125 
z
M 51.078125 0 
L 3.8125 0 
L 3.8125 8.203125 
L 51.078125 8.203125 
z
" id="ArialMT-177"/>
     <path d="M 9.078125 0 
L 9.078125 10.015625 
L 19.09375 10.015625 
L 19.09375 0 
z
" id="ArialMT-46"/>
     <path d="M 17.671875 38.8125 
Q 12.203125 40.828125 9.5625 44.53125 
Q 6.9375 48.25 6.9375 53.421875 
Q 6.9375 61.234375 12.546875 66.546875 
Q 18.171875 71.875 27.484375 71.875 
Q 36.859375 71.875 42.578125 66.421875 
Q 48.296875 60.984375 48.296875 53.171875 
Q 48.296875 48.1875 45.671875 44.5 
Q 43.0625 40.828125 37.75 38.8125 
Q 44.34375 36.671875 47.78125 31.875 
Q 51.21875 27.09375 51.21875 20.453125 
Q 51.21875 11.28125 44.71875 5.03125 
Q 38.234375 -1.21875 27.640625 -1.21875 
Q 17.046875 -1.21875 10.546875 5.046875 
Q 4.046875 11.328125 4.046875 20.703125 
Q 4.046875 27.6875 7.59375 32.390625 
Q 11.140625 37.109375 17.671875 38.8125 
z
M 15.921875 53.71875 
Q 15.921875 48.640625 19.1875 45.40625 
Q 22.46875 42.1875 27.6875 42.1875 
Q 32.765625 42.1875 36.015625 45.375 
Q 39.265625 48.578125 39.265625 53.21875 
Q 39.265625 58.0625 35.90625 61.359375 
Q 32.5625 64.65625 27.59375 64.65625 
Q 22.5625 64.65625 19.234375 61.421875 
Q 15.921875 58.203125 15.921875 53.71875 
z
M 13.09375 20.65625 
Q 13.09375 16.890625 14.875 13.375 
Q 16.65625 9.859375 20.171875 7.921875 
Q 23.6875 6 27.734375 6 
Q 34.03125 6 38.125 10.046875 
Q 42.234375 14.109375 42.234375 20.359375 
Q 42.234375 26.703125 38.015625 30.859375 
Q 33.796875 35.015625 27.4375 35.015625 
Q 21.234375 35.015625 17.15625 30.90625 
Q 13.09375 26.8125 13.09375 20.65625 
z
" id="ArialMT-56"/>
     <path d="M 12.359375 -21.046875 
L 6.0625 -21.046875 
Q 20.65625 2.390625 20.65625 25.875 
Q 20.65625 35.0625 18.5625 44.09375 
Q 16.890625 51.421875 13.921875 58.15625 
Q 12.015625 62.546875 6.0625 72.796875 
L 12.359375 72.796875 
Q 21.53125 60.546875 25.921875 48.1875 
Q 29.6875 37.546875 29.6875 25.921875 
Q 29.6875 12.75 24.625 0.4375 
Q 19.578125 -11.859375 12.359375 -21.046875 
z
" id="ArialMT-41"/>
    </defs>
    <g style="fill:#a90000;" transform="translate(569.972073 323.702771)scale(0.12 -0.12)">
     <use xlink:href="#ArialMT-67"/>
     <use x="72.216797" xlink:href="#ArialMT-111"/>
     <use x="127.832031" xlink:href="#ArialMT-110"/>
     <use x="183.447266" xlink:href="#ArialMT-99"/>
     <use x="233.447266" xlink:href="#ArialMT-97"/>
     <use x="289.0625" xlink:href="#ArialMT-58"/>
     <use x="316.845703" xlink:href="#ArialMT-32"/>
     <use x="344.628906" xlink:href="#ArialMT-49"/>
     <use x="400.244141" xlink:href="#ArialMT-37"/>
     <use x="489.160156" xlink:href="#ArialMT-32"/>
     <use x="516.943359" xlink:href="#ArialMT-40"/>
     <use x="550.244141" xlink:href="#ArialMT-177"/>
     <use x="605.126953" xlink:href="#ArialMT-48"/>
     <use x="660.742188" xlink:href="#ArialMT-46"/>
     <use x="688.525391" xlink:href="#ArialMT-56"/>
     <use x="744.140625" xlink:href="#ArialMT-37"/>
     <use x="833.056641" xlink:href="#ArialMT-41"/>
    </g>
   </g>
   <g id="text_15">
    <!-- Scalfarotto: 5% (±1.1%) -->
    <defs>
     <path d="M 4.5 23 
L 13.421875 23.78125 
Q 14.0625 18.40625 16.375 14.96875 
Q 18.703125 11.53125 23.578125 9.40625 
Q 28.46875 7.28125 34.578125 7.28125 
Q 39.984375 7.28125 44.140625 8.890625 
Q 48.296875 10.5 50.3125 13.296875 
Q 52.34375 16.109375 52.34375 19.4375 
Q 52.34375 22.796875 50.390625 25.3125 
Q 48.4375 27.828125 43.953125 29.546875 
Q 41.0625 30.671875 31.203125 33.03125 
Q 21.34375 35.40625 17.390625 37.5 
Q 12.25 40.1875 9.734375 44.15625 
Q 7.234375 48.140625 7.234375 53.078125 
Q 7.234375 58.5 10.296875 63.203125 
Q 13.375 67.921875 19.28125 70.359375 
Q 25.203125 72.796875 32.421875 72.796875 
Q 40.375 72.796875 46.453125 70.234375 
Q 52.546875 67.671875 55.8125 62.6875 
Q 59.078125 57.71875 59.328125 51.421875 
L 50.25 50.734375 
Q 49.515625 57.515625 45.28125 60.984375 
Q 41.0625 64.453125 32.8125 64.453125 
Q 24.21875 64.453125 20.28125 61.296875 
Q 16.359375 58.15625 16.359375 53.71875 
Q 16.359375 49.859375 19.140625 47.359375 
Q 21.875 44.875 33.421875 42.265625 
Q 44.96875 39.65625 49.265625 37.703125 
Q 55.515625 34.8125 58.484375 30.390625 
Q 61.46875 25.984375 61.46875 20.21875 
Q 61.46875 14.5 58.203125 9.4375 
Q 54.9375 4.390625 48.796875 1.578125 
Q 42.671875 -1.21875 35.015625 -1.21875 
Q 25.296875 -1.21875 18.71875 1.609375 
Q 12.15625 4.4375 8.421875 10.125 
Q 4.6875 15.828125 4.5 23 
z
" id="ArialMT-83"/>
     <path d="M 25.78125 7.859375 
L 27.046875 0.09375 
Q 23.34375 -0.6875 20.40625 -0.6875 
Q 15.625 -0.6875 12.984375 0.828125 
Q 10.359375 2.34375 9.28125 4.8125 
Q 8.203125 7.28125 8.203125 15.1875 
L 8.203125 45.015625 
L 1.765625 45.015625 
L 1.765625 51.859375 
L 8.203125 51.859375 
L 8.203125 64.703125 
L 16.9375 69.96875 
L 16.9375 51.859375 
L 25.78125 51.859375 
L 25.78125 45.015625 
L 16.9375 45.015625 
L 16.9375 14.703125 
Q 16.9375 10.9375 17.40625 9.859375 
Q 17.875 8.796875 18.921875 8.15625 
Q 19.96875 7.515625 21.921875 7.515625 
Q 23.390625 7.515625 25.78125 7.859375 
z
" id="ArialMT-116"/>
    </defs>
    <g style="fill:#a33475;" transform="translate(569.972073 303.961811)scale(0.12 -0.12)">
     <use xlink:href="#ArialMT-83"/>
     <use x="66.699219" xlink:href="#ArialMT-99"/>
     <use x="116.699219" xlink:href="#ArialMT-97"/>
     <use x="172.314453" xlink:href="#ArialMT-108"/>
     <use x="194.53125" xlink:href="#ArialMT-102"/>
     <use x="222.314453" xlink:href="#ArialMT-97"/>
     <use x="277.929688" xlink:href="#ArialMT-114"/>
     <use x="311.230469" xlink:href="#ArialMT-111"/>
     <use x="366.845703" xlink:href="#ArialMT-116"/>
     <use x="394.628906" xlink:href="#ArialMT-116"/>
     <use x="422.412109" xlink:href="#ArialMT-111"/>
     <use x="478.027344" xlink:href="#ArialMT-58"/>
     <use x="505.810547" xlink:href="#ArialMT-32"/>
     <use x="533.59375" xlink:href="#ArialMT-53"/>
     <use x="589.208984" xlink:href="#ArialMT-37"/>
     <use x="678.125" xlink:href="#ArialMT-32"/>
     <use x="705.908203" xlink:href="#ArialMT-40"/>
     <use x="739.208984" xlink:href="#ArialMT-177"/>
     <use x="794.091797" xlink:href="#ArialMT-49"/>
     <use x="849.707031" xlink:href="#ArialMT-46"/>
     <use x="877.490234" xlink:href="#ArialMT-49"/>
     <use x="933.105469" xlink:href="#ArialMT-37"/>
     <use x="1022.021484" xlink:href="#ArialMT-41"/>
    </g>
   </g>
   <g id="text_16">
    <!-- Laricchia: 17% (±2.3%) -->
    <defs>
     <path d="M 7.328125 0 
L 7.328125 71.578125 
L 16.796875 71.578125 
L 16.796875 8.453125 
L 52.046875 8.453125 
L 52.046875 0 
z
" id="ArialMT-76"/>
     <path d="M 6.59375 0 
L 6.59375 71.578125 
L 15.375 71.578125 
L 15.375 45.90625 
Q 21.53125 53.03125 30.90625 53.03125 
Q 36.671875 53.03125 40.921875 50.75 
Q 45.171875 48.484375 47 44.484375 
Q 48.828125 40.484375 48.828125 32.859375 
L 48.828125 0 
L 40.046875 0 
L 40.046875 32.859375 
Q 40.046875 39.453125 37.1875 42.453125 
Q 34.328125 45.453125 29.109375 45.453125 
Q 25.203125 45.453125 21.75 43.421875 
Q 18.3125 41.40625 16.84375 37.9375 
Q 15.375 34.46875 15.375 28.375 
L 15.375 0 
z
" id="ArialMT-104"/>
     <path d="M 4.734375 62.203125 
L 4.734375 70.65625 
L 51.078125 70.65625 
L 51.078125 63.8125 
Q 44.234375 56.546875 37.515625 44.484375 
Q 30.8125 32.421875 27.15625 19.671875 
Q 24.515625 10.6875 23.78125 0 
L 14.75 0 
Q 14.890625 8.453125 18.0625 20.40625 
Q 21.234375 32.375 27.171875 43.484375 
Q 33.109375 54.59375 39.796875 62.203125 
z
" id="ArialMT-55"/>
    </defs>
    <g style="fill:#cfbb0a;" transform="translate(569.972073 238.836451)scale(0.12 -0.12)">
     <use xlink:href="#ArialMT-76"/>
     <use x="55.615234" xlink:href="#ArialMT-97"/>
     <use x="111.230469" xlink:href="#ArialMT-114"/>
     <use x="144.53125" xlink:href="#ArialMT-105"/>
     <use x="166.748047" xlink:href="#ArialMT-99"/>
     <use x="216.748047" xlink:href="#ArialMT-99"/>
     <use x="266.748047" xlink:href="#ArialMT-104"/>
     <use x="322.363281" xlink:href="#ArialMT-105"/>
     <use x="344.580078" xlink:href="#ArialMT-97"/>
     <use x="400.195312" xlink:href="#ArialMT-58"/>
     <use x="427.978516" xlink:href="#ArialMT-32"/>
     <use x="455.761719" xlink:href="#ArialMT-49"/>
     <use x="511.376953" xlink:href="#ArialMT-55"/>
     <use x="566.992188" xlink:href="#ArialMT-37"/>
     <use x="655.908203" xlink:href="#ArialMT-32"/>
     <use x="683.691406" xlink:href="#ArialMT-40"/>
     <use x="716.992188" xlink:href="#ArialMT-177"/>
     <use x="771.875" xlink:href="#ArialMT-50"/>
     <use x="827.490234" xlink:href="#ArialMT-46"/>
     <use x="855.273438" xlink:href="#ArialMT-51"/>
     <use x="910.888672" xlink:href="#ArialMT-37"/>
     <use x="999.804688" xlink:href="#ArialMT-41"/>
    </g>
   </g>
   <g id="text_17">
    <!-- Emiliano: 37% (±3.0%) -->
    <defs>
     <path d="M 7.90625 0 
L 7.90625 71.578125 
L 59.671875 71.578125 
L 59.671875 63.140625 
L 17.390625 63.140625 
L 17.390625 41.21875 
L 56.984375 41.21875 
L 56.984375 32.8125 
L 17.390625 32.8125 
L 17.390625 8.453125 
L 61.328125 8.453125 
L 61.328125 0 
z
" id="ArialMT-69"/>
    </defs>
    <g style="fill:#f55916;" transform="translate(569.972073 127.20095)scale(0.12 -0.12)">
     <use xlink:href="#ArialMT-69"/>
     <use x="66.699219" xlink:href="#ArialMT-109"/>
     <use x="150" xlink:href="#ArialMT-105"/>
     <use x="172.216797" xlink:href="#ArialMT-108"/>
     <use x="194.433594" xlink:href="#ArialMT-105"/>
     <use x="216.650391" xlink:href="#ArialMT-97"/>
     <use x="272.265625" xlink:href="#ArialMT-110"/>
     <use x="327.880859" xlink:href="#ArialMT-111"/>
     <use x="383.496094" xlink:href="#ArialMT-58"/>
     <use x="411.279297" xlink:href="#ArialMT-32"/>
     <use x="439.0625" xlink:href="#ArialMT-51"/>
     <use x="494.677734" xlink:href="#ArialMT-55"/>
     <use x="550.292969" xlink:href="#ArialMT-37"/>
     <use x="639.208984" xlink:href="#ArialMT-32"/>
     <use x="666.992188" xlink:href="#ArialMT-40"/>
     <use x="700.292969" xlink:href="#ArialMT-177"/>
     <use x="755.175781" xlink:href="#ArialMT-51"/>
     <use x="810.791016" xlink:href="#ArialMT-46"/>
     <use x="838.574219" xlink:href="#ArialMT-48"/>
     <use x="894.189453" xlink:href="#ArialMT-37"/>
     <use x="983.105469" xlink:href="#ArialMT-41"/>
    </g>
   </g>
   <g id="text_18">
    <!-- Fitto: 41% (±3.0%) -->
    <defs>
     <path d="M 8.203125 0 
L 8.203125 71.578125 
L 56.5 71.578125 
L 56.5 63.140625 
L 17.671875 63.140625 
L 17.671875 40.96875 
L 51.265625 40.96875 
L 51.265625 32.515625 
L 17.671875 32.515625 
L 17.671875 0 
z
" id="ArialMT-70"/>
    </defs>
    <g style="fill:#507cd4;" transform="translate(569.972073 105.26818)scale(0.12 -0.12)">
     <use xlink:href="#ArialMT-70"/>
     <use x="61.083984" xlink:href="#ArialMT-105"/>
     <use x="83.300781" xlink:href="#ArialMT-116"/>
     <use x="111.083984" xlink:href="#ArialMT-116"/>
     <use x="138.867188" xlink:href="#ArialMT-111"/>
     <use x="194.482422" xlink:href="#ArialMT-58"/>
     <use x="222.265625" xlink:href="#ArialMT-32"/>
     <use x="250.048828" xlink:href="#ArialMT-52"/>
     <use x="305.664062" xlink:href="#ArialMT-49"/>
     <use x="361.279297" xlink:href="#ArialMT-37"/>
     <use x="450.195312" xlink:href="#ArialMT-32"/>
     <use x="477.978516" xlink:href="#ArialMT-40"/>
     <use x="511.279297" xlink:href="#ArialMT-177"/>
     <use x="566.162109" xlink:href="#ArialMT-51"/>
     <use x="621.777344" xlink:href="#ArialMT-46"/>
     <use x="649.560547" xlink:href="#ArialMT-48"/>
     <use x="705.175781" xlink:href="#ArialMT-37"/>
     <use x="794.091797" xlink:href="#ArialMT-41"/>
    </g>
   </g>
   <g id="text_19">
    <!-- Trend sondaggi dei vari candidati -->
    <defs>
     <path d="M 23.390625 0 
L 23.390625 59.46875 
L 2.15625 59.46875 
L 2.15625 71.578125 
L 59.03125 71.578125 
L 59.03125 59.46875 
L 37.84375 59.46875 
L 37.84375 0 
z
" id="Arial-BoldMT-84"/>
     <path d="M 20.3125 0 
L 6.59375 0 
L 6.59375 51.859375 
L 19.34375 51.859375 
L 19.34375 44.484375 
Q 22.609375 49.703125 25.21875 51.359375 
Q 27.828125 53.03125 31.15625 53.03125 
Q 35.84375 53.03125 40.1875 50.4375 
L 35.9375 38.484375 
Q 32.46875 40.71875 29.5 40.71875 
Q 26.609375 40.71875 24.609375 39.125 
Q 22.609375 37.546875 21.453125 33.390625 
Q 20.3125 29.25 20.3125 16.015625 
z
" id="Arial-BoldMT-114"/>
     <path d="M 37.203125 16.5 
L 50.875 14.203125 
Q 48.25 6.6875 42.546875 2.75 
Q 36.859375 -1.171875 28.328125 -1.171875 
Q 14.796875 -1.171875 8.296875 7.671875 
Q 3.171875 14.75 3.171875 25.53125 
Q 3.171875 38.421875 9.90625 45.71875 
Q 16.65625 53.03125 26.953125 53.03125 
Q 38.53125 53.03125 45.21875 45.390625 
Q 51.90625 37.75 51.609375 21.96875 
L 17.234375 21.96875 
Q 17.390625 15.875 20.5625 12.46875 
Q 23.734375 9.078125 28.46875 9.078125 
Q 31.6875 9.078125 33.875 10.828125 
Q 36.078125 12.59375 37.203125 16.5 
z
M 37.984375 30.375 
Q 37.84375 36.328125 34.90625 39.421875 
Q 31.984375 42.53125 27.78125 42.53125 
Q 23.296875 42.53125 20.359375 39.265625 
Q 17.4375 35.984375 17.484375 30.375 
z
" id="Arial-BoldMT-101"/>
     <path d="M 54.34375 0 
L 40.625 0 
L 40.625 26.46875 
Q 40.625 34.859375 39.75 37.328125 
Q 38.875 39.796875 36.890625 41.15625 
Q 34.90625 42.53125 32.125 42.53125 
Q 28.5625 42.53125 25.734375 40.578125 
Q 22.90625 38.625 21.84375 35.390625 
Q 20.796875 32.171875 20.796875 23.484375 
L 20.796875 0 
L 7.078125 0 
L 7.078125 51.859375 
L 19.828125 51.859375 
L 19.828125 44.234375 
Q 26.609375 53.03125 36.921875 53.03125 
Q 41.453125 53.03125 45.203125 51.390625 
Q 48.96875 49.75 50.890625 47.203125 
Q 52.828125 44.671875 53.578125 41.453125 
Q 54.34375 38.234375 54.34375 32.234375 
z
" id="Arial-BoldMT-110"/>
     <path d="M 54.734375 0 
L 42 0 
L 42 7.625 
Q 38.8125 3.171875 34.484375 1 
Q 30.171875 -1.171875 25.78125 -1.171875 
Q 16.84375 -1.171875 10.46875 6.03125 
Q 4.109375 13.234375 4.109375 26.125 
Q 4.109375 39.3125 10.296875 46.171875 
Q 16.5 53.03125 25.984375 53.03125 
Q 34.671875 53.03125 41.015625 45.796875 
L 41.015625 71.578125 
L 54.734375 71.578125 
z
M 18.109375 27.046875 
Q 18.109375 18.75 20.40625 15.046875 
Q 23.734375 9.671875 29.6875 9.671875 
Q 34.421875 9.671875 37.734375 13.6875 
Q 41.0625 17.71875 41.0625 25.734375 
Q 41.0625 34.671875 37.84375 38.59375 
Q 34.625 42.53125 29.59375 42.53125 
Q 24.703125 42.53125 21.40625 38.640625 
Q 18.109375 34.765625 18.109375 27.046875 
z
" id="Arial-BoldMT-100"/>
     <path id="Arial-BoldMT-32"/>
     <path d="M 2.34375 14.796875 
L 16.109375 16.890625 
Q 17 12.890625 19.671875 10.8125 
Q 22.359375 8.734375 27.203125 8.734375 
Q 32.515625 8.734375 35.203125 10.6875 
Q 37.015625 12.0625 37.015625 14.359375 
Q 37.015625 15.921875 36.03125 16.9375 
Q 35.015625 17.921875 31.453125 18.75 
Q 14.84375 22.40625 10.40625 25.4375 
Q 4.25 29.640625 4.25 37.109375 
Q 4.25 43.84375 9.5625 48.4375 
Q 14.890625 53.03125 26.078125 53.03125 
Q 36.71875 53.03125 41.890625 49.5625 
Q 47.078125 46.09375 49.03125 39.3125 
L 36.078125 36.921875 
Q 35.25 39.9375 32.921875 41.546875 
Q 30.609375 43.171875 26.3125 43.171875 
Q 20.90625 43.171875 18.5625 41.65625 
Q 17 40.578125 17 38.875 
Q 17 37.40625 18.359375 36.375 
Q 20.21875 35.015625 31.171875 32.515625 
Q 42.140625 30.03125 46.484375 26.421875 
Q 50.78125 22.75 50.78125 16.21875 
Q 50.78125 9.078125 44.828125 3.953125 
Q 38.875 -1.171875 27.203125 -1.171875 
Q 16.609375 -1.171875 10.421875 3.125 
Q 4.25 7.421875 2.34375 14.796875 
z
" id="Arial-BoldMT-115"/>
     <path d="M 4 26.65625 
Q 4 33.5 7.375 39.890625 
Q 10.75 46.296875 16.921875 49.65625 
Q 23.09375 53.03125 30.71875 53.03125 
Q 42.484375 53.03125 50 45.390625 
Q 57.515625 37.75 57.515625 26.078125 
Q 57.515625 14.3125 49.921875 6.5625 
Q 42.328125 -1.171875 30.8125 -1.171875 
Q 23.6875 -1.171875 17.21875 2.046875 
Q 10.75 5.28125 7.375 11.5 
Q 4 17.71875 4 26.65625 
z
M 18.0625 25.921875 
Q 18.0625 18.21875 21.71875 14.109375 
Q 25.390625 10.015625 30.765625 10.015625 
Q 36.140625 10.015625 39.765625 14.109375 
Q 43.40625 18.21875 43.40625 26.03125 
Q 43.40625 33.640625 39.765625 37.734375 
Q 36.140625 41.84375 30.765625 41.84375 
Q 25.390625 41.84375 21.71875 37.734375 
Q 18.0625 33.640625 18.0625 25.921875 
z
" id="Arial-BoldMT-111"/>
     <path d="M 17.4375 36.03125 
L 4.984375 38.28125 
Q 7.078125 45.796875 12.203125 49.40625 
Q 17.328125 53.03125 27.4375 53.03125 
Q 36.625 53.03125 41.109375 50.859375 
Q 45.609375 48.6875 47.4375 45.34375 
Q 49.265625 42 49.265625 33.0625 
L 49.125 17.046875 
Q 49.125 10.203125 49.78125 6.953125 
Q 50.4375 3.71875 52.25 0 
L 38.671875 0 
Q 38.140625 1.375 37.359375 4.046875 
Q 37.015625 5.28125 36.859375 5.671875 
Q 33.34375 2.25 29.34375 0.53125 
Q 25.34375 -1.171875 20.796875 -1.171875 
Q 12.796875 -1.171875 8.171875 3.171875 
Q 3.5625 7.515625 3.5625 14.15625 
Q 3.5625 18.5625 5.65625 22 
Q 7.765625 25.4375 11.546875 27.265625 
Q 15.328125 29.109375 22.46875 30.46875 
Q 32.078125 32.28125 35.796875 33.84375 
L 35.796875 35.203125 
Q 35.796875 39.15625 33.84375 40.84375 
Q 31.890625 42.53125 26.46875 42.53125 
Q 22.796875 42.53125 20.75 41.09375 
Q 18.703125 39.65625 17.4375 36.03125 
z
M 35.796875 24.90625 
Q 33.15625 24.03125 27.4375 22.796875 
Q 21.734375 21.578125 19.96875 20.40625 
Q 17.28125 18.5 17.28125 15.578125 
Q 17.28125 12.703125 19.421875 10.59375 
Q 21.578125 8.5 24.90625 8.5 
Q 28.609375 8.5 31.984375 10.9375 
Q 34.46875 12.796875 35.25 15.484375 
Q 35.796875 17.234375 35.796875 22.171875 
z
" id="Arial-BoldMT-97"/>
     <path d="M 5.90625 -3.421875 
L 21.578125 -5.328125 
Q 21.96875 -8.0625 23.390625 -9.078125 
Q 25.34375 -10.546875 29.546875 -10.546875 
Q 34.90625 -10.546875 37.59375 -8.9375 
Q 39.40625 -7.859375 40.328125 -5.46875 
Q 40.96875 -3.765625 40.96875 0.828125 
L 40.96875 8.40625 
Q 34.8125 0 25.4375 0 
Q 14.984375 0 8.890625 8.84375 
Q 4.109375 15.828125 4.109375 26.21875 
Q 4.109375 39.265625 10.375 46.140625 
Q 16.65625 53.03125 25.984375 53.03125 
Q 35.59375 53.03125 41.84375 44.578125 
L 41.84375 51.859375 
L 54.6875 51.859375 
L 54.6875 5.328125 
Q 54.6875 -3.859375 53.171875 -8.390625 
Q 51.65625 -12.9375 48.921875 -15.515625 
Q 46.1875 -18.109375 41.625 -19.578125 
Q 37.0625 -21.046875 30.078125 -21.046875 
Q 16.890625 -21.046875 11.375 -16.53125 
Q 5.859375 -12.015625 5.859375 -5.078125 
Q 5.859375 -4.390625 5.90625 -3.421875 
z
M 18.171875 27 
Q 18.171875 18.75 21.359375 14.90625 
Q 24.5625 11.078125 29.25 11.078125 
Q 34.28125 11.078125 37.75 15.015625 
Q 41.21875 18.953125 41.21875 26.65625 
Q 41.21875 34.71875 37.890625 38.625 
Q 34.578125 42.53125 29.5 42.53125 
Q 24.5625 42.53125 21.359375 38.6875 
Q 18.171875 34.859375 18.171875 27 
z
" id="Arial-BoldMT-103"/>
     <path d="M 7.171875 58.890625 
L 7.171875 71.578125 
L 20.90625 71.578125 
L 20.90625 58.890625 
z
M 7.171875 0 
L 7.171875 51.859375 
L 20.90625 51.859375 
L 20.90625 0 
z
" id="Arial-BoldMT-105"/>
     <path d="M 21.4375 0 
L 0.53125 51.859375 
L 14.9375 51.859375 
L 24.703125 25.390625 
L 27.546875 16.546875 
Q 28.65625 19.921875 28.953125 21 
Q 29.640625 23.1875 30.421875 25.390625 
L 40.28125 51.859375 
L 54.390625 51.859375 
L 33.796875 0 
z
" id="Arial-BoldMT-118"/>
     <path d="M 52.390625 36.53125 
L 38.875 34.078125 
Q 38.1875 38.140625 35.765625 40.1875 
Q 33.34375 42.234375 29.5 42.234375 
Q 24.359375 42.234375 21.3125 38.6875 
Q 18.265625 35.15625 18.265625 26.859375 
Q 18.265625 17.625 21.359375 13.8125 
Q 24.46875 10.015625 29.6875 10.015625 
Q 33.59375 10.015625 36.078125 12.234375 
Q 38.578125 14.453125 39.59375 19.875 
L 53.078125 17.578125 
Q 50.984375 8.296875 45.015625 3.5625 
Q 39.0625 -1.171875 29.046875 -1.171875 
Q 17.671875 -1.171875 10.90625 6 
Q 4.15625 13.1875 4.15625 25.875 
Q 4.15625 38.71875 10.9375 45.875 
Q 17.71875 53.03125 29.296875 53.03125 
Q 38.765625 53.03125 44.359375 48.953125 
Q 49.953125 44.875 52.390625 36.53125 
z
" id="Arial-BoldMT-99"/>
     <path d="M 30.953125 51.859375 
L 30.953125 40.921875 
L 21.578125 40.921875 
L 21.578125 20.015625 
Q 21.578125 13.671875 21.84375 12.625 
Q 22.125 11.578125 23.078125 10.890625 
Q 24.03125 10.203125 25.390625 10.203125 
Q 27.296875 10.203125 30.90625 11.53125 
L 32.078125 0.875 
Q 27.296875 -1.171875 21.234375 -1.171875 
Q 17.53125 -1.171875 14.546875 0.0625 
Q 11.578125 1.3125 10.1875 3.296875 
Q 8.796875 5.28125 8.25 8.640625 
Q 7.8125 11.03125 7.8125 18.3125 
L 7.8125 40.921875 
L 1.515625 40.921875 
L 1.515625 51.859375 
L 7.8125 51.859375 
L 7.8125 62.15625 
L 21.578125 70.171875 
L 21.578125 51.859375 
z
" id="Arial-BoldMT-116"/>
    </defs>
    <g transform="translate(183.694375 18.6525)scale(0.16 -0.16)">
     <use xlink:href="#Arial-BoldMT-84"/>
     <use x="55.583984" xlink:href="#Arial-BoldMT-114"/>
     <use x="94.5" xlink:href="#Arial-BoldMT-101"/>
     <use x="150.115234" xlink:href="#Arial-BoldMT-110"/>
     <use x="211.199219" xlink:href="#Arial-BoldMT-100"/>
     <use x="272.283203" xlink:href="#Arial-BoldMT-32"/>
     <use x="300.066406" xlink:href="#Arial-BoldMT-115"/>
     <use x="355.681641" xlink:href="#Arial-BoldMT-111"/>
     <use x="416.765625" xlink:href="#Arial-BoldMT-110"/>
     <use x="477.849609" xlink:href="#Arial-BoldMT-100"/>
     <use x="538.933594" xlink:href="#Arial-BoldMT-97"/>
     <use x="594.548828" xlink:href="#Arial-BoldMT-103"/>
     <use x="655.632812" xlink:href="#Arial-BoldMT-103"/>
     <use x="716.716797" xlink:href="#Arial-BoldMT-105"/>
     <use x="744.5" xlink:href="#Arial-BoldMT-32"/>
     <use x="772.283203" xlink:href="#Arial-BoldMT-100"/>
     <use x="833.367188" xlink:href="#Arial-BoldMT-101"/>
     <use x="888.982422" xlink:href="#Arial-BoldMT-105"/>
     <use x="916.765625" xlink:href="#Arial-BoldMT-32"/>
     <use x="944.548828" xlink:href="#Arial-BoldMT-118"/>
     <use x="1000.164062" xlink:href="#Arial-BoldMT-97"/>
     <use x="1055.779297" xlink:href="#Arial-BoldMT-114"/>
     <use x="1094.695312" xlink:href="#Arial-BoldMT-105"/>
     <use x="1122.478516" xlink:href="#Arial-BoldMT-32"/>
     <use x="1150.261719" xlink:href="#Arial-BoldMT-99"/>
     <use x="1205.876953" xlink:href="#Arial-BoldMT-97"/>
     <use x="1261.492188" xlink:href="#Arial-BoldMT-110"/>
     <use x="1322.576172" xlink:href="#Arial-BoldMT-100"/>
     <use x="1383.660156" xlink:href="#Arial-BoldMT-105"/>
     <use x="1411.443359" xlink:href="#Arial-BoldMT-100"/>
     <use x="1472.527344" xlink:href="#Arial-BoldMT-97"/>
     <use x="1528.142578" xlink:href="#Arial-BoldMT-116"/>
     <use x="1561.443359" xlink:href="#Arial-BoldMT-105"/>
    </g>
   </g>
  </g>
 </g>
 <defs>
  <clipPath id="pa7e46dd025">
   <rect height="277.2" width="558" x="31.821875" y="49.74"/>
  </clipPath>
 </defs>
</svg>
