<svg version="1.1" viewbox="0 0 281.5 582.9350000000001" xmlns="http://www.w3.org/2000/svg">
<polygon id="1" points="10,93.9422863406 17,89.6121593217 25,93.9422863406 25,102.602540378 17,106.932667397 10,102.602540378" />
<polygon id="2" points="58,93.9422863406 65,89.6121593217 73,93.9422863406 73,102.602540378 65,106.932667397 58,102.602540378" />
<polygon id="3" points="42,93.9422863406 49,89.6121593217 57,93.9422863406 57,102.602540378 49,106.932667397 42,102.602540378" />
<polygon id="4" points="17,107.932667397 24,103.602540378 32,107.932667397 32,116.592921435 24,120.923048454 17,116.592921435" />
<polygon id="5" points="17,79.9519052838 24,75.6217782649 32,79.9519052838 32,88.6121593217 24,92.9422863406 17,88.6121593217" />
<polygon id="6" points="49,107.932667397 56,103.602540378 64,107.932667397 64,116.592921435 56,120.923048454 49,116.592921435" />
<polygon id="7" points="26,93.9422863406 33,89.6121593217 41,93.9422863406 41,102.602540378 33,106.932667397 26,102.602540378" />
<polygon id="8" points="26,121.923048454 33,117.592921435 41,121.923048454 41,130.583302492 33,134.913429511 26,130.583302492" />
<polygon id="9" points="10,121.923048454 17,117.592921435 25,121.923048454 25,130.583302492 17,134.913429511 10,130.583302492" />
<polygon id="10" points="26,37.9807621135 33,33.6506350946 41,37.9807621135 41,46.6410161514 33,50.9711431703 26,46.6410161514" />
<polygon id="11" points="33,79.9519052838 40,75.6217782649 48,79.9519052838 48,88.6121593217 40,92.9422863406 33,88.6121593217" />
<polygon id="12" points="26,65.9615242271 33,61.6313972081 41,65.9615242271 41,74.6217782649 33,78.9519052838 26,74.6217782649" />
<polygon id="13" points="74,93.9422863406 81,89.6121593217 89,93.9422863406 89,102.602540378 81,106.932667397 74,102.602540378" />
<polygon id="14" points="42,121.923048454 49,117.592921435 57,121.923048454 57,130.583302492 49,134.913429511 42,130.583302492" />
<polygon id="15" points="33,107.932667397 40,103.602540378 48,107.932667397 48,116.592921435 40,120.923048454 33,116.592921435" />
<polygon id="16" points="17,135.913429511 24,131.583302492 32,135.913429511 32,144.573683549 24,148.903810568 17,144.573683549" />
<polygon id="17" points="33,135.913429511 40,131.583302492 48,135.913429511 48,144.573683549 40,148.903810568 33,144.573683549" />
<polygon id="18" points="10,65.9615242271 17,61.6313972081 25,65.9615242271 25,74.6217782649 17,78.9519052838 10,74.6217782649" />
<polygon id="19" points="49,79.9519052838 56,75.6217782649 64,79.9519052838 64,88.6121593217 56,92.9422863406 49,88.6121593217" />
<polygon id="20" points="42,65.9615242271 49,61.6313972081 57,65.9615242271 57,74.6217782649 49,78.9519052838 42,74.6217782649" />
<polygon id="21" points="33,51.9711431703 40,47.6410161514 48,51.9711431703 48,60.6313972081 40,64.9615242271 33,60.6313972081" />
<polygon id="22" points="186,65.9615242271 193,61.6313972081 201,65.9615242271 201,74.6217782649 193,78.9519052838 186,74.6217782649" />
<polygon id="23" points="138,65.9615242271 145,61.6313972081 153,65.9615242271 153,74.6217782649 145,78.9519052838 138,74.6217782649" />
<polygon id="24" points="170,65.9615242271 177,61.6313972081 185,65.9615242271 185,74.6217782649 177,78.9519052838 170,74.6217782649" />
<polygon id="25" points="106,65.9615242271 113,61.6313972081 121,65.9615242271 121,74.6217782649 113,78.9519052838 106,74.6217782649" />
<polygon id="26" points="177,79.9519052838 184,75.6217782649 192,79.9519052838 192,88.6121593217 184,92.9422863406 177,88.6121593217" />
<polygon id="27" points="145,79.9519052838 152,75.6217782649 160,79.9519052838 160,88.6121593217 152,92.9422863406 145,88.6121593217" />
<polygon id="28" points="161,79.9519052838 168,75.6217782649 176,79.9519052838 176,88.6121593217 168,92.9422863406 161,88.6121593217" />
<polygon id="29" points="129,79.9519052838 136,75.6217782649 144,79.9519052838 144,88.6121593217 136,92.9422863406 129,88.6121593217" />
<polygon id="30" points="113,79.9519052838 120,75.6217782649 128,79.9519052838 128,88.6121593217 120,92.9422863406 113,88.6121593217" />
<polygon id="31" points="81,79.9519052838 88,75.6217782649 96,79.9519052838 96,88.6121593217 88,92.9422863406 81,88.6121593217" />
<polygon id="32" points="97,79.9519052838 104,75.6217782649 112,79.9519052838 112,88.6121593217 104,92.9422863406 97,88.6121593217" />
<polygon id="33" points="65,79.9519052838 72,75.6217782649 80,79.9519052838 80,88.6121593217 72,92.9422863406 65,88.6121593217" />
<polygon id="34" points="58,37.9807621135 65,33.6506350946 73,37.9807621135 73,46.6410161514 65,50.9711431703 58,46.6410161514" />
<polygon id="35" points="49,51.9711431703 56,47.6410161514 64,51.9711431703 64,60.6313972081 56,64.9615242271 49,60.6313972081" />
<polygon id="36" points="74,65.9615242271 81,61.6313972081 89,65.9615242271 89,74.6217782649 81,78.9519052838 74,74.6217782649" />
<polygon id="37" points="90,65.9615242271 97,61.6313972081 105,65.9615242271 105,74.6217782649 97,78.9519052838 90,74.6217782649" />
<polygon id="38" points="58,65.9615242271 65,61.6313972081 73,65.9615242271 73,74.6217782649 65,78.9519052838 58,74.6217782649" />
<polygon id="39" points="65,51.9711431703 72,47.6410161514 80,51.9711431703 80,60.6313972081 72,64.9615242271 65,60.6313972081" />
<polygon id="40" points="122,65.9615242271 129,61.6313972081 137,65.9615242271 137,74.6217782649 129,78.9519052838 122,74.6217782649" />
<polygon id="41" points="81,51.9711431703 88,47.6410161514 96,51.9711431703 96,60.6313972081 88,64.9615242271 81,60.6313972081" />
<polygon id="42" points="202,65.9615242271 209,61.6313972081 217,65.9615242271 217,74.6217782649 209,78.9519052838 202,74.6217782649" />
<polygon id="43" points="97,51.9711431703 104,47.6410161514 112,51.9711431703 112,60.6313972081 104,64.9615242271 97,60.6313972081" />
<polygon id="44" points="241,79.9519052838 248,75.6217782649 256,79.9519052838 256,88.6121593217 248,92.9422863406 241,88.6121593217" />
<polygon id="45" points="154,65.9615242271 161,61.6313972081 169,65.9615242271 169,74.6217782649 161,78.9519052838 154,74.6217782649" />
<polygon id="46" points="129,51.9711431703 136,47.6410161514 144,51.9711431703 144,60.6313972081 136,64.9615242271 129,60.6313972081" />
<polygon id="47" points="42,37.9807621135 49,33.6506350946 57,37.9807621135 57,46.6410161514 49,50.9711431703 42,46.6410161514" />
<polygon id="48" points="218,65.9615242271 225,61.6313972081 233,65.9615242271 233,74.6217782649 225,78.9519052838 218,74.6217782649" />
<polygon id="49" points="209,79.9519052838 216,75.6217782649 224,79.9519052838 224,88.6121593217 216,92.9422863406 209,88.6121593217" />
<polygon id="50" points="90,93.9422863406 97,89.6121593217 105,93.9422863406 105,102.602540378 97,106.932667397 90,102.602540378" />
<polygon id="51" points="106,93.9422863406 113,89.6121593217 121,93.9422863406 121,102.602540378 113,106.932667397 106,102.602540378" />
<polygon id="52" points="122,93.9422863406 129,89.6121593217 137,93.9422863406 137,102.602540378 129,106.932667397 122,102.602540378" />
<polygon id="53" points="193,79.9519052838 200,75.6217782649 208,79.9519052838 208,88.6121593217 200,92.9422863406 193,88.6121593217" />
<polygon id="54" points="138,93.9422863406 145,89.6121593217 153,93.9422863406 153,102.602540378 145,106.932667397 138,102.602540378" />
<polygon id="55" points="170,93.9422863406 177,89.6121593217 185,93.9422863406 185,102.602540378 177,106.932667397 170,102.602540378" />
<polygon id="56" points="97,23.9903810568 104,19.6602540378 112,23.9903810568 112,32.6506350946 104,36.9807621135 97,32.6506350946" />
<polygon id="57" points="90,10.0 97,5.66987298108 105,10.0 105,18.6602540378 97,22.9903810568 90,18.6602540378" />
<polygon id="58" points="106,10.0 113,5.66987298108 121,10.0 121,18.6602540378 113,22.9903810568 106,18.6602540378" />
<polygon id="59" points="106,37.9807621135 113,33.6506350946 121,37.9807621135 121,46.6410161514 113,50.9711431703 106,46.6410161514" />
<polygon id="60" points="74,37.9807621135 81,33.6506350946 89,37.9807621135 89,46.6410161514 81,50.9711431703 74,46.6410161514" />
<polygon id="61" points="90,37.9807621135 97,33.6506350946 105,37.9807621135 105,46.6410161514 97,50.9711431703 90,46.6410161514" />
<polygon id="62" points="250,37.9807621135 257,33.6506350946 265,37.9807621135 265,46.6410161514 257,50.9711431703 250,46.6410161514" />
<polygon id="63" points="250,65.9615242271 257,61.6313972081 265,65.9615242271 265,74.6217782649 257,78.9519052838 250,74.6217782649" />
<polygon id="64" points="257,135.913429511 264,131.583302492 272,135.913429511 272,144.573683549 264,148.903810568 257,144.573683549" />
<polygon id="65" points="257,107.932667397 264,103.602540378 272,107.932667397 272,116.592921435 264,120.923048454 257,116.592921435" />
<polygon id="66" points="145,51.9711431703 152,47.6410161514 160,51.9711431703 160,60.6313972081 152,64.9615242271 145,60.6313972081" />
<polygon id="67" points="161,51.9711431703 168,47.6410161514 176,51.9711431703 176,60.6313972081 168,64.9615242271 161,60.6313972081" />
<polygon id="68" points="113,23.9903810568 120,19.6602540378 128,23.9903810568 128,32.6506350946 120,36.9807621135 113,32.6506350946" />
<polygon id="69" points="241,51.9711431703 248,47.6410161514 256,51.9711431703 256,60.6313972081 248,64.9615242271 241,60.6313972081" />
<polygon id="70" points="113,107.932667397 120,103.602540378 128,107.932667397 128,116.592921435 120,120.923048454 113,116.592921435" />
<polygon id="71" points="250,121.923048454 257,117.592921435 265,121.923048454 265,130.583302492 257,134.913429511 250,130.583302492" />
<polygon id="72" points="257,79.9519052838 264,75.6217782649 272,79.9519052838 272,88.6121593217 264,92.9422863406 257,88.6121593217" />
<polygon id="73" points="186,93.9422863406 193,89.6121593217 201,93.9422863406 201,102.602540378 193,106.932667397 186,102.602540378" />
<polygon id="74" points="234,93.9422863406 241,89.6121593217 249,93.9422863406 249,102.602540378 241,106.932667397 234,102.602540378" />
<polygon id="75" points="113,51.9711431703 120,47.6410161514 128,51.9711431703 128,60.6313972081 120,64.9615242271 113,60.6313972081" />
<polygon id="76" points="234,65.9615242271 241,61.6313972081 249,65.9615242271 249,74.6217782649 241,78.9519052838 234,74.6217782649" />
<polygon id="77" points="193,51.9711431703 200,47.6410161514 208,51.9711431703 208,60.6313972081 200,64.9615242271 193,60.6313972081" />
<polygon id="78" points="250,93.9422863406 257,89.6121593217 265,93.9422863406 265,102.602540378 257,106.932667397 250,102.602540378" />
<polygon id="79" points="154,93.9422863406 161,89.6121593217 169,93.9422863406 169,102.602540378 161,106.932667397 154,102.602540378" />
<polygon id="80" points="225,79.9519052838 232,75.6217782649 240,79.9519052838 240,88.6121593217 232,92.9422863406 225,88.6121593217" />
<polygon id="81" points="257,51.9711431703 264,47.6410161514 272,51.9711431703 272,60.6313972081 264,64.9615242271 257,60.6313972081" />
<polygon id="82" points="177,51.9711431703 184,47.6410161514 192,51.9711431703 192,60.6313972081 184,64.9615242271 177,60.6313972081" />
<polygon id="83" points="154,37.9807621135 161,33.6506350946 169,37.9807621135 169,46.6410161514 161,50.9711431703 154,46.6410161514" />
<polygon id="84" points="129,23.9903810568 136,19.6602540378 144,23.9903810568 144,32.6506350946 136,36.9807621135 129,32.6506350946" />
<polygon id="85" points="122,37.9807621135 129,33.6506350946 137,37.9807621135 137,46.6410161514 129,50.9711431703 122,46.6410161514" />
<polygon id="86" points="17,163.894191624 24,159.564064606 32,163.894191624 32,172.554445662 24,176.884572681 17,172.554445662" />
<polygon id="87" points="10,149.903810568 17,145.573683549 25,149.903810568 25,158.564064606 17,162.894191624 10,158.564064606" />
<polygon id="88" points="49,135.913429511 56,131.583302492 64,135.913429511 64,144.573683549 56,148.903810568 49,144.573683549" />
<polygon id="89" points="65,135.913429511 72,131.583302492 80,135.913429511 80,144.573683549 72,148.903810568 65,144.573683549" />
<polygon id="90" points="26,149.903810568 33,145.573683549 41,149.903810568 41,158.564064606 33,162.894191624 26,158.564064606" />
<polygon id="91" points="58,149.903810568 65,145.573683549 73,149.903810568 73,158.564064606 65,162.894191624 58,158.564064606" />
<polygon id="92" points="97,135.913429511 104,131.583302492 112,135.913429511 112,144.573683549 104,148.903810568 97,144.573683549" />
<polygon id="93" points="129,163.894191624 136,159.564064606 144,163.894191624 144,172.554445662 136,176.884572681 129,172.554445662" />
<polygon id="94" points="113,135.913429511 120,131.583302492 128,135.913429511 128,144.573683549 120,148.903810568 113,144.573683549" />
<polygon id="95" points="138,121.923048454 145,117.592921435 153,121.923048454 153,130.583302492 145,134.913429511 138,130.583302492" />
<polygon id="96" points="122,121.923048454 129,117.592921435 137,121.923048454 137,130.583302492 129,134.913429511 122,130.583302492" />
<polygon id="97" points="74,149.903810568 81,145.573683549 89,149.903810568 89,158.564064606 81,162.894191624 74,158.564064606" />
<polygon id="98" points="90,149.903810568 97,145.573683549 105,149.903810568 105,158.564064606 97,162.894191624 90,158.564064606" />
<polygon id="99" points="97,107.932667397 104,103.602540378 112,107.932667397 112,116.592921435 104,120.923048454 97,116.592921435" />
<polygon id="100" points="90,121.923048454 97,117.592921435 105,121.923048454 105,130.583302492 97,134.913429511 90,130.583302492" />
<polygon id="101" points="81,135.913429511 88,131.583302492 96,135.913429511 96,144.573683549 88,148.903810568 81,144.573683549" />
<polygon id="102" points="74,121.923048454 81,117.592921435 89,121.923048454 89,130.583302492 81,134.913429511 74,130.583302492" />
<polygon id="103" points="81,107.932667397 88,103.602540378 96,107.932667397 96,116.592921435 88,120.923048454 81,116.592921435" />
<polygon id="104" points="58,121.923048454 65,117.592921435 73,121.923048454 73,130.583302492 65,134.913429511 58,130.583302492" />
<polygon id="105" points="65,107.932667397 72,103.602540378 80,107.932667397 80,116.592921435 72,120.923048454 65,116.592921435" />
<polygon id="106" points="145,163.894191624 152,159.564064606 160,163.894191624 160,172.554445662 152,176.884572681 145,172.554445662" />
<polygon id="107" points="106,149.903810568 113,145.573683549 121,149.903810568 121,158.564064606 113,162.894191624 106,158.564064606" />
<polygon id="108" points="106,121.923048454 113,117.592921435 121,121.923048454 121,130.583302492 113,134.913429511 106,130.583302492" />
<polygon id="109" points="90,177.884572681 97,173.554445662 105,177.884572681 105,186.544826719 97,190.874953738 90,186.544826719" />
<polygon id="110" points="113,191.874953738 120,187.544826719 128,191.874953738 128,200.535207776 120,204.865334795 113,200.535207776" />
<polygon id="111" points="97,163.894191624 104,159.564064606 112,163.894191624 112,172.554445662 104,176.884572681 97,172.554445662" />
<polygon id="112" points="97,191.874953738 104,187.544826719 112,191.874953738 112,200.535207776 104,204.865334795 97,200.535207776" />
<polygon id="113" points="113,163.894191624 120,159.564064606 128,163.894191624 128,172.554445662 120,176.884572681 113,172.554445662" />
<polygon id="114" points="81,163.894191624 88,159.564064606 96,163.894191624 96,172.554445662 88,176.884572681 81,172.554445662" />
<polygon id="115" points="106,177.884572681 113,173.554445662 121,177.884572681 121,186.544826719 113,190.874953738 106,186.544826719" />
<polygon id="116" points="42,149.903810568 49,145.573683549 57,149.903810568 57,158.564064606 49,162.894191624 42,158.564064606" />
<polygon id="117" points="65,163.894191624 72,159.564064606 80,163.894191624 80,172.554445662 72,176.884572681 65,172.554445662" />
<polygon id="118" points="74,177.884572681 81,173.554445662 89,177.884572681 89,186.544826719 81,190.874953738 74,186.544826719" />
<polygon id="119" points="81,191.874953738 88,187.544826719 96,191.874953738 96,200.535207776 88,204.865334795 81,200.535207776" />
<polygon id="120" points="90,205.865334795 97,201.535207776 105,205.865334795 105,214.525588833 97,218.855715851 90,214.525588833" />
<polygon id="121" points="74,205.865334795 81,201.535207776 89,205.865334795 89,214.525588833 81,218.855715851 74,214.525588833" />
<polygon id="122" points="90,233.846096908 97,229.515969889 105,233.846096908 105,242.506350946 97,246.836477965 90,242.506350946" />
<polygon id="123" points="106,205.865334795 113,201.535207776 121,205.865334795 121,214.525588833 113,218.855715851 106,214.525588833" />
<polygon id="124" points="122,205.865334795 129,201.535207776 137,205.865334795 137,214.525588833 129,218.855715851 122,214.525588833" />
<polygon id="125" points="122,233.846096908 129,229.515969889 137,233.846096908 137,242.506350946 129,246.836477965 122,242.506350946" />
<polygon id="126" points="145,219.855715851 152,215.525588833 160,219.855715851 160,228.515969889 152,232.846096908 145,228.515969889" />
<polygon id="127" points="138,205.865334795 145,201.535207776 153,205.865334795 153,214.525588833 145,218.855715851 138,214.525588833" />
<polygon id="128" points="154,205.865334795 161,201.535207776 169,205.865334795 169,214.525588833 161,218.855715851 154,214.525588833" />
<polygon id="129" points="145,191.874953738 152,187.544826719 160,191.874953738 160,200.535207776 152,204.865334795 145,200.535207776" />
<polygon id="130" points="122,177.884572681 129,173.554445662 137,177.884572681 137,186.544826719 129,190.874953738 122,186.544826719" />
<polygon id="131" points="138,177.884572681 145,173.554445662 153,177.884572681 153,186.544826719 145,190.874953738 138,186.544826719" />
<polygon id="132" points="129,275.817240079 136,271.48711306 144,275.817240079 144,284.477494116 136,288.807621135 129,284.477494116" />
<polygon id="133" points="225,275.817240079 232,271.48711306 240,275.817240079 240,284.477494116 232,288.807621135 225,284.477494116" />
<polygon id="134" points="113,275.817240079 120,271.48711306 128,275.817240079 128,284.477494116 120,288.807621135 113,284.477494116" />
<polygon id="135" points="122,261.826859022 129,257.496732003 137,261.826859022 137,270.48711306 129,274.817240079 122,270.48711306" />
<polygon id="136" points="209,275.817240079 216,271.48711306 224,275.817240079 224,284.477494116 216,288.807621135 209,284.477494116" />
<polygon id="137" points="193,275.817240079 200,271.48711306 208,275.817240079 208,284.477494116 200,288.807621135 193,284.477494116" />
<polygon id="138" points="122,289.807621135 129,285.477494116 137,289.807621135 137,298.467875173 129,302.798002192 122,298.467875173" />
<polygon id="139" points="113,303.798002192 120,299.467875173 128,303.798002192 128,312.45825623 120,316.788383249 113,312.45825623" />
<polygon id="140" points="106,289.807621135 113,285.477494116 121,289.807621135 121,298.467875173 113,302.798002192 106,298.467875173" />
<polygon id="141" points="177,275.817240079 184,271.48711306 192,275.817240079 192,284.477494116 184,288.807621135 177,284.477494116" />
<polygon id="142" points="161,275.817240079 168,271.48711306 176,275.817240079 176,284.477494116 168,288.807621135 161,284.477494116" />
<polygon id="143" points="145,275.817240079 152,271.48711306 160,275.817240079 160,284.477494116 152,288.807621135 145,284.477494116" />
<polygon id="144" points="154,289.807621135 161,285.477494116 169,289.807621135 169,298.467875173 161,302.798002192 154,298.467875173" />
<polygon id="145" points="138,289.807621135 145,285.477494116 153,289.807621135 153,298.467875173 145,302.798002192 138,298.467875173" />
<polygon id="146" points="113,247.836477965 120,243.506350946 128,247.836477965 128,256.496732003 120,260.826859022 113,256.496732003" />
<polygon id="147" points="106,261.826859022 113,257.496732003 121,261.826859022 121,270.48711306 113,274.817240079 106,270.48711306" />
<polygon id="148" points="129,247.836477965 136,243.506350946 144,247.836477965 144,256.496732003 136,260.826859022 129,256.496732003" />
<polygon id="149" points="170,289.807621135 177,285.477494116 185,289.807621135 185,298.467875173 177,302.798002192 170,298.467875173" />
<polygon id="150" points="145,303.798002192 152,299.467875173 160,303.798002192 160,312.45825623 152,316.788383249 145,312.45825623" />
<polygon id="151" points="138,317.788383249 145,313.45825623 153,317.788383249 153,326.448637287 145,330.778764306 138,326.448637287" />
<polygon id="152" points="129,303.798002192 136,299.467875173 144,303.798002192 144,312.45825623 136,316.788383249 129,312.45825623" />
<polygon id="153" points="138,261.826859022 145,257.496732003 153,261.826859022 153,270.48711306 145,274.817240079 138,270.48711306" />
<polygon id="154" points="138,233.846096908 145,229.515969889 153,233.846096908 153,242.506350946 145,246.836477965 138,242.506350946" />
<polygon id="155" points="161,247.836477965 168,243.506350946 176,247.836477965 176,256.496732003 168,260.826859022 161,256.496732003" />
<polygon id="156" points="154,261.826859022 161,257.496732003 169,261.826859022 169,270.48711306 161,274.817240079 154,270.48711306" />
<polygon id="157" points="241,275.817240079 248,271.48711306 256,275.817240079 256,284.477494116 248,288.807621135 241,284.477494116" />
<polygon id="158" points="186,289.807621135 193,285.477494116 201,289.807621135 201,298.467875173 193,302.798002192 186,298.467875173" />
<polygon id="159" points="202,289.807621135 209,285.477494116 217,289.807621135 217,298.467875173 209,302.798002192 202,298.467875173" />
<polygon id="160" points="161,331.778764306 168,327.448637287 176,331.778764306 176,340.439018343 168,344.769145362 161,340.439018343" />
<polygon id="161" points="145,331.778764306 152,327.448637287 160,331.778764306 160,340.439018343 152,344.769145362 145,340.439018343" />
<polygon id="162" points="138,345.769145362 145,341.439018343 153,345.769145362 153,354.4293994 145,358.759526419 138,354.4293994" />
<polygon id="163" points="257,331.778764306 264,327.448637287 272,331.778764306 272,340.439018343 264,344.769145362 257,340.439018343" />
<polygon id="164" points="241,331.778764306 248,327.448637287 256,331.778764306 256,340.439018343 248,344.769145362 241,340.439018343" />
<polygon id="165" points="225,331.778764306 232,327.448637287 240,331.778764306 240,340.439018343 232,344.769145362 225,340.439018343" />
<polygon id="166" points="154,345.769145362 161,341.439018343 169,345.769145362 169,354.4293994 161,358.759526419 154,354.4293994" />
<polygon id="167" points="209,331.778764306 216,327.448637287 224,331.778764306 224,340.439018343 216,344.769145362 209,340.439018343" />
<polygon id="168" points="177,359.759526419 184,355.4293994 192,359.759526419 192,368.419780457 184,372.749907476 177,368.419780457" />
<polygon id="169" points="193,331.778764306 200,327.448637287 208,331.778764306 208,340.439018343 200,344.769145362 193,340.439018343" />
<polygon id="170" points="145,359.759526419 152,355.4293994 160,359.759526419 160,368.419780457 152,372.749907476 145,368.419780457" />
<polygon id="171" points="161,359.759526419 168,355.4293994 176,359.759526419 176,368.419780457 168,372.749907476 161,368.419780457" />
<polygon id="172" points="170,317.788383249 177,313.45825623 185,317.788383249 185,326.448637287 177,330.778764306 170,326.448637287" />
<polygon id="173" points="250,373.749907476 257,369.419780457 265,373.749907476 265,382.410161514 257,386.740288533 250,382.410161514" />
<polygon id="174" points="186,317.788383249 193,313.45825623 201,317.788383249 201,326.448637287 193,330.778764306 186,326.448637287" />
<polygon id="175" points="154,317.788383249 161,313.45825623 169,317.788383249 169,326.448637287 161,330.778764306 154,326.448637287" />
<polygon id="176" points="177,331.778764306 184,327.448637287 192,331.778764306 192,340.439018343 184,344.769145362 177,340.439018343" />
<polygon id="177" points="257,359.759526419 264,355.4293994 272,359.759526419 272,368.419780457 264,372.749907476 257,368.419780457" />
<polygon id="178" points="170,345.769145362 177,341.439018343 185,345.769145362 185,354.4293994 177,358.759526419 170,354.4293994" />
<polygon id="179" points="186,345.769145362 193,341.439018343 201,345.769145362 201,354.4293994 193,358.759526419 186,354.4293994" />
<polygon id="180" points="193,359.759526419 200,355.4293994 208,359.759526419 208,368.419780457 200,372.749907476 193,368.419780457" />
<polygon id="181" points="186,373.749907476 193,369.419780457 201,373.749907476 201,382.410161514 193,386.740288533 186,382.410161514" />
<polygon id="182" points="218,317.788383249 225,313.45825623 233,317.788383249 233,326.448637287 225,330.778764306 218,326.448637287" />
<polygon id="183" points="257,387.740288533 264,383.410161514 272,387.740288533 272,396.400542571 264,400.730669589 257,396.400542571" />
<polygon id="184" points="202,317.788383249 209,313.45825623 217,317.788383249 217,326.448637287 209,330.778764306 202,326.448637287" />
<polygon id="185" points="225,303.798002192 232,299.467875173 240,303.798002192 240,312.45825623 232,316.788383249 225,312.45825623" />
<polygon id="186" points="250,345.769145362 257,341.439018343 265,345.769145362 265,354.4293994 257,358.759526419 250,354.4293994" />
<polygon id="187" points="234,317.788383249 241,313.45825623 249,317.788383249 249,326.448637287 241,330.778764306 234,326.448637287" />
<polygon id="188" points="241,359.759526419 248,355.4293994 256,359.759526419 256,368.419780457 248,372.749907476 241,368.419780457" />
<polygon id="189" points="234,373.749907476 241,369.419780457 249,373.749907476 249,382.410161514 241,386.740288533 234,382.410161514" />
<polygon id="190" points="250,429.711431703 257,425.381304684 265,429.711431703 265,438.371685741 257,442.70181276 250,438.371685741" />
<polygon id="191" points="225,359.759526419 232,355.4293994 240,359.759526419 240,368.419780457 232,372.749907476 225,368.419780457" />
<polygon id="192" points="209,359.759526419 216,355.4293994 224,359.759526419 224,368.419780457 216,372.749907476 209,368.419780457" />
<polygon id="193" points="250,401.730669589 257,397.400542571 265,401.730669589 265,410.390923627 257,414.721050646 250,410.390923627" />
<polygon id="194" points="234,345.769145362 241,341.439018343 249,345.769145362 249,354.4293994 241,358.759526419 234,354.4293994" />
<polygon id="195" points="193,303.798002192 200,299.467875173 208,303.798002192 208,312.45825623 200,316.788383249 193,312.45825623" />
<polygon id="196" points="209,303.798002192 216,299.467875173 224,303.798002192 224,312.45825623 216,316.788383249 209,312.45825623" />
<polygon id="197" points="218,289.807621135 225,285.477494116 233,289.807621135 233,298.467875173 225,302.798002192 218,298.467875173" />
<polygon id="198" points="202,373.749907476 209,369.419780457 217,373.749907476 217,382.410161514 209,386.740288533 202,382.410161514" />
<polygon id="199" points="202,345.769145362 209,341.439018343 217,345.769145362 217,354.4293994 209,358.759526419 202,354.4293994" />
<polygon id="200" points="202,401.730669589 209,397.400542571 217,401.730669589 217,410.390923627 209,414.721050646 202,410.390923627" />
<polygon id="201" points="218,401.730669589 225,397.400542571 233,401.730669589 233,410.390923627 225,414.721050646 218,410.390923627" />
<polygon id="202" points="202,429.711431703 209,425.381304684 217,429.711431703 217,438.371685741 209,442.70181276 202,438.371685741" />
<polygon id="203" points="209,443.70181276 216,439.371685741 224,443.70181276 224,452.362066798 216,456.692193817 209,452.362066798" />
<polygon id="204" points="218,429.711431703 225,425.381304684 233,429.711431703 233,438.371685741 225,442.70181276 218,438.371685741" />
<polygon id="205" points="209,471.682574873 216,467.352447854 224,471.682574873 224,480.342828911 216,484.67295593 209,480.342828911" />
<polygon id="206" points="202,485.67295593 209,481.342828911 217,485.67295593 217,494.333209968 209,498.663336987 202,494.333209968" />
<polygon id="207" points="193,499.663336987 200,495.333209968 208,499.663336987 208,508.323591025 200,512.653718044 193,508.323591025" />
<polygon id="208" points="138,485.67295593 145,481.342828911 153,485.67295593 153,494.333209968 145,498.663336987 138,494.333209968" />
<polygon id="209" points="145,499.663336987 152,495.333209968 160,499.663336987 160,508.323591025 152,512.653718044 145,508.323591025" />
<polygon id="210" points="161,499.663336987 168,495.333209968 176,499.663336987 176,508.323591025 168,512.653718044 161,508.323591025" />
<polygon id="211" points="154,541.634480157 161,537.304353138 169,541.634480157 169,550.294734195 161,554.624861214 154,550.294734195" />
<polygon id="212" points="154,513.653718044 161,509.323591025 169,513.653718044 169,522.313972081 161,526.6440991 154,522.313972081" />
<polygon id="213" points="138,513.653718044 145,509.323591025 153,513.653718044 153,522.313972081 145,526.6440991 138,522.313972081" />
<polygon id="214" points="138,541.634480157 145,537.304353138 153,541.634480157 153,550.294734195 145,554.624861214 138,550.294734195" />
<polygon id="215" points="129,499.663336987 136,495.333209968 144,499.663336987 144,508.323591025 136,512.653718044 129,508.323591025" />
<polygon id="216" points="145,527.6440991 152,523.313972081 160,527.6440991 160,536.304353138 152,540.634480157 145,536.304353138" />
<polygon id="217" points="209,499.663336987 216,495.333209968 224,499.663336987 224,508.323591025 216,512.653718044 209,508.323591025" />
<polygon id="218" points="177,499.663336987 184,495.333209968 192,499.663336987 192,508.323591025 184,512.653718044 177,508.323591025" />
<polygon id="219" points="161,527.6440991 168,523.313972081 176,527.6440991 176,536.304353138 168,540.634480157 161,536.304353138" />
<polygon id="220" points="170,513.653718044 177,509.323591025 185,513.653718044 185,522.313972081 177,526.6440991 170,522.313972081" />
<polygon id="221" points="177,527.6440991 184,523.313972081 192,527.6440991 192,536.304353138 184,540.634480157 177,536.304353138" />
<polygon id="222" points="193,527.6440991 200,523.313972081 208,527.6440991 208,536.304353138 200,540.634480157 193,536.304353138" />
<polygon id="223" points="170,541.634480157 177,537.304353138 185,541.634480157 185,550.294734195 177,554.624861214 170,550.294734195" />
<polygon id="224" points="170,569.615242271 177,565.285115252 185,569.615242271 185,578.275496309 177,582.605623327 170,578.275496309" />
<polygon id="225" points="177,555.624861214 184,551.294734195 192,555.624861214 192,564.285115252 184,568.615242271 177,564.285115252" />
<polygon id="226" points="193,555.624861214 200,551.294734195 208,555.624861214 208,564.285115252 200,568.615242271 193,564.285115252" />
<polygon id="227" points="42,429.711431703 49,425.381304684 57,429.711431703 57,438.371685741 49,442.70181276 42,438.371685741" />
<polygon id="228" points="49,387.740288533 56,383.410161514 64,387.740288533 64,396.400542571 56,400.730669589 49,396.400542571" />
<polygon id="229" points="58,429.711431703 65,425.381304684 73,429.711431703 73,438.371685741 65,442.70181276 58,438.371685741" />
<polygon id="230" points="26,345.769145362 33,341.439018343 41,345.769145362 41,354.4293994 33,358.759526419 26,354.4293994" />
<polygon id="231" points="42,345.769145362 49,341.439018343 57,345.769145362 57,354.4293994 49,358.759526419 42,354.4293994" />
<polygon id="232" points="42,401.730669589 49,397.400542571 57,401.730669589 57,410.390923627 49,414.721050646 42,410.390923627" />
</svg>
