<?xml version="1.0" encoding="utf-8" standalone="no"?>
<!DOCTYPE svg PUBLIC "-//W3C//DTD SVG 1.1//EN"
  "http://www.w3.org/Graphics/SVG/1.1/DTD/svg11.dtd">
<!-- Created with matplotlib (https://matplotlib.org/) -->
<svg height="358.108125pt" version="1.1" viewBox="0 0 722.543595 358.108125" width="722.543595pt" xmlns="http://www.w3.org/2000/svg" xmlns:xlink="http://www.w3.org/1999/xlink">
 <defs>
  <style type="text/css">
*{stroke-linecap:butt;stroke-linejoin:round;}
  </style>
 </defs>
 <g id="figure_1">
  <g id="patch_1">
   <path d="M -0 358.108125 
L 722.543595 358.108125 
L 722.543595 0 
L -0 0 
z
" style="fill:#ffffff;"/>
  </g>
  <g id="axes_1">
   <g id="patch_2">
    <path d="M 33.425 327.73 
L 585.287 327.73 
L 585.287 50.53 
L 33.425 50.53 
z
" style="fill:#ffffff;"/>
   </g>
   <g id="PolyCollection_1">
    <defs>
     <path d="M 156.061 -30.378125 
L 156.061 -30.378125 
L 179.287515 -31.920944 
L 211.804636 -31.384255 
L 221.095242 -32.578247 
L 244.321758 -32.635877 
L 323.291909 -32.355952 
L 346.518424 -32.92391 
L 351.163727 -33.113054 
L 355.80903 -33.305381 
L 458.005697 -33.822534 
L 467.296303 -34.066536 
L 467.296303 -33.795544 
L 471.941606 -33.878668 
L 471.941606 -41.744029 
L 471.941606 -41.744029 
L 467.296303 -41.601903 
L 467.296303 -42.062971 
L 458.005697 -41.64812 
L 355.80903 -40.749957 
L 351.163727 -40.40849 
L 346.518424 -40.068198 
L 323.291909 -39.015166 
L 244.321758 -39.540507 
L 221.095242 -39.433424 
L 211.804636 -37.058624 
L 179.287515 -38.16907 
L 156.061 -30.378125 
z
" id="m0dc247b8b8" style="stroke:#a90000;stroke-opacity:0.3;"/>
    </defs>
    <g clip-path="url(#pc572649d97)">
     <use style="fill:#a90000;fill-opacity:0.3;stroke:#a90000;stroke-opacity:0.3;" x="0" xlink:href="#m0dc247b8b8" y="358.108125"/>
    </g>
   </g>
   <g id="PathCollection_1">
    <defs>
     <path d="M 0 1.581139 
C 0.419323 1.581139 0.821528 1.41454 1.118034 1.118034 
C 1.41454 0.821528 1.581139 0.419323 1.581139 0 
C 1.581139 -0.419323 1.41454 -0.821528 1.118034 -1.118034 
C 0.821528 -1.41454 0.419323 -1.581139 0 -1.581139 
C -0.419323 -1.581139 -0.821528 -1.41454 -1.118034 -1.118034 
C -1.41454 -0.821528 -1.581139 -0.419323 -1.581139 0 
C -1.581139 0.419323 -1.41454 0.821528 -1.118034 1.118034 
C -0.821528 1.41454 -0.419323 1.581139 0 1.581139 
z
" id="md236fa3d35" style="stroke:#a90000;"/>
    </defs>
    <g clip-path="url(#pc572649d97)">
     <use style="fill:#a90000;stroke:#a90000;" x="156.061" xlink:href="#md236fa3d35" y="327.73"/>
     <use style="fill:#a90000;stroke:#a90000;" x="179.287515" xlink:href="#md236fa3d35" y="318.396236"/>
     <use style="fill:#a90000;stroke:#a90000;" x="211.804636" xlink:href="#md236fa3d35" y="325.53382"/>
     <use style="fill:#a90000;stroke:#a90000;" x="221.095242" xlink:href="#md236fa3d35" y="316.749102"/>
     <use style="fill:#a90000;stroke:#a90000;" x="244.321758" xlink:href="#md236fa3d35" y="321.690506"/>
     <use style="fill:#a90000;stroke:#a90000;" x="323.291909" xlink:href="#md236fa3d35" y="324.435731"/>
     <use style="fill:#a90000;stroke:#a90000;" x="346.518424" xlink:href="#md236fa3d35" y="316.749102"/>
     <use style="fill:#a90000;stroke:#a90000;" x="351.163727" xlink:href="#md236fa3d35" y="319.494326"/>
     <use style="fill:#a90000;stroke:#a90000;" x="355.80903" xlink:href="#md236fa3d35" y="318.945281"/>
     <use style="fill:#a90000;stroke:#a90000;" x="458.005697" xlink:href="#md236fa3d35" y="314.003877"/>
     <use style="fill:#a90000;stroke:#a90000;" x="467.296303" xlink:href="#md236fa3d35" y="316.749102"/>
     <use style="fill:#a90000;stroke:#a90000;" x="467.296303" xlink:href="#md236fa3d35" y="324.435731"/>
     <use style="fill:#a90000;stroke:#a90000;" x="471.941606" xlink:href="#md236fa3d35" y="318.945281"/>
    </g>
   </g>
   <g id="PathCollection_2">
    <defs>
     <path d="M 0 3 
C 0.795609 3 1.55874 2.683901 2.12132 2.12132 
C 2.683901 1.55874 3 0.795609 3 0 
C 3 -0.795609 2.683901 -1.55874 2.12132 -2.12132 
C 1.55874 -2.683901 0.795609 -3 0 -3 
C -0.795609 -3 -1.55874 -2.683901 -2.12132 -2.12132 
C -2.683901 -1.55874 -3 -0.795609 -3 0 
C -3 0.795609 -2.683901 1.55874 -2.12132 2.12132 
C -1.55874 2.683901 -0.795609 3 0 3 
z
" id="mdddaf6802e" style="stroke:#a90000;"/>
    </defs>
    <g clip-path="url(#pc572649d97)">
     <use style="fill:#a90000;stroke:#a90000;" x="560.202364" xlink:href="#mdddaf6802e" y="320.296777"/>
    </g>
   </g>
   <g id="PolyCollection_2">
    <defs>
     <path d="M 156.061 -59.008443 
L 156.061 -45.6714 
L 179.287515 -44.735394 
L 211.804636 -45.358879 
L 221.095242 -46.611932 
L 244.321758 -45.57759 
L 323.291909 -43.572284 
L 346.518424 -44.535443 
L 351.163727 -44.968953 
L 355.80903 -45.150817 
L 379.035545 -44.315759 
L 458.005697 -44.015434 
L 467.296303 -44.152841 
L 467.296303 -43.411881 
L 471.941606 -43.804261 
L 471.941606 -56.483223 
L 471.941606 -56.483223 
L 467.296303 -55.94645 
L 467.296303 -56.95821 
L 458.005697 -56.771181 
L 379.035545 -57.179624 
L 355.80903 -58.308927 
L 351.163727 -58.063755 
L 346.518424 -57.477611 
L 323.291909 -56.166155 
L 244.321758 -58.882635 
L 221.095242 -60.264091 
L 211.804636 -58.588904 
L 179.287515 -57.748269 
L 156.061 -59.008443 
z
" id="mb91321c1c1" style="stroke:#a33475;stroke-opacity:0.3;"/>
    </defs>
    <g clip-path="url(#pc572649d97)">
     <use style="fill:#a33475;fill-opacity:0.3;stroke:#a33475;stroke-opacity:0.3;" x="0" xlink:href="#mb91321c1c1" y="358.108125"/>
    </g>
   </g>
   <g id="PathCollection_3">
    <defs>
     <path d="M 0 1.581139 
C 0.419323 1.581139 0.821528 1.41454 1.118034 1.118034 
C 1.41454 0.821528 1.581139 0.419323 1.581139 0 
C 1.581139 -0.419323 1.41454 -0.821528 1.118034 -1.118034 
C 0.821528 -1.41454 0.419323 -1.581139 0 -1.581139 
C -0.419323 -1.581139 -0.821528 -1.41454 -1.118034 -1.118034 
C -1.41454 -0.821528 -1.581139 -0.419323 -1.581139 0 
C -1.581139 0.419323 -1.41454 0.821528 -1.118034 1.118034 
C -0.821528 1.41454 -0.419323 1.581139 0 1.581139 
z
" id="mf2c7d28f43" style="stroke:#a33475;"/>
    </defs>
    <g clip-path="url(#pc572649d97)">
     <use style="fill:#a33475;stroke:#a33475;" x="156.061" xlink:href="#mf2c7d28f43" y="305.768203"/>
     <use style="fill:#a33475;stroke:#a33475;" x="179.287515" xlink:href="#mf2c7d28f43" y="307.964383"/>
     <use style="fill:#a33475;stroke:#a33475;" x="211.804636" xlink:href="#mf2c7d28f43" y="304.670114"/>
     <use style="fill:#a33475;stroke:#a33475;" x="221.095242" xlink:href="#mf2c7d28f43" y="300.277754"/>
     <use style="fill:#a33475;stroke:#a33475;" x="244.321758" xlink:href="#mf2c7d28f43" y="310.709608"/>
     <use style="fill:#a33475;stroke:#a33475;" x="323.291909" xlink:href="#mf2c7d28f43" y="320.043371"/>
     <use style="fill:#a33475;stroke:#a33475;" x="346.518424" xlink:href="#mf2c7d28f43" y="300.277754"/>
     <use style="fill:#a33475;stroke:#a33475;" x="351.163727" xlink:href="#mf2c7d28f43" y="303.022979"/>
     <use style="fill:#a33475;stroke:#a33475;" x="355.80903" xlink:href="#mf2c7d28f43" y="304.670114"/>
     <use style="fill:#a33475;stroke:#a33475;" x="379.035545" xlink:href="#mf2c7d28f43" y="316.200057"/>
     <use style="fill:#a33475;stroke:#a33475;" x="458.005697" xlink:href="#mf2c7d28f43" y="311.258653"/>
     <use style="fill:#a33475;stroke:#a33475;" x="467.296303" xlink:href="#mf2c7d28f43" y="305.768203"/>
     <use style="fill:#a33475;stroke:#a33475;" x="467.296303" xlink:href="#mf2c7d28f43" y="318.945281"/>
     <use style="fill:#a33475;stroke:#a33475;" x="471.941606" xlink:href="#mf2c7d28f43" y="301.924889"/>
    </g>
   </g>
   <g id="PathCollection_4">
    <defs>
     <path d="M 0 3 
C 0.795609 3 1.55874 2.683901 2.12132 2.12132 
C 2.683901 1.55874 3 0.795609 3 0 
C 3 -0.795609 2.683901 -1.55874 2.12132 -2.12132 
C 1.55874 -2.683901 0.795609 -3 0 -3 
C -0.795609 -3 -1.55874 -2.683901 -2.12132 -2.12132 
C -2.683901 -1.55874 -3 -0.795609 -3 0 
C -3 0.795609 -2.683901 1.55874 -2.12132 2.12132 
C -1.55874 2.683901 -0.795609 3 0 3 
z
" id="m49b0c39385" style="stroke:#a33475;"/>
    </defs>
    <g clip-path="url(#pc572649d97)">
     <use style="fill:#a33475;stroke:#a33475;" x="560.202364" xlink:href="#m49b0c39385" y="307.964383"/>
    </g>
   </g>
   <g id="PolyCollection_3">
    <defs>
     <path d="M 156.061 -101.420753 
L 156.061 -80.125378 
L 179.287515 -95.693285 
L 211.804636 -100.239915 
L 221.095242 -96.464272 
L 244.321758 -113.946645 
L 323.291909 -108.080059 
L 346.518424 -104.788906 
L 351.163727 -104.262601 
L 355.80903 -104.829951 
L 379.035545 -104.973618 
L 458.005697 -103.399252 
L 467.296303 -103.594979 
L 467.296303 -103.601604 
L 471.941606 -103.718021 
L 471.941606 -128.418677 
L 471.941606 -128.418677 
L 467.296303 -128.287722 
L 467.296303 -128.280269 
L 458.005697 -128.060053 
L 379.035545 -129.829869 
L 355.80903 -129.668511 
L 351.163727 -129.031013 
L 346.518424 -129.622406 
L 323.291909 -133.311968 
L 244.321758 -139.853797 
L 221.095242 -120.220734 
L 211.804636 -124.497749 
L 179.287515 -119.344586 
L 156.061 -101.420753 
z
" id="m07829ea4e2" style="stroke:#eec911;stroke-opacity:0.3;"/>
    </defs>
    <g clip-path="url(#pc572649d97)">
     <use style="fill:#eec911;fill-opacity:0.3;stroke:#eec911;stroke-opacity:0.3;" x="0" xlink:href="#m07829ea4e2" y="358.108125"/>
    </g>
   </g>
   <g id="PathCollection_5">
    <defs>
     <path d="M 0 1.581139 
C 0.419323 1.581139 0.821528 1.41454 1.118034 1.118034 
C 1.41454 0.821528 1.581139 0.419323 1.581139 0 
C 1.581139 -0.419323 1.41454 -0.821528 1.118034 -1.118034 
C 0.821528 -1.41454 0.419323 -1.581139 0 -1.581139 
C -0.419323 -1.581139 -0.821528 -1.41454 -1.118034 -1.118034 
C -1.41454 -0.821528 -1.581139 -0.419323 -1.581139 0 
C -1.581139 0.419323 -1.41454 0.821528 -1.118034 1.118034 
C -0.821528 1.41454 -0.419323 1.581139 0 1.581139 
z
" id="m8ef34b6ae3" style="stroke:#eec911;"/>
    </defs>
    <g clip-path="url(#pc572649d97)">
     <use style="fill:#eec911;stroke:#eec911;" x="156.061" xlink:href="#m8ef34b6ae3" y="267.33506"/>
     <use style="fill:#eec911;stroke:#eec911;" x="179.287515" xlink:href="#m8ef34b6ae3" y="233.84332"/>
     <use style="fill:#eec911;stroke:#eec911;" x="211.804636" xlink:href="#m8ef34b6ae3" y="236.039499"/>
     <use style="fill:#eec911;stroke:#eec911;" x="221.095242" xlink:href="#m8ef34b6ae3" y="261.84461"/>
     <use style="fill:#eec911;stroke:#eec911;" x="244.321758" xlink:href="#m8ef34b6ae3" y="156.977032"/>
     <use style="fill:#eec911;stroke:#eec911;" x="323.291909" xlink:href="#m8ef34b6ae3" y="268.433149"/>
     <use style="fill:#eec911;stroke:#eec911;" x="346.518424" xlink:href="#m8ef34b6ae3" y="261.84461"/>
     <use style="fill:#eec911;stroke:#eec911;" x="351.163727" xlink:href="#m8ef34b6ae3" y="245.373263"/>
     <use style="fill:#eec911;stroke:#eec911;" x="355.80903" xlink:href="#m8ef34b6ae3" y="236.039499"/>
     <use style="fill:#eec911;stroke:#eec911;" x="379.035545" xlink:href="#m8ef34b6ae3" y="239.333769"/>
     <use style="fill:#eec911;stroke:#eec911;" x="458.005697" xlink:href="#m8ef34b6ae3" y="259.099386"/>
     <use style="fill:#eec911;stroke:#eec911;" x="467.296303" xlink:href="#m8ef34b6ae3" y="239.882814"/>
     <use style="fill:#eec911;stroke:#eec911;" x="467.296303" xlink:href="#m8ef34b6ae3" y="242.078994"/>
     <use style="fill:#eec911;stroke:#eec911;" x="471.941606" xlink:href="#m8ef34b6ae3" y="240.431859"/>
    </g>
   </g>
   <g id="PathCollection_6">
    <defs>
     <path d="M 0 3 
C 0.795609 3 1.55874 2.683901 2.12132 2.12132 
C 2.683901 1.55874 3 0.795609 3 0 
C 3 -0.795609 2.683901 -1.55874 2.12132 -2.12132 
C 1.55874 -2.683901 0.795609 -3 0 -3 
C -0.795609 -3 -1.55874 -2.683901 -2.12132 -2.12132 
C -2.683901 -1.55874 -3 -0.795609 -3 0 
C -3 0.795609 -2.683901 1.55874 -2.12132 2.12132 
C -1.55874 2.683901 -0.795609 3 0 3 
z
" id="m43831721ea" style="stroke:#eec911;"/>
    </defs>
    <g clip-path="url(#pc572649d97)">
     <use style="fill:#eec911;stroke:#eec911;" x="560.202364" xlink:href="#m43831721ea" y="241.958486"/>
    </g>
   </g>
   <g id="PolyCollection_4">
    <defs>
     <path d="M 58.509636 -252.744746 
L 58.509636 -219.795189 
L 58.509636 -217.094837 
L 156.061 -218.894863 
L 179.287515 -222.227109 
L 211.804636 -225.634328 
L 221.095242 -224.660537 
L 244.321758 -221.647943 
L 323.291909 -215.205714 
L 346.518424 -215.715386 
L 351.163727 -215.853309 
L 355.80903 -216.849444 
L 379.035545 -219.254968 
L 458.005697 -219.712073 
L 467.296303 -220.29689 
L 467.296303 -221.030261 
L 471.941606 -221.840989 
L 471.941606 -254.856 
L 471.941606 -254.856 
L 467.296303 -254.019594 
L 467.296303 -253.2627 
L 458.005697 -252.658925 
L 379.035545 -252.186877 
L 355.80903 -249.70091 
L 351.163727 -248.670571 
L 346.518424 -248.527871 
L 323.291909 -248.000457 
L 244.321758 -254.656871 
L 221.095242 -257.762207 
L 211.804636 -258.764978 
L 179.287515 -255.25423 
L 156.061 -251.814923 
L 58.509636 -249.954649 
L 58.509636 -252.744746 
z
" id="mf472e7905e" style="stroke:#f55916;stroke-opacity:0.3;"/>
    </defs>
    <g clip-path="url(#pc572649d97)">
     <use style="fill:#f55916;fill-opacity:0.3;stroke:#f55916;stroke-opacity:0.3;" x="0" xlink:href="#mf472e7905e" y="358.108125"/>
    </g>
   </g>
   <g id="PathCollection_7">
    <defs>
     <path d="M 0 1.581139 
C 0.419323 1.581139 0.821528 1.41454 1.118034 1.118034 
C 1.41454 0.821528 1.581139 0.419323 1.581139 0 
C 1.581139 -0.419323 1.41454 -0.821528 1.118034 -1.118034 
C 0.821528 -1.41454 0.419323 -1.581139 0 -1.581139 
C -0.419323 -1.581139 -0.821528 -1.41454 -1.118034 -1.118034 
C -1.41454 -0.821528 -1.581139 -0.419323 -1.581139 0 
C -1.581139 0.419323 -1.41454 0.821528 -1.118034 1.118034 
C -0.821528 1.41454 -0.419323 1.581139 0 1.581139 
z
" id="m6f0fbcfa97" style="stroke:#f55916;"/>
    </defs>
    <g clip-path="url(#pc572649d97)">
     <use style="fill:#f55916;stroke:#f55916;" x="58.509636" xlink:href="#m6f0fbcfa97" y="121.838157"/>
     <use style="fill:#f55916;stroke:#f55916;" x="58.509636" xlink:href="#m6f0fbcfa97" y="127.328607"/>
     <use style="fill:#f55916;stroke:#f55916;" x="156.061" xlink:href="#m6f0fbcfa97" y="119.092933"/>
     <use style="fill:#f55916;stroke:#f55916;" x="179.287515" xlink:href="#m6f0fbcfa97" y="109.210124"/>
     <use style="fill:#f55916;stroke:#f55916;" x="211.804636" xlink:href="#m6f0fbcfa97" y="102.072541"/>
     <use style="fill:#f55916;stroke:#f55916;" x="221.095242" xlink:href="#m6f0fbcfa97" y="121.838157"/>
     <use style="fill:#f55916;stroke:#f55916;" x="244.321758" xlink:href="#m6f0fbcfa97" y="138.309505"/>
     <use style="fill:#f55916;stroke:#f55916;" x="323.291909" xlink:href="#m6f0fbcfa97" y="172.35029"/>
     <use style="fill:#f55916;stroke:#f55916;" x="346.518424" xlink:href="#m6f0fbcfa97" y="121.838157"/>
     <use style="fill:#f55916;stroke:#f55916;" x="351.163727" xlink:href="#m6f0fbcfa97" y="124.583382"/>
     <use style="fill:#f55916;stroke:#f55916;" x="355.80903" xlink:href="#m6f0fbcfa97" y="114.700574"/>
     <use style="fill:#f55916;stroke:#f55916;" x="379.035545" xlink:href="#m6f0fbcfa97" y="95.484002"/>
     <use style="fill:#f55916;stroke:#f55916;" x="458.005697" xlink:href="#m6f0fbcfa97" y="116.347708"/>
     <use style="fill:#f55916;stroke:#f55916;" x="467.296303" xlink:href="#m6f0fbcfa97" y="113.602484"/>
     <use style="fill:#f55916;stroke:#f55916;" x="467.296303" xlink:href="#m6f0fbcfa97" y="111.406304"/>
     <use style="fill:#f55916;stroke:#f55916;" x="471.941606" xlink:href="#m6f0fbcfa97" y="115.798663"/>
    </g>
   </g>
   <g id="PathCollection_8">
    <defs>
     <path d="M 0 3 
C 0.795609 3 1.55874 2.683901 2.12132 2.12132 
C 2.683901 1.55874 3 0.795609 3 0 
C 3 -0.795609 2.683901 -1.55874 2.12132 -2.12132 
C 1.55874 -2.683901 0.795609 -3 0 -3 
C -0.795609 -3 -1.55874 -2.683901 -2.12132 -2.12132 
C -2.683901 -1.55874 -3 -0.795609 -3 0 
C -3 0.795609 -2.683901 1.55874 -2.12132 2.12132 
C -1.55874 2.683901 -0.795609 3 0 3 
z
" id="m90d1b1228e" style="stroke:#f55916;"/>
    </defs>
    <g clip-path="url(#pc572649d97)">
     <use style="fill:#f55916;stroke:#f55916;" x="560.202364" xlink:href="#m90d1b1228e" y="122.238079"/>
    </g>
   </g>
   <g id="PolyCollection_5">
    <defs>
     <path d="M 58.509636 -294.378125 
L 58.509636 -260.518547 
L 58.509636 -256.428308 
L 156.061 -257.791288 
L 179.287515 -248.667632 
L 211.804636 -242.985523 
L 221.095242 -244.543484 
L 244.321758 -235.338794 
L 323.291909 -225.201502 
L 346.518424 -228.208207 
L 351.163727 -229.802679 
L 355.80903 -229.187242 
L 379.035545 -228.584205 
L 458.005697 -230.406846 
L 467.296303 -231.002173 
L 467.296303 -229.454506 
L 471.941606 -227.404765 
L 471.941606 -260.586862 
L 471.941606 -260.586862 
L 467.296303 -262.694176 
L 467.296303 -264.283909 
L 458.005697 -263.672543 
L 379.035545 -261.79969 
L 355.80903 -262.419526 
L 351.163727 -263.051918 
L 346.518424 -261.413125 
L 323.291909 -258.319331 
L 244.321758 -268.732006 
L 221.095242 -278.142553 
L 211.804636 -276.552657 
L 179.287515 -282.345587 
L 156.061 -291.614935 
L 58.509636 -290.232691 
L 58.509636 -294.378125 
z
" id="mbee31c5533" style="stroke:#507cd4;stroke-opacity:0.3;"/>
    </defs>
    <g clip-path="url(#pc572649d97)">
     <use style="fill:#507cd4;fill-opacity:0.3;stroke:#507cd4;stroke-opacity:0.3;" x="0" xlink:href="#mbee31c5533" y="358.108125"/>
    </g>
   </g>
   <g id="PathCollection_9">
    <defs>
     <path d="M 0 1.581139 
C 0.419323 1.581139 0.821528 1.41454 1.118034 1.118034 
C 1.41454 0.821528 1.581139 0.419323 1.581139 0 
C 1.581139 -0.419323 1.41454 -0.821528 1.118034 -1.118034 
C 0.821528 -1.41454 0.419323 -1.581139 0 -1.581139 
C -0.419323 -1.581139 -0.821528 -1.41454 -1.118034 -1.118034 
C -1.41454 -0.821528 -1.581139 -0.419323 -1.581139 0 
C -1.581139 0.419323 -1.41454 0.821528 -1.118034 1.118034 
C -0.821528 1.41454 -0.419323 1.581139 0 1.581139 
z
" id="m297ebb38f1" style="stroke:#507cd4;"/>
    </defs>
    <g clip-path="url(#pc572649d97)">
     <use style="fill:#507cd4;stroke:#507cd4;" x="58.509636" xlink:href="#m297ebb38f1" y="80.659789"/>
     <use style="fill:#507cd4;stroke:#507cd4;" x="58.509636" xlink:href="#m297ebb38f1" y="88.895463"/>
     <use style="fill:#507cd4;stroke:#507cd4;" x="156.061" xlink:href="#m297ebb38f1" y="80.659789"/>
     <use style="fill:#507cd4;stroke:#507cd4;" x="179.287515" xlink:href="#m297ebb38f1" y="120.191023"/>
     <use style="fill:#507cd4;stroke:#507cd4;" x="211.804636" xlink:href="#m297ebb38f1" y="121.289113"/>
     <use style="fill:#507cd4;stroke:#507cd4;" x="221.095242" xlink:href="#m297ebb38f1" y="88.895463"/>
     <use style="fill:#507cd4;stroke:#507cd4;" x="244.321758" xlink:href="#m297ebb38f1" y="161.918436"/>
     <use style="fill:#507cd4;stroke:#507cd4;" x="323.291909" xlink:href="#m297ebb38f1" y="188.272592"/>
     <use style="fill:#507cd4;stroke:#507cd4;" x="346.518424" xlink:href="#m297ebb38f1" y="88.895463"/>
     <use style="fill:#507cd4;stroke:#507cd4;" x="351.163727" xlink:href="#m297ebb38f1" y="97.131136"/>
     <use style="fill:#507cd4;stroke:#507cd4;" x="355.80903" xlink:href="#m297ebb38f1" y="118.543888"/>
     <use style="fill:#507cd4;stroke:#507cd4;" x="379.035545" xlink:href="#m297ebb38f1" y="119.641978"/>
     <use style="fill:#507cd4;stroke:#507cd4;" x="458.005697" xlink:href="#m297ebb38f1" y="88.895463"/>
     <use style="fill:#507cd4;stroke:#507cd4;" x="467.296303" xlink:href="#m297ebb38f1" y="102.621586"/>
     <use style="fill:#507cd4;stroke:#507cd4;" x="467.296303" xlink:href="#m297ebb38f1" y="102.621586"/>
     <use style="fill:#507cd4;stroke:#507cd4;" x="471.941606" xlink:href="#m297ebb38f1" y="117.994843"/>
    </g>
   </g>
   <g id="PathCollection_10">
    <defs>
     <path d="M 0 3 
C 0.795609 3 1.55874 2.683901 2.12132 2.12132 
C 2.683901 1.55874 3 0.795609 3 0 
C 3 -0.795609 2.683901 -1.55874 2.12132 -2.12132 
C 1.55874 -2.683901 0.795609 -3 0 -3 
C -0.795609 -3 -1.55874 -2.683901 -2.12132 -2.12132 
C -2.683901 -1.55874 -3 -0.795609 -3 0 
C -3 0.795609 -2.683901 1.55874 -2.12132 2.12132 
C -1.55874 2.683901 -0.795609 3 0 3 
z
" id="m66a9278834" style="stroke:#507cd4;"/>
    </defs>
    <g clip-path="url(#pc572649d97)">
     <use style="fill:#507cd4;stroke:#507cd4;" x="560.202364" xlink:href="#m66a9278834" y="112.642499"/>
    </g>
   </g>
   <g id="matplotlib.axis_1">
    <g id="xtick_1">
     <g id="line2d_1">
      <defs>
       <path d="M 0 0 
L 0 10 
" id="mee100b7664" style="stroke:#000000;stroke-width:0.8;"/>
      </defs>
      <g>
       <use style="stroke:#000000;stroke-width:0.8;" x="44.573727" xlink:href="#mee100b7664" y="327.73"/>
      </g>
     </g>
     <g id="text_1">
      <!-- giugno -->
      <defs>
       <path d="M 45.40625 27.984375 
Q 45.40625 37.75 41.375 43.109375 
Q 37.359375 48.484375 30.078125 48.484375 
Q 22.859375 48.484375 18.828125 43.109375 
Q 14.796875 37.75 14.796875 27.984375 
Q 14.796875 18.265625 18.828125 12.890625 
Q 22.859375 7.515625 30.078125 7.515625 
Q 37.359375 7.515625 41.375 12.890625 
Q 45.40625 18.265625 45.40625 27.984375 
z
M 54.390625 6.78125 
Q 54.390625 -7.171875 48.1875 -13.984375 
Q 42 -20.796875 29.203125 -20.796875 
Q 24.46875 -20.796875 20.265625 -20.09375 
Q 16.0625 -19.390625 12.109375 -17.921875 
L 12.109375 -9.1875 
Q 16.0625 -11.328125 19.921875 -12.34375 
Q 23.78125 -13.375 27.78125 -13.375 
Q 36.625 -13.375 41.015625 -8.765625 
Q 45.40625 -4.15625 45.40625 5.171875 
L 45.40625 9.625 
Q 42.625 4.78125 38.28125 2.390625 
Q 33.9375 0 27.875 0 
Q 17.828125 0 11.671875 7.65625 
Q 5.515625 15.328125 5.515625 27.984375 
Q 5.515625 40.671875 11.671875 48.328125 
Q 17.828125 56 27.875 56 
Q 33.9375 56 38.28125 53.609375 
Q 42.625 51.21875 45.40625 46.390625 
L 45.40625 54.6875 
L 54.390625 54.6875 
z
" id="DejaVuSans-103"/>
       <path d="M 9.421875 54.6875 
L 18.40625 54.6875 
L 18.40625 0 
L 9.421875 0 
z
M 9.421875 75.984375 
L 18.40625 75.984375 
L 18.40625 64.59375 
L 9.421875 64.59375 
z
" id="DejaVuSans-105"/>
       <path d="M 8.5 21.578125 
L 8.5 54.6875 
L 17.484375 54.6875 
L 17.484375 21.921875 
Q 17.484375 14.15625 20.5 10.265625 
Q 23.53125 6.390625 29.59375 6.390625 
Q 36.859375 6.390625 41.078125 11.03125 
Q 45.3125 15.671875 45.3125 23.6875 
L 45.3125 54.6875 
L 54.296875 54.6875 
L 54.296875 0 
L 45.3125 0 
L 45.3125 8.40625 
Q 42.046875 3.421875 37.71875 1 
Q 33.40625 -1.421875 27.6875 -1.421875 
Q 18.265625 -1.421875 13.375 4.4375 
Q 8.5 10.296875 8.5 21.578125 
z
M 31.109375 56 
z
" id="DejaVuSans-117"/>
       <path d="M 54.890625 33.015625 
L 54.890625 0 
L 45.90625 0 
L 45.90625 32.71875 
Q 45.90625 40.484375 42.875 44.328125 
Q 39.84375 48.1875 33.796875 48.1875 
Q 26.515625 48.1875 22.3125 43.546875 
Q 18.109375 38.921875 18.109375 30.90625 
L 18.109375 0 
L 9.078125 0 
L 9.078125 54.6875 
L 18.109375 54.6875 
L 18.109375 46.1875 
Q 21.34375 51.125 25.703125 53.5625 
Q 30.078125 56 35.796875 56 
Q 45.21875 56 50.046875 50.171875 
Q 54.890625 44.34375 54.890625 33.015625 
z
" id="DejaVuSans-110"/>
       <path d="M 30.609375 48.390625 
Q 23.390625 48.390625 19.1875 42.75 
Q 14.984375 37.109375 14.984375 27.296875 
Q 14.984375 17.484375 19.15625 11.84375 
Q 23.34375 6.203125 30.609375 6.203125 
Q 37.796875 6.203125 41.984375 11.859375 
Q 46.1875 17.53125 46.1875 27.296875 
Q 46.1875 37.015625 41.984375 42.703125 
Q 37.796875 48.390625 30.609375 48.390625 
z
M 30.609375 56 
Q 42.328125 56 49.015625 48.375 
Q 55.71875 40.765625 55.71875 27.296875 
Q 55.71875 13.875 49.015625 6.21875 
Q 42.328125 -1.421875 30.609375 -1.421875 
Q 18.84375 -1.421875 12.171875 6.21875 
Q 5.515625 13.875 5.515625 27.296875 
Q 5.515625 40.765625 12.171875 48.375 
Q 18.84375 56 30.609375 56 
z
" id="DejaVuSans-111"/>
      </defs>
      <g transform="translate(27.439352 348.828438)scale(0.1 -0.1)">
       <use xlink:href="#DejaVuSans-103"/>
       <use x="63.476562" xlink:href="#DejaVuSans-105"/>
       <use x="91.259766" xlink:href="#DejaVuSans-117"/>
       <use x="154.638672" xlink:href="#DejaVuSans-103"/>
       <use x="218.115234" xlink:href="#DejaVuSans-110"/>
       <use x="281.494141" xlink:href="#DejaVuSans-111"/>
      </g>
     </g>
    </g>
    <g id="xtick_2">
     <g id="line2d_2">
      <g>
       <use style="stroke:#000000;stroke-width:0.8;" x="183.932818" xlink:href="#mee100b7664" y="327.73"/>
      </g>
     </g>
     <g id="text_2">
      <!-- luglio -->
      <defs>
       <path d="M 9.421875 75.984375 
L 18.40625 75.984375 
L 18.40625 0 
L 9.421875 0 
z
" id="DejaVuSans-108"/>
      </defs>
      <g transform="translate(170.363287 348.828438)scale(0.1 -0.1)">
       <use xlink:href="#DejaVuSans-108"/>
       <use x="27.783203" xlink:href="#DejaVuSans-117"/>
       <use x="91.162109" xlink:href="#DejaVuSans-103"/>
       <use x="154.638672" xlink:href="#DejaVuSans-108"/>
       <use x="182.421875" xlink:href="#DejaVuSans-105"/>
       <use x="210.205078" xlink:href="#DejaVuSans-111"/>
      </g>
     </g>
    </g>
    <g id="xtick_3">
     <g id="line2d_3">
      <g>
       <use style="stroke:#000000;stroke-width:0.8;" x="327.937212" xlink:href="#mee100b7664" y="327.73"/>
      </g>
     </g>
     <g id="text_3">
      <!-- agosto -->
      <defs>
       <path d="M 34.28125 27.484375 
Q 23.390625 27.484375 19.1875 25 
Q 14.984375 22.515625 14.984375 16.5 
Q 14.984375 11.71875 18.140625 8.90625 
Q 21.296875 6.109375 26.703125 6.109375 
Q 34.1875 6.109375 38.703125 11.40625 
Q 43.21875 16.703125 43.21875 25.484375 
L 43.21875 27.484375 
z
M 52.203125 31.203125 
L 52.203125 0 
L 43.21875 0 
L 43.21875 8.296875 
Q 40.140625 3.328125 35.546875 0.953125 
Q 30.953125 -1.421875 24.3125 -1.421875 
Q 15.921875 -1.421875 10.953125 3.296875 
Q 6 8.015625 6 15.921875 
Q 6 25.140625 12.171875 29.828125 
Q 18.359375 34.515625 30.609375 34.515625 
L 43.21875 34.515625 
L 43.21875 35.40625 
Q 43.21875 41.609375 39.140625 45 
Q 35.0625 48.390625 27.6875 48.390625 
Q 23 48.390625 18.546875 47.265625 
Q 14.109375 46.140625 10.015625 43.890625 
L 10.015625 52.203125 
Q 14.9375 54.109375 19.578125 55.046875 
Q 24.21875 56 28.609375 56 
Q 40.484375 56 46.34375 49.84375 
Q 52.203125 43.703125 52.203125 31.203125 
z
" id="DejaVuSans-97"/>
       <path d="M 44.28125 53.078125 
L 44.28125 44.578125 
Q 40.484375 46.53125 36.375 47.5 
Q 32.28125 48.484375 27.875 48.484375 
Q 21.1875 48.484375 17.84375 46.4375 
Q 14.5 44.390625 14.5 40.28125 
Q 14.5 37.15625 16.890625 35.375 
Q 19.28125 33.59375 26.515625 31.984375 
L 29.59375 31.296875 
Q 39.15625 29.25 43.1875 25.515625 
Q 47.21875 21.78125 47.21875 15.09375 
Q 47.21875 7.46875 41.1875 3.015625 
Q 35.15625 -1.421875 24.609375 -1.421875 
Q 20.21875 -1.421875 15.453125 -0.5625 
Q 10.6875 0.296875 5.421875 2 
L 5.421875 11.28125 
Q 10.40625 8.6875 15.234375 7.390625 
Q 20.0625 6.109375 24.8125 6.109375 
Q 31.15625 6.109375 34.5625 8.28125 
Q 37.984375 10.453125 37.984375 14.40625 
Q 37.984375 18.0625 35.515625 20.015625 
Q 33.0625 21.96875 24.703125 23.78125 
L 21.578125 24.515625 
Q 13.234375 26.265625 9.515625 29.90625 
Q 5.8125 33.546875 5.8125 39.890625 
Q 5.8125 47.609375 11.28125 51.796875 
Q 16.75 56 26.8125 56 
Q 31.78125 56 36.171875 55.265625 
Q 40.578125 54.546875 44.28125 53.078125 
z
" id="DejaVuSans-115"/>
       <path d="M 18.3125 70.21875 
L 18.3125 54.6875 
L 36.8125 54.6875 
L 36.8125 47.703125 
L 18.3125 47.703125 
L 18.3125 18.015625 
Q 18.3125 11.328125 20.140625 9.421875 
Q 21.96875 7.515625 27.59375 7.515625 
L 36.8125 7.515625 
L 36.8125 0 
L 27.59375 0 
Q 17.1875 0 13.234375 3.875 
Q 9.28125 7.765625 9.28125 18.015625 
L 9.28125 47.703125 
L 2.6875 47.703125 
L 2.6875 54.6875 
L 9.28125 54.6875 
L 9.28125 70.21875 
z
" id="DejaVuSans-116"/>
      </defs>
      <g transform="translate(311.015337 348.828438)scale(0.1 -0.1)">
       <use xlink:href="#DejaVuSans-97"/>
       <use x="61.279297" xlink:href="#DejaVuSans-103"/>
       <use x="124.755859" xlink:href="#DejaVuSans-111"/>
       <use x="185.9375" xlink:href="#DejaVuSans-115"/>
       <use x="238.037109" xlink:href="#DejaVuSans-116"/>
       <use x="277.246094" xlink:href="#DejaVuSans-111"/>
      </g>
     </g>
    </g>
    <g id="xtick_4">
     <g id="line2d_4">
      <g>
       <use style="stroke:#000000;stroke-width:0.8;" x="471.941606" xlink:href="#mee100b7664" y="327.73"/>
      </g>
     </g>
     <g id="text_4">
      <!-- settembre -->
      <defs>
       <path d="M 56.203125 29.59375 
L 56.203125 25.203125 
L 14.890625 25.203125 
Q 15.484375 15.921875 20.484375 11.0625 
Q 25.484375 6.203125 34.421875 6.203125 
Q 39.59375 6.203125 44.453125 7.46875 
Q 49.3125 8.734375 54.109375 11.28125 
L 54.109375 2.78125 
Q 49.265625 0.734375 44.1875 -0.34375 
Q 39.109375 -1.421875 33.890625 -1.421875 
Q 20.796875 -1.421875 13.15625 6.1875 
Q 5.515625 13.8125 5.515625 26.8125 
Q 5.515625 40.234375 12.765625 48.109375 
Q 20.015625 56 32.328125 56 
Q 43.359375 56 49.78125 48.890625 
Q 56.203125 41.796875 56.203125 29.59375 
z
M 47.21875 32.234375 
Q 47.125 39.59375 43.09375 43.984375 
Q 39.0625 48.390625 32.421875 48.390625 
Q 24.90625 48.390625 20.390625 44.140625 
Q 15.875 39.890625 15.1875 32.171875 
z
" id="DejaVuSans-101"/>
       <path d="M 52 44.1875 
Q 55.375 50.25 60.0625 53.125 
Q 64.75 56 71.09375 56 
Q 79.640625 56 84.28125 50.015625 
Q 88.921875 44.046875 88.921875 33.015625 
L 88.921875 0 
L 79.890625 0 
L 79.890625 32.71875 
Q 79.890625 40.578125 77.09375 44.375 
Q 74.3125 48.1875 68.609375 48.1875 
Q 61.625 48.1875 57.5625 43.546875 
Q 53.515625 38.921875 53.515625 30.90625 
L 53.515625 0 
L 44.484375 0 
L 44.484375 32.71875 
Q 44.484375 40.625 41.703125 44.40625 
Q 38.921875 48.1875 33.109375 48.1875 
Q 26.21875 48.1875 22.15625 43.53125 
Q 18.109375 38.875 18.109375 30.90625 
L 18.109375 0 
L 9.078125 0 
L 9.078125 54.6875 
L 18.109375 54.6875 
L 18.109375 46.1875 
Q 21.1875 51.21875 25.484375 53.609375 
Q 29.78125 56 35.6875 56 
Q 41.65625 56 45.828125 52.96875 
Q 50 49.953125 52 44.1875 
z
" id="DejaVuSans-109"/>
       <path d="M 48.6875 27.296875 
Q 48.6875 37.203125 44.609375 42.84375 
Q 40.53125 48.484375 33.40625 48.484375 
Q 26.265625 48.484375 22.1875 42.84375 
Q 18.109375 37.203125 18.109375 27.296875 
Q 18.109375 17.390625 22.1875 11.75 
Q 26.265625 6.109375 33.40625 6.109375 
Q 40.53125 6.109375 44.609375 11.75 
Q 48.6875 17.390625 48.6875 27.296875 
z
M 18.109375 46.390625 
Q 20.953125 51.265625 25.265625 53.625 
Q 29.59375 56 35.59375 56 
Q 45.5625 56 51.78125 48.09375 
Q 58.015625 40.1875 58.015625 27.296875 
Q 58.015625 14.40625 51.78125 6.484375 
Q 45.5625 -1.421875 35.59375 -1.421875 
Q 29.59375 -1.421875 25.265625 0.953125 
Q 20.953125 3.328125 18.109375 8.203125 
L 18.109375 0 
L 9.078125 0 
L 9.078125 75.984375 
L 18.109375 75.984375 
z
" id="DejaVuSans-98"/>
       <path d="M 41.109375 46.296875 
Q 39.59375 47.171875 37.8125 47.578125 
Q 36.03125 48 33.890625 48 
Q 26.265625 48 22.1875 43.046875 
Q 18.109375 38.09375 18.109375 28.8125 
L 18.109375 0 
L 9.078125 0 
L 9.078125 54.6875 
L 18.109375 54.6875 
L 18.109375 46.1875 
Q 20.953125 51.171875 25.484375 53.578125 
Q 30.03125 56 36.53125 56 
Q 37.453125 56 38.578125 55.875 
Q 39.703125 55.765625 41.0625 55.515625 
z
" id="DejaVuSans-114"/>
      </defs>
      <g transform="translate(446.199419 348.828438)scale(0.1 -0.1)">
       <use xlink:href="#DejaVuSans-115"/>
       <use x="52.099609" xlink:href="#DejaVuSans-101"/>
       <use x="113.623047" xlink:href="#DejaVuSans-116"/>
       <use x="152.832031" xlink:href="#DejaVuSans-116"/>
       <use x="192.041016" xlink:href="#DejaVuSans-101"/>
       <use x="253.564453" xlink:href="#DejaVuSans-109"/>
       <use x="350.976562" xlink:href="#DejaVuSans-98"/>
       <use x="414.453125" xlink:href="#DejaVuSans-114"/>
       <use x="453.316406" xlink:href="#DejaVuSans-101"/>
      </g>
     </g>
    </g>
   </g>
   <g id="matplotlib.axis_2">
    <g id="ytick_1">
     <g id="line2d_5">
      <path clip-path="url(#pc572649d97)" d="M 33.425 327.73 
L 585.287 327.73 
" style="fill:none;stroke:#b0b0b0;stroke-linecap:square;stroke-width:0.8;"/>
     </g>
     <g id="line2d_6">
      <defs>
       <path d="M 0 0 
L -10 0 
" id="m07a48477e4" style="stroke:#000000;stroke-width:0.8;"/>
      </defs>
      <g>
       <use style="stroke:#000000;stroke-width:0.8;" x="33.425" xlink:href="#m07a48477e4" y="327.73"/>
      </g>
     </g>
     <g id="text_5">
      <!-- 0 -->
      <defs>
       <path d="M 31.78125 66.40625 
Q 24.171875 66.40625 20.328125 58.90625 
Q 16.5 51.421875 16.5 36.375 
Q 16.5 21.390625 20.328125 13.890625 
Q 24.171875 6.390625 31.78125 6.390625 
Q 39.453125 6.390625 43.28125 13.890625 
Q 47.125 21.390625 47.125 36.375 
Q 47.125 51.421875 43.28125 58.90625 
Q 39.453125 66.40625 31.78125 66.40625 
z
M 31.78125 74.21875 
Q 44.046875 74.21875 50.515625 64.515625 
Q 56.984375 54.828125 56.984375 36.375 
Q 56.984375 17.96875 50.515625 8.265625 
Q 44.046875 -1.421875 31.78125 -1.421875 
Q 19.53125 -1.421875 13.0625 8.265625 
Q 6.59375 17.96875 6.59375 36.375 
Q 6.59375 54.828125 13.0625 64.515625 
Q 19.53125 74.21875 31.78125 74.21875 
z
" id="DejaVuSans-48"/>
      </defs>
      <g transform="translate(13.5625 331.529219)scale(0.1 -0.1)">
       <use xlink:href="#DejaVuSans-48"/>
      </g>
     </g>
    </g>
    <g id="ytick_2">
     <g id="line2d_7">
      <path clip-path="url(#pc572649d97)" d="M 33.425 272.825509 
L 585.287 272.825509 
" style="fill:none;stroke:#b0b0b0;stroke-linecap:square;stroke-width:0.8;"/>
     </g>
     <g id="line2d_8">
      <g>
       <use style="stroke:#000000;stroke-width:0.8;" x="33.425" xlink:href="#m07a48477e4" y="272.825509"/>
      </g>
     </g>
     <g id="text_6">
      <!-- 10 -->
      <defs>
       <path d="M 12.40625 8.296875 
L 28.515625 8.296875 
L 28.515625 63.921875 
L 10.984375 60.40625 
L 10.984375 69.390625 
L 28.421875 72.90625 
L 38.28125 72.90625 
L 38.28125 8.296875 
L 54.390625 8.296875 
L 54.390625 0 
L 12.40625 0 
z
" id="DejaVuSans-49"/>
      </defs>
      <g transform="translate(7.2 276.624727)scale(0.1 -0.1)">
       <use xlink:href="#DejaVuSans-49"/>
       <use x="63.623047" xlink:href="#DejaVuSans-48"/>
      </g>
     </g>
    </g>
    <g id="ytick_3">
     <g id="line2d_9">
      <path clip-path="url(#pc572649d97)" d="M 33.425 217.921017 
L 585.287 217.921017 
" style="fill:none;stroke:#b0b0b0;stroke-linecap:square;stroke-width:0.8;"/>
     </g>
     <g id="line2d_10">
      <g>
       <use style="stroke:#000000;stroke-width:0.8;" x="33.425" xlink:href="#m07a48477e4" y="217.921017"/>
      </g>
     </g>
     <g id="text_7">
      <!-- 20 -->
      <defs>
       <path d="M 19.1875 8.296875 
L 53.609375 8.296875 
L 53.609375 0 
L 7.328125 0 
L 7.328125 8.296875 
Q 12.9375 14.109375 22.625 23.890625 
Q 32.328125 33.6875 34.8125 36.53125 
Q 39.546875 41.84375 41.421875 45.53125 
Q 43.3125 49.21875 43.3125 52.78125 
Q 43.3125 58.59375 39.234375 62.25 
Q 35.15625 65.921875 28.609375 65.921875 
Q 23.96875 65.921875 18.8125 64.3125 
Q 13.671875 62.703125 7.8125 59.421875 
L 7.8125 69.390625 
Q 13.765625 71.78125 18.9375 73 
Q 24.125 74.21875 28.421875 74.21875 
Q 39.75 74.21875 46.484375 68.546875 
Q 53.21875 62.890625 53.21875 53.421875 
Q 53.21875 48.921875 51.53125 44.890625 
Q 49.859375 40.875 45.40625 35.40625 
Q 44.1875 33.984375 37.640625 27.21875 
Q 31.109375 20.453125 19.1875 8.296875 
z
" id="DejaVuSans-50"/>
      </defs>
      <g transform="translate(7.2 221.720236)scale(0.1 -0.1)">
       <use xlink:href="#DejaVuSans-50"/>
       <use x="63.623047" xlink:href="#DejaVuSans-48"/>
      </g>
     </g>
    </g>
    <g id="ytick_4">
     <g id="line2d_11">
      <path clip-path="url(#pc572649d97)" d="M 33.425 163.016526 
L 585.287 163.016526 
" style="fill:none;stroke:#b0b0b0;stroke-linecap:square;stroke-width:0.8;"/>
     </g>
     <g id="line2d_12">
      <g>
       <use style="stroke:#000000;stroke-width:0.8;" x="33.425" xlink:href="#m07a48477e4" y="163.016526"/>
      </g>
     </g>
     <g id="text_8">
      <!-- 30 -->
      <defs>
       <path d="M 40.578125 39.3125 
Q 47.65625 37.796875 51.625 33 
Q 55.609375 28.21875 55.609375 21.1875 
Q 55.609375 10.40625 48.1875 4.484375 
Q 40.765625 -1.421875 27.09375 -1.421875 
Q 22.515625 -1.421875 17.65625 -0.515625 
Q 12.796875 0.390625 7.625 2.203125 
L 7.625 11.71875 
Q 11.71875 9.328125 16.59375 8.109375 
Q 21.484375 6.890625 26.8125 6.890625 
Q 36.078125 6.890625 40.9375 10.546875 
Q 45.796875 14.203125 45.796875 21.1875 
Q 45.796875 27.640625 41.28125 31.265625 
Q 36.765625 34.90625 28.71875 34.90625 
L 20.21875 34.90625 
L 20.21875 43.015625 
L 29.109375 43.015625 
Q 36.375 43.015625 40.234375 45.921875 
Q 44.09375 48.828125 44.09375 54.296875 
Q 44.09375 59.90625 40.109375 62.90625 
Q 36.140625 65.921875 28.71875 65.921875 
Q 24.65625 65.921875 20.015625 65.03125 
Q 15.375 64.15625 9.8125 62.3125 
L 9.8125 71.09375 
Q 15.4375 72.65625 20.34375 73.4375 
Q 25.25 74.21875 29.59375 74.21875 
Q 40.828125 74.21875 47.359375 69.109375 
Q 53.90625 64.015625 53.90625 55.328125 
Q 53.90625 49.265625 50.4375 45.09375 
Q 46.96875 40.921875 40.578125 39.3125 
z
" id="DejaVuSans-51"/>
      </defs>
      <g transform="translate(7.2 166.815745)scale(0.1 -0.1)">
       <use xlink:href="#DejaVuSans-51"/>
       <use x="63.623047" xlink:href="#DejaVuSans-48"/>
      </g>
     </g>
    </g>
    <g id="ytick_5">
     <g id="line2d_13">
      <path clip-path="url(#pc572649d97)" d="M 33.425 108.112035 
L 585.287 108.112035 
" style="fill:none;stroke:#b0b0b0;stroke-linecap:square;stroke-width:0.8;"/>
     </g>
     <g id="line2d_14">
      <g>
       <use style="stroke:#000000;stroke-width:0.8;" x="33.425" xlink:href="#m07a48477e4" y="108.112035"/>
      </g>
     </g>
     <g id="text_9">
      <!-- 40 -->
      <defs>
       <path d="M 37.796875 64.3125 
L 12.890625 25.390625 
L 37.796875 25.390625 
z
M 35.203125 72.90625 
L 47.609375 72.90625 
L 47.609375 25.390625 
L 58.015625 25.390625 
L 58.015625 17.1875 
L 47.609375 17.1875 
L 47.609375 0 
L 37.796875 0 
L 37.796875 17.1875 
L 4.890625 17.1875 
L 4.890625 26.703125 
z
" id="DejaVuSans-52"/>
      </defs>
      <g transform="translate(7.2 111.911253)scale(0.1 -0.1)">
       <use xlink:href="#DejaVuSans-52"/>
       <use x="63.623047" xlink:href="#DejaVuSans-48"/>
      </g>
     </g>
    </g>
    <g id="ytick_6">
     <g id="line2d_15">
      <path clip-path="url(#pc572649d97)" d="M 33.425 53.207543 
L 585.287 53.207543 
" style="fill:none;stroke:#b0b0b0;stroke-linecap:square;stroke-width:0.8;"/>
     </g>
     <g id="line2d_16">
      <g>
       <use style="stroke:#000000;stroke-width:0.8;" x="33.425" xlink:href="#m07a48477e4" y="53.207543"/>
      </g>
     </g>
     <g id="text_10">
      <!-- 50 -->
      <defs>
       <path d="M 10.796875 72.90625 
L 49.515625 72.90625 
L 49.515625 64.59375 
L 19.828125 64.59375 
L 19.828125 46.734375 
Q 21.96875 47.46875 24.109375 47.828125 
Q 26.265625 48.1875 28.421875 48.1875 
Q 40.625 48.1875 47.75 41.5 
Q 54.890625 34.8125 54.890625 23.390625 
Q 54.890625 11.625 47.5625 5.09375 
Q 40.234375 -1.421875 26.90625 -1.421875 
Q 22.3125 -1.421875 17.546875 -0.640625 
Q 12.796875 0.140625 7.71875 1.703125 
L 7.71875 11.625 
Q 12.109375 9.234375 16.796875 8.0625 
Q 21.484375 6.890625 26.703125 6.890625 
Q 35.15625 6.890625 40.078125 11.328125 
Q 45.015625 15.765625 45.015625 23.390625 
Q 45.015625 31 40.078125 35.4375 
Q 35.15625 39.890625 26.703125 39.890625 
Q 22.75 39.890625 18.8125 39.015625 
Q 14.890625 38.140625 10.796875 36.28125 
z
" id="DejaVuSans-53"/>
      </defs>
      <g transform="translate(7.2 57.006762)scale(0.1 -0.1)">
       <use xlink:href="#DejaVuSans-53"/>
       <use x="63.623047" xlink:href="#DejaVuSans-48"/>
      </g>
     </g>
    </g>
   </g>
   <g id="line2d_17">
    <path clip-path="url(#pc572649d97)" d="M 156.061 327.73 
L 179.287515 323.063118 
L 211.804636 323.886686 
L 221.095242 322.10229 
L 244.321758 322.019933 
L 323.291909 322.422566 
L 346.518424 321.612071 
L 351.163727 321.347353 
L 355.80903 321.080456 
L 458.005697 320.372798 
L 467.296303 320.043371 
L 467.296303 320.409401 
L 471.941606 320.296777 
" style="fill:none;stroke:#a90000;stroke-linecap:square;stroke-width:1.5;"/>
   </g>
   <g id="line2d_18">
    <path clip-path="url(#pc572649d97)" d="M 471.941606 320.296777 
L 560.202364 320.296777 
" style="fill:none;stroke:#a90000;stroke-dasharray:5.55,2.4;stroke-dashoffset:0;stroke-width:1.5;"/>
   </g>
   <g id="line2d_19">
    <path clip-path="url(#pc572649d97)" d="M 471.941606 316.364096 
L 560.202364 316.364096 
" style="fill:none;stroke:#a90000;stroke-dasharray:0.7,1.155;stroke-dashoffset:0;stroke-width:0.7;"/>
   </g>
   <g id="line2d_20">
    <path clip-path="url(#pc572649d97)" d="M 471.941606 324.229457 
L 560.202364 324.229457 
" style="fill:none;stroke:#a90000;stroke-dasharray:0.7,1.155;stroke-dashoffset:0;stroke-width:0.7;"/>
   </g>
   <g id="line2d_21">
    <path clip-path="url(#pc572649d97)" d="M 156.061 305.768203 
L 179.287515 306.866293 
L 211.804636 306.134233 
L 221.095242 304.670114 
L 244.321758 305.878012 
L 323.291909 308.238906 
L 346.518424 307.101598 
L 351.163727 306.591771 
L 355.80903 306.378253 
L 379.035545 307.360434 
L 458.005697 307.714817 
L 467.296303 307.552599 
L 467.296303 308.42896 
L 471.941606 307.964383 
" style="fill:none;stroke:#a33475;stroke-linecap:square;stroke-width:1.5;"/>
   </g>
   <g id="line2d_22">
    <path clip-path="url(#pc572649d97)" d="M 471.941606 307.964383 
L 560.202364 307.964383 
" style="fill:none;stroke:#a33475;stroke-dasharray:5.55,2.4;stroke-dashoffset:0;stroke-width:1.5;"/>
   </g>
   <g id="line2d_23">
    <path clip-path="url(#pc572649d97)" d="M 471.941606 301.624902 
L 560.202364 301.624902 
" style="fill:none;stroke:#a33475;stroke-dasharray:0.7,1.155;stroke-dashoffset:0;stroke-width:0.7;"/>
   </g>
   <g id="line2d_24">
    <path clip-path="url(#pc572649d97)" d="M 471.941606 314.303864 
L 560.202364 314.303864 
" style="fill:none;stroke:#a33475;stroke-dasharray:0.7,1.155;stroke-dashoffset:0;stroke-width:0.7;"/>
   </g>
   <g id="line2d_25">
    <path clip-path="url(#pc572649d97)" d="M 156.061 267.33506 
L 179.287515 250.58919 
L 211.804636 245.739293 
L 221.095242 249.765622 
L 244.321758 231.207904 
L 323.291909 237.412112 
L 346.518424 240.902469 
L 351.163727 241.461318 
L 355.80903 240.858894 
L 379.035545 240.706381 
L 458.005697 242.378473 
L 467.296303 242.170501 
L 467.296303 242.163462 
L 471.941606 242.039776 
" style="fill:none;stroke:#eec911;stroke-linecap:square;stroke-width:1.5;"/>
   </g>
   <g id="line2d_26">
    <path clip-path="url(#pc572649d97)" d="M 471.941606 242.039776 
L 560.202364 241.958486 
" style="fill:none;stroke:#eec911;stroke-dasharray:5.55,2.4;stroke-dashoffset:0;stroke-width:1.5;"/>
   </g>
   <g id="line2d_27">
    <path clip-path="url(#pc572649d97)" d="M 471.941606 229.689448 
L 560.202364 229.608158 
" style="fill:none;stroke:#eec911;stroke-dasharray:0.7,1.155;stroke-dashoffset:0;stroke-width:0.7;"/>
   </g>
   <g id="line2d_28">
    <path clip-path="url(#pc572649d97)" d="M 471.941606 254.390104 
L 560.202364 254.308814 
" style="fill:none;stroke:#eec911;stroke-dasharray:0.7,1.155;stroke-dashoffset:0;stroke-width:0.7;"/>
   </g>
   <g id="line2d_29">
    <path clip-path="url(#pc572649d97)" d="M 58.509636 121.838157 
L 58.509636 124.583382 
L 156.061 122.753232 
L 179.287515 119.367455 
L 211.804636 115.908472 
L 221.095242 116.896753 
L 244.321758 119.955718 
L 323.291909 126.505039 
L 346.518424 125.986497 
L 351.163727 125.846185 
L 355.80903 124.832948 
L 379.035545 122.387202 
L 458.005697 121.922626 
L 467.296303 121.32833 
L 467.296303 120.583198 
L 471.941606 119.75963 
" style="fill:none;stroke:#f55916;stroke-linecap:square;stroke-width:1.5;"/>
   </g>
   <g id="line2d_30">
    <path clip-path="url(#pc572649d97)" d="M 471.941606 119.75963 
L 560.202364 122.238079 
" style="fill:none;stroke:#f55916;stroke-dasharray:5.55,2.4;stroke-dashoffset:0;stroke-width:1.5;"/>
   </g>
   <g id="line2d_31">
    <path clip-path="url(#pc572649d97)" d="M 471.941606 103.252125 
L 560.202364 105.730574 
" style="fill:none;stroke:#f55916;stroke-dasharray:0.7,1.155;stroke-dashoffset:0;stroke-width:0.7;"/>
   </g>
   <g id="line2d_32">
    <path clip-path="url(#pc572649d97)" d="M 471.941606 136.267136 
L 560.202364 138.745585 
" style="fill:none;stroke:#f55916;stroke-dasharray:0.7,1.155;stroke-dashoffset:0;stroke-width:0.7;"/>
   </g>
   <g id="line2d_33">
    <path clip-path="url(#pc572649d97)" d="M 58.509636 80.659789 
L 58.509636 84.777626 
L 156.061 83.405014 
L 179.287515 92.601516 
L 211.804636 98.339035 
L 221.095242 96.765106 
L 244.321758 106.072725 
L 323.291909 116.347708 
L 346.518424 113.297459 
L 351.163727 111.680827 
L 355.80903 112.304741 
L 379.035545 112.916178 
L 458.005697 111.06843 
L 467.296303 110.465084 
L 467.296303 112.033784 
L 471.941606 114.112311 
" style="fill:none;stroke:#507cd4;stroke-linecap:square;stroke-width:1.5;"/>
   </g>
   <g id="line2d_34">
    <path clip-path="url(#pc572649d97)" d="M 471.941606 114.112311 
L 560.202364 112.642499 
" style="fill:none;stroke:#507cd4;stroke-dasharray:5.55,2.4;stroke-dashoffset:0;stroke-width:1.5;"/>
   </g>
   <g id="line2d_35">
    <path clip-path="url(#pc572649d97)" d="M 471.941606 97.521263 
L 560.202364 96.051451 
" style="fill:none;stroke:#507cd4;stroke-dasharray:0.7,1.155;stroke-dashoffset:0;stroke-width:0.7;"/>
   </g>
   <g id="line2d_36">
    <path clip-path="url(#pc572649d97)" d="M 471.941606 130.70336 
L 560.202364 129.233547 
" style="fill:none;stroke:#507cd4;stroke-dasharray:0.7,1.155;stroke-dashoffset:0;stroke-width:0.7;"/>
   </g>
   <g id="patch_3">
    <path d="M 33.425 327.73 
L 585.287 327.73 
" style="fill:none;stroke:#000000;stroke-linecap:square;stroke-linejoin:miter;stroke-width:0.8;"/>
   </g>
   <g id="text_11">
    <!-- Conca: 1% (±0.7%) -->
    <defs>
     <path d="M 64.40625 67.28125 
L 64.40625 56.890625 
Q 59.421875 61.53125 53.78125 63.8125 
Q 48.140625 66.109375 41.796875 66.109375 
Q 29.296875 66.109375 22.65625 58.46875 
Q 16.015625 50.828125 16.015625 36.375 
Q 16.015625 21.96875 22.65625 14.328125 
Q 29.296875 6.6875 41.796875 6.6875 
Q 48.140625 6.6875 53.78125 8.984375 
Q 59.421875 11.28125 64.40625 15.921875 
L 64.40625 5.609375 
Q 59.234375 2.09375 53.4375 0.328125 
Q 47.65625 -1.421875 41.21875 -1.421875 
Q 24.65625 -1.421875 15.125 8.703125 
Q 5.609375 18.84375 5.609375 36.375 
Q 5.609375 53.953125 15.125 64.078125 
Q 24.65625 74.21875 41.21875 74.21875 
Q 47.75 74.21875 53.53125 72.484375 
Q 59.328125 70.75 64.40625 67.28125 
z
" id="DejaVuSans-67"/>
     <path d="M 48.78125 52.59375 
L 48.78125 44.1875 
Q 44.96875 46.296875 41.140625 47.34375 
Q 37.3125 48.390625 33.40625 48.390625 
Q 24.65625 48.390625 19.8125 42.84375 
Q 14.984375 37.3125 14.984375 27.296875 
Q 14.984375 17.28125 19.8125 11.734375 
Q 24.65625 6.203125 33.40625 6.203125 
Q 37.3125 6.203125 41.140625 7.25 
Q 44.96875 8.296875 48.78125 10.40625 
L 48.78125 2.09375 
Q 45.015625 0.34375 40.984375 -0.53125 
Q 36.96875 -1.421875 32.421875 -1.421875 
Q 20.0625 -1.421875 12.78125 6.34375 
Q 5.515625 14.109375 5.515625 27.296875 
Q 5.515625 40.671875 12.859375 48.328125 
Q 20.21875 56 33.015625 56 
Q 37.15625 56 41.109375 55.140625 
Q 45.0625 54.296875 48.78125 52.59375 
z
" id="DejaVuSans-99"/>
     <path d="M 11.71875 12.40625 
L 22.015625 12.40625 
L 22.015625 0 
L 11.71875 0 
z
M 11.71875 51.703125 
L 22.015625 51.703125 
L 22.015625 39.3125 
L 11.71875 39.3125 
z
" id="DejaVuSans-58"/>
     <path id="DejaVuSans-32"/>
     <path d="M 72.703125 32.078125 
Q 68.453125 32.078125 66.03125 28.46875 
Q 63.625 24.859375 63.625 18.40625 
Q 63.625 12.0625 66.03125 8.421875 
Q 68.453125 4.78125 72.703125 4.78125 
Q 76.859375 4.78125 79.265625 8.421875 
Q 81.6875 12.0625 81.6875 18.40625 
Q 81.6875 24.8125 79.265625 28.4375 
Q 76.859375 32.078125 72.703125 32.078125 
z
M 72.703125 38.28125 
Q 80.421875 38.28125 84.953125 32.90625 
Q 89.5 27.546875 89.5 18.40625 
Q 89.5 9.28125 84.9375 3.921875 
Q 80.375 -1.421875 72.703125 -1.421875 
Q 64.890625 -1.421875 60.34375 3.921875 
Q 55.8125 9.28125 55.8125 18.40625 
Q 55.8125 27.59375 60.375 32.9375 
Q 64.9375 38.28125 72.703125 38.28125 
z
M 22.3125 68.015625 
Q 18.109375 68.015625 15.6875 64.375 
Q 13.28125 60.75 13.28125 54.390625 
Q 13.28125 47.953125 15.671875 44.328125 
Q 18.0625 40.71875 22.3125 40.71875 
Q 26.5625 40.71875 28.96875 44.328125 
Q 31.390625 47.953125 31.390625 54.390625 
Q 31.390625 60.6875 28.953125 64.34375 
Q 26.515625 68.015625 22.3125 68.015625 
z
M 66.40625 74.21875 
L 74.21875 74.21875 
L 28.609375 -1.421875 
L 20.796875 -1.421875 
z
M 22.3125 74.21875 
Q 30.03125 74.21875 34.609375 68.875 
Q 39.203125 63.53125 39.203125 54.390625 
Q 39.203125 45.171875 34.640625 39.84375 
Q 30.078125 34.515625 22.3125 34.515625 
Q 14.546875 34.515625 10.03125 39.859375 
Q 5.515625 45.21875 5.515625 54.390625 
Q 5.515625 63.484375 10.046875 68.84375 
Q 14.59375 74.21875 22.3125 74.21875 
z
" id="DejaVuSans-37"/>
     <path d="M 31 75.875 
Q 24.46875 64.65625 21.28125 53.65625 
Q 18.109375 42.671875 18.109375 31.390625 
Q 18.109375 20.125 21.3125 9.0625 
Q 24.515625 -2 31 -13.1875 
L 23.1875 -13.1875 
Q 15.875 -1.703125 12.234375 9.375 
Q 8.59375 20.453125 8.59375 31.390625 
Q 8.59375 42.28125 12.203125 53.3125 
Q 15.828125 64.359375 23.1875 75.875 
z
" id="DejaVuSans-40"/>
     <path d="M 46 62.703125 
L 46 43.796875 
L 73.1875 43.796875 
L 73.1875 35.5 
L 46 35.5 
L 46 16.609375 
L 37.796875 16.609375 
L 37.796875 35.5 
L 10.59375 35.5 
L 10.59375 43.796875 
L 37.796875 43.796875 
L 37.796875 62.703125 
z
M 10.59375 8.296875 
L 73.1875 8.296875 
L 73.1875 0 
L 10.59375 0 
z
" id="DejaVuSans-177"/>
     <path d="M 10.6875 12.40625 
L 21 12.40625 
L 21 0 
L 10.6875 0 
z
" id="DejaVuSans-46"/>
     <path d="M 8.203125 72.90625 
L 55.078125 72.90625 
L 55.078125 68.703125 
L 28.609375 0 
L 18.3125 0 
L 43.21875 64.59375 
L 8.203125 64.59375 
z
" id="DejaVuSans-55"/>
     <path d="M 8.015625 75.875 
L 15.828125 75.875 
Q 23.140625 64.359375 26.78125 53.3125 
Q 30.421875 42.28125 30.421875 31.390625 
Q 30.421875 20.453125 26.78125 9.375 
Q 23.140625 -1.703125 15.828125 -13.1875 
L 8.015625 -13.1875 
Q 14.5 -2 17.703125 9.0625 
Q 20.90625 20.125 20.90625 31.390625 
Q 20.90625 42.671875 17.703125 53.65625 
Q 14.5 64.65625 8.015625 75.875 
z
" id="DejaVuSans-41"/>
    </defs>
    <g style="fill:#a90000;" transform="translate(569.49297 323.591046)scale(0.12 -0.12)">
     <use xlink:href="#DejaVuSans-67"/>
     <use x="69.824219" xlink:href="#DejaVuSans-111"/>
     <use x="131.005859" xlink:href="#DejaVuSans-110"/>
     <use x="194.384766" xlink:href="#DejaVuSans-99"/>
     <use x="249.365234" xlink:href="#DejaVuSans-97"/>
     <use x="310.644531" xlink:href="#DejaVuSans-58"/>
     <use x="344.335938" xlink:href="#DejaVuSans-32"/>
     <use x="376.123047" xlink:href="#DejaVuSans-49"/>
     <use x="439.746094" xlink:href="#DejaVuSans-37"/>
     <use x="534.765625" xlink:href="#DejaVuSans-32"/>
     <use x="566.552734" xlink:href="#DejaVuSans-40"/>
     <use x="605.566406" xlink:href="#DejaVuSans-177"/>
     <use x="689.355469" xlink:href="#DejaVuSans-48"/>
     <use x="752.978516" xlink:href="#DejaVuSans-46"/>
     <use x="784.765625" xlink:href="#DejaVuSans-55"/>
     <use x="848.388672" xlink:href="#DejaVuSans-37"/>
     <use x="943.408203" xlink:href="#DejaVuSans-41"/>
    </g>
   </g>
   <g id="text_12">
    <!-- Scalfarotto: 4% (±1.2%) -->
    <defs>
     <path d="M 53.515625 70.515625 
L 53.515625 60.890625 
Q 47.90625 63.578125 42.921875 64.890625 
Q 37.9375 66.21875 33.296875 66.21875 
Q 25.25 66.21875 20.875 63.09375 
Q 16.5 59.96875 16.5 54.203125 
Q 16.5 49.359375 19.40625 46.890625 
Q 22.3125 44.4375 30.421875 42.921875 
L 36.375 41.703125 
Q 47.40625 39.59375 52.65625 34.296875 
Q 57.90625 29 57.90625 20.125 
Q 57.90625 9.515625 50.796875 4.046875 
Q 43.703125 -1.421875 29.984375 -1.421875 
Q 24.8125 -1.421875 18.96875 -0.25 
Q 13.140625 0.921875 6.890625 3.21875 
L 6.890625 13.375 
Q 12.890625 10.015625 18.65625 8.296875 
Q 24.421875 6.59375 29.984375 6.59375 
Q 38.421875 6.59375 43.015625 9.90625 
Q 47.609375 13.234375 47.609375 19.390625 
Q 47.609375 24.75 44.3125 27.78125 
Q 41.015625 30.8125 33.5 32.328125 
L 27.484375 33.5 
Q 16.453125 35.6875 11.515625 40.375 
Q 6.59375 45.0625 6.59375 53.421875 
Q 6.59375 63.09375 13.40625 68.65625 
Q 20.21875 74.21875 32.171875 74.21875 
Q 37.3125 74.21875 42.625 73.28125 
Q 47.953125 72.359375 53.515625 70.515625 
z
" id="DejaVuSans-83"/>
     <path d="M 37.109375 75.984375 
L 37.109375 68.5 
L 28.515625 68.5 
Q 23.6875 68.5 21.796875 66.546875 
Q 19.921875 64.59375 19.921875 59.515625 
L 19.921875 54.6875 
L 34.71875 54.6875 
L 34.71875 47.703125 
L 19.921875 47.703125 
L 19.921875 0 
L 10.890625 0 
L 10.890625 47.703125 
L 2.296875 47.703125 
L 2.296875 54.6875 
L 10.890625 54.6875 
L 10.890625 58.5 
Q 10.890625 67.625 15.140625 71.796875 
Q 19.390625 75.984375 28.609375 75.984375 
z
" id="DejaVuSans-102"/>
    </defs>
    <g style="fill:#a33475;" transform="translate(569.49297 311.258653)scale(0.12 -0.12)">
     <use xlink:href="#DejaVuSans-83"/>
     <use x="63.476562" xlink:href="#DejaVuSans-99"/>
     <use x="118.457031" xlink:href="#DejaVuSans-97"/>
     <use x="179.736328" xlink:href="#DejaVuSans-108"/>
     <use x="207.519531" xlink:href="#DejaVuSans-102"/>
     <use x="242.724609" xlink:href="#DejaVuSans-97"/>
     <use x="304.003906" xlink:href="#DejaVuSans-114"/>
     <use x="342.867188" xlink:href="#DejaVuSans-111"/>
     <use x="404.048828" xlink:href="#DejaVuSans-116"/>
     <use x="443.257812" xlink:href="#DejaVuSans-116"/>
     <use x="482.466797" xlink:href="#DejaVuSans-111"/>
     <use x="543.648438" xlink:href="#DejaVuSans-58"/>
     <use x="577.339844" xlink:href="#DejaVuSans-32"/>
     <use x="609.126953" xlink:href="#DejaVuSans-52"/>
     <use x="672.75" xlink:href="#DejaVuSans-37"/>
     <use x="767.769531" xlink:href="#DejaVuSans-32"/>
     <use x="799.556641" xlink:href="#DejaVuSans-40"/>
     <use x="838.570312" xlink:href="#DejaVuSans-177"/>
     <use x="922.359375" xlink:href="#DejaVuSans-49"/>
     <use x="985.982422" xlink:href="#DejaVuSans-46"/>
     <use x="1017.769531" xlink:href="#DejaVuSans-50"/>
     <use x="1081.392578" xlink:href="#DejaVuSans-37"/>
     <use x="1176.412109" xlink:href="#DejaVuSans-41"/>
    </g>
   </g>
   <g id="text_13">
    <!-- Laricchia: 16% (±2.2%) -->
    <defs>
     <path d="M 9.8125 72.90625 
L 19.671875 72.90625 
L 19.671875 8.296875 
L 55.171875 8.296875 
L 55.171875 0 
L 9.8125 0 
z
" id="DejaVuSans-76"/>
     <path d="M 54.890625 33.015625 
L 54.890625 0 
L 45.90625 0 
L 45.90625 32.71875 
Q 45.90625 40.484375 42.875 44.328125 
Q 39.84375 48.1875 33.796875 48.1875 
Q 26.515625 48.1875 22.3125 43.546875 
Q 18.109375 38.921875 18.109375 30.90625 
L 18.109375 0 
L 9.078125 0 
L 9.078125 75.984375 
L 18.109375 75.984375 
L 18.109375 46.1875 
Q 21.34375 51.125 25.703125 53.5625 
Q 30.078125 56 35.796875 56 
Q 45.21875 56 50.046875 50.171875 
Q 54.890625 44.34375 54.890625 33.015625 
z
" id="DejaVuSans-104"/>
     <path d="M 33.015625 40.375 
Q 26.375 40.375 22.484375 35.828125 
Q 18.609375 31.296875 18.609375 23.390625 
Q 18.609375 15.53125 22.484375 10.953125 
Q 26.375 6.390625 33.015625 6.390625 
Q 39.65625 6.390625 43.53125 10.953125 
Q 47.40625 15.53125 47.40625 23.390625 
Q 47.40625 31.296875 43.53125 35.828125 
Q 39.65625 40.375 33.015625 40.375 
z
M 52.59375 71.296875 
L 52.59375 62.3125 
Q 48.875 64.0625 45.09375 64.984375 
Q 41.3125 65.921875 37.59375 65.921875 
Q 27.828125 65.921875 22.671875 59.328125 
Q 17.53125 52.734375 16.796875 39.40625 
Q 19.671875 43.65625 24.015625 45.921875 
Q 28.375 48.1875 33.59375 48.1875 
Q 44.578125 48.1875 50.953125 41.515625 
Q 57.328125 34.859375 57.328125 23.390625 
Q 57.328125 12.15625 50.6875 5.359375 
Q 44.046875 -1.421875 33.015625 -1.421875 
Q 20.359375 -1.421875 13.671875 8.265625 
Q 6.984375 17.96875 6.984375 36.375 
Q 6.984375 53.65625 15.1875 63.9375 
Q 23.390625 74.21875 37.203125 74.21875 
Q 40.921875 74.21875 44.703125 73.484375 
Q 48.484375 72.75 52.59375 71.296875 
z
" id="DejaVuSans-54"/>
    </defs>
    <g style="fill:#eec911;" transform="translate(569.49297 245.252755)scale(0.12 -0.12)">
     <use xlink:href="#DejaVuSans-76"/>
     <use x="55.712891" xlink:href="#DejaVuSans-97"/>
     <use x="116.992188" xlink:href="#DejaVuSans-114"/>
     <use x="158.105469" xlink:href="#DejaVuSans-105"/>
     <use x="185.888672" xlink:href="#DejaVuSans-99"/>
     <use x="240.869141" xlink:href="#DejaVuSans-99"/>
     <use x="295.849609" xlink:href="#DejaVuSans-104"/>
     <use x="359.228516" xlink:href="#DejaVuSans-105"/>
     <use x="387.011719" xlink:href="#DejaVuSans-97"/>
     <use x="448.291016" xlink:href="#DejaVuSans-58"/>
     <use x="481.982422" xlink:href="#DejaVuSans-32"/>
     <use x="513.769531" xlink:href="#DejaVuSans-49"/>
     <use x="577.392578" xlink:href="#DejaVuSans-54"/>
     <use x="641.015625" xlink:href="#DejaVuSans-37"/>
     <use x="736.035156" xlink:href="#DejaVuSans-32"/>
     <use x="767.822266" xlink:href="#DejaVuSans-40"/>
     <use x="806.835938" xlink:href="#DejaVuSans-177"/>
     <use x="890.625" xlink:href="#DejaVuSans-50"/>
     <use x="954.248047" xlink:href="#DejaVuSans-46"/>
     <use x="986.035156" xlink:href="#DejaVuSans-50"/>
     <use x="1049.658203" xlink:href="#DejaVuSans-37"/>
     <use x="1144.677734" xlink:href="#DejaVuSans-41"/>
    </g>
   </g>
   <g id="text_14">
    <!-- Emiliano: 38% (±3.0%) -->
    <defs>
     <path d="M 9.8125 72.90625 
L 55.90625 72.90625 
L 55.90625 64.59375 
L 19.671875 64.59375 
L 19.671875 43.015625 
L 54.390625 43.015625 
L 54.390625 34.71875 
L 19.671875 34.71875 
L 19.671875 8.296875 
L 56.78125 8.296875 
L 56.78125 0 
L 9.8125 0 
z
" id="DejaVuSans-69"/>
     <path d="M 31.78125 34.625 
Q 24.75 34.625 20.71875 30.859375 
Q 16.703125 27.09375 16.703125 20.515625 
Q 16.703125 13.921875 20.71875 10.15625 
Q 24.75 6.390625 31.78125 6.390625 
Q 38.8125 6.390625 42.859375 10.171875 
Q 46.921875 13.96875 46.921875 20.515625 
Q 46.921875 27.09375 42.890625 30.859375 
Q 38.875 34.625 31.78125 34.625 
z
M 21.921875 38.8125 
Q 15.578125 40.375 12.03125 44.71875 
Q 8.5 49.078125 8.5 55.328125 
Q 8.5 64.0625 14.71875 69.140625 
Q 20.953125 74.21875 31.78125 74.21875 
Q 42.671875 74.21875 48.875 69.140625 
Q 55.078125 64.0625 55.078125 55.328125 
Q 55.078125 49.078125 51.53125 44.71875 
Q 48 40.375 41.703125 38.8125 
Q 48.828125 37.15625 52.796875 32.3125 
Q 56.78125 27.484375 56.78125 20.515625 
Q 56.78125 9.90625 50.3125 4.234375 
Q 43.84375 -1.421875 31.78125 -1.421875 
Q 19.734375 -1.421875 13.25 4.234375 
Q 6.78125 9.90625 6.78125 20.515625 
Q 6.78125 27.484375 10.78125 32.3125 
Q 14.796875 37.15625 21.921875 38.8125 
z
M 18.3125 54.390625 
Q 18.3125 48.734375 21.84375 45.5625 
Q 25.390625 42.390625 31.78125 42.390625 
Q 38.140625 42.390625 41.71875 45.5625 
Q 45.3125 48.734375 45.3125 54.390625 
Q 45.3125 60.0625 41.71875 63.234375 
Q 38.140625 66.40625 31.78125 66.40625 
Q 25.390625 66.40625 21.84375 63.234375 
Q 18.3125 60.0625 18.3125 54.390625 
z
" id="DejaVuSans-56"/>
    </defs>
    <g style="fill:#f55916;" transform="translate(569.49297 125.532349)scale(0.12 -0.12)">
     <use xlink:href="#DejaVuSans-69"/>
     <use x="63.183594" xlink:href="#DejaVuSans-109"/>
     <use x="160.595703" xlink:href="#DejaVuSans-105"/>
     <use x="188.378906" xlink:href="#DejaVuSans-108"/>
     <use x="216.162109" xlink:href="#DejaVuSans-105"/>
     <use x="243.945312" xlink:href="#DejaVuSans-97"/>
     <use x="305.224609" xlink:href="#DejaVuSans-110"/>
     <use x="368.603516" xlink:href="#DejaVuSans-111"/>
     <use x="429.785156" xlink:href="#DejaVuSans-58"/>
     <use x="463.476562" xlink:href="#DejaVuSans-32"/>
     <use x="495.263672" xlink:href="#DejaVuSans-51"/>
     <use x="558.886719" xlink:href="#DejaVuSans-56"/>
     <use x="622.509766" xlink:href="#DejaVuSans-37"/>
     <use x="717.529297" xlink:href="#DejaVuSans-32"/>
     <use x="749.316406" xlink:href="#DejaVuSans-40"/>
     <use x="788.330078" xlink:href="#DejaVuSans-177"/>
     <use x="872.119141" xlink:href="#DejaVuSans-51"/>
     <use x="935.742188" xlink:href="#DejaVuSans-46"/>
     <use x="967.529297" xlink:href="#DejaVuSans-48"/>
     <use x="1031.152344" xlink:href="#DejaVuSans-37"/>
     <use x="1126.171875" xlink:href="#DejaVuSans-41"/>
    </g>
   </g>
   <g id="text_15">
    <!-- Fitto: 39% (±3.0%) -->
    <defs>
     <path d="M 9.8125 72.90625 
L 51.703125 72.90625 
L 51.703125 64.59375 
L 19.671875 64.59375 
L 19.671875 43.109375 
L 48.578125 43.109375 
L 48.578125 34.8125 
L 19.671875 34.8125 
L 19.671875 0 
L 9.8125 0 
z
" id="DejaVuSans-70"/>
     <path d="M 10.984375 1.515625 
L 10.984375 10.5 
Q 14.703125 8.734375 18.5 7.8125 
Q 22.3125 6.890625 25.984375 6.890625 
Q 35.75 6.890625 40.890625 13.453125 
Q 46.046875 20.015625 46.78125 33.40625 
Q 43.953125 29.203125 39.59375 26.953125 
Q 35.25 24.703125 29.984375 24.703125 
Q 19.046875 24.703125 12.671875 31.3125 
Q 6.296875 37.9375 6.296875 49.421875 
Q 6.296875 60.640625 12.9375 67.421875 
Q 19.578125 74.21875 30.609375 74.21875 
Q 43.265625 74.21875 49.921875 64.515625 
Q 56.59375 54.828125 56.59375 36.375 
Q 56.59375 19.140625 48.40625 8.859375 
Q 40.234375 -1.421875 26.421875 -1.421875 
Q 22.703125 -1.421875 18.890625 -0.6875 
Q 15.09375 0.046875 10.984375 1.515625 
z
M 30.609375 32.421875 
Q 37.25 32.421875 41.125 36.953125 
Q 45.015625 41.5 45.015625 49.421875 
Q 45.015625 57.28125 41.125 61.84375 
Q 37.25 66.40625 30.609375 66.40625 
Q 23.96875 66.40625 20.09375 61.84375 
Q 16.21875 57.28125 16.21875 49.421875 
Q 16.21875 41.5 20.09375 36.953125 
Q 23.96875 32.421875 30.609375 32.421875 
z
" id="DejaVuSans-57"/>
    </defs>
    <g style="fill:#507cd4;" transform="translate(569.49297 115.936769)scale(0.12 -0.12)">
     <use xlink:href="#DejaVuSans-70"/>
     <use x="50.269531" xlink:href="#DejaVuSans-105"/>
     <use x="78.052734" xlink:href="#DejaVuSans-116"/>
     <use x="117.261719" xlink:href="#DejaVuSans-116"/>
     <use x="156.470703" xlink:href="#DejaVuSans-111"/>
     <use x="217.652344" xlink:href="#DejaVuSans-58"/>
     <use x="251.34375" xlink:href="#DejaVuSans-32"/>
     <use x="283.130859" xlink:href="#DejaVuSans-51"/>
     <use x="346.753906" xlink:href="#DejaVuSans-57"/>
     <use x="410.376953" xlink:href="#DejaVuSans-37"/>
     <use x="505.396484" xlink:href="#DejaVuSans-32"/>
     <use x="537.183594" xlink:href="#DejaVuSans-40"/>
     <use x="576.197266" xlink:href="#DejaVuSans-177"/>
     <use x="659.986328" xlink:href="#DejaVuSans-51"/>
     <use x="723.609375" xlink:href="#DejaVuSans-46"/>
     <use x="755.396484" xlink:href="#DejaVuSans-48"/>
     <use x="819.019531" xlink:href="#DejaVuSans-37"/>
     <use x="914.039062" xlink:href="#DejaVuSans-41"/>
    </g>
   </g>
   <g id="text_16">
    <!-- Trend sondaggi dei vari candidati -->
    <defs>
     <path d="M 0.484375 72.90625 
L 67.671875 72.90625 
L 67.671875 58.6875 
L 43.5 58.6875 
L 43.5 0 
L 24.703125 0 
L 24.703125 58.6875 
L 0.484375 58.6875 
z
" id="DejaVuSans-Bold-84"/>
     <path d="M 49.03125 39.796875 
Q 46.734375 40.875 44.453125 41.375 
Q 42.1875 41.890625 39.890625 41.890625 
Q 33.15625 41.890625 29.515625 37.5625 
Q 25.875 33.25 25.875 25.203125 
L 25.875 0 
L 8.40625 0 
L 8.40625 54.6875 
L 25.875 54.6875 
L 25.875 45.703125 
Q 29.25 51.078125 33.609375 53.53125 
Q 37.984375 56 44.09375 56 
Q 44.96875 56 45.984375 55.921875 
Q 47.015625 55.859375 48.96875 55.609375 
z
" id="DejaVuSans-Bold-114"/>
     <path d="M 62.984375 27.484375 
L 62.984375 22.515625 
L 22.125 22.515625 
Q 22.75 16.359375 26.5625 13.28125 
Q 30.375 10.203125 37.203125 10.203125 
Q 42.71875 10.203125 48.5 11.84375 
Q 54.296875 13.484375 60.40625 16.796875 
L 60.40625 3.328125 
Q 54.203125 0.984375 48 -0.21875 
Q 41.796875 -1.421875 35.59375 -1.421875 
Q 20.75 -1.421875 12.515625 6.125 
Q 4.296875 13.671875 4.296875 27.296875 
Q 4.296875 40.671875 12.375 48.328125 
Q 20.453125 56 34.625 56 
Q 47.515625 56 55.25 48.234375 
Q 62.984375 40.484375 62.984375 27.484375 
z
M 45.015625 33.296875 
Q 45.015625 38.28125 42.109375 41.328125 
Q 39.203125 44.390625 34.515625 44.390625 
Q 29.4375 44.390625 26.265625 41.53125 
Q 23.09375 38.671875 22.3125 33.296875 
z
" id="DejaVuSans-Bold-101"/>
     <path d="M 63.375 33.296875 
L 63.375 0 
L 45.796875 0 
L 45.796875 5.421875 
L 45.796875 25.484375 
Q 45.796875 32.5625 45.484375 35.25 
Q 45.171875 37.9375 44.390625 39.203125 
Q 43.359375 40.921875 41.59375 41.875 
Q 39.84375 42.828125 37.59375 42.828125 
Q 32.125 42.828125 29 38.59375 
Q 25.875 34.375 25.875 26.90625 
L 25.875 0 
L 8.40625 0 
L 8.40625 54.6875 
L 25.875 54.6875 
L 25.875 46.6875 
Q 29.828125 51.46875 34.265625 53.734375 
Q 38.71875 56 44.09375 56 
Q 53.5625 56 58.46875 50.1875 
Q 63.375 44.390625 63.375 33.296875 
z
" id="DejaVuSans-Bold-110"/>
     <path d="M 45.609375 46.6875 
L 45.609375 75.984375 
L 63.1875 75.984375 
L 63.1875 0 
L 45.609375 0 
L 45.609375 7.90625 
Q 42 3.078125 37.640625 0.828125 
Q 33.296875 -1.421875 27.59375 -1.421875 
Q 17.484375 -1.421875 10.984375 6.609375 
Q 4.5 14.65625 4.5 27.296875 
Q 4.5 39.9375 10.984375 47.96875 
Q 17.484375 56 27.59375 56 
Q 33.25 56 37.625 53.734375 
Q 42 51.46875 45.609375 46.6875 
z
M 34.078125 11.28125 
Q 39.703125 11.28125 42.65625 15.375 
Q 45.609375 19.484375 45.609375 27.296875 
Q 45.609375 35.109375 42.65625 39.203125 
Q 39.703125 43.3125 34.078125 43.3125 
Q 28.515625 43.3125 25.5625 39.203125 
Q 22.609375 35.109375 22.609375 27.296875 
Q 22.609375 19.484375 25.5625 15.375 
Q 28.515625 11.28125 34.078125 11.28125 
z
" id="DejaVuSans-Bold-100"/>
     <path id="DejaVuSans-Bold-32"/>
     <path d="M 51.125 52.984375 
L 51.125 39.703125 
Q 45.515625 42.046875 40.28125 43.21875 
Q 35.0625 44.390625 30.421875 44.390625 
Q 25.4375 44.390625 23.015625 43.140625 
Q 20.609375 41.890625 20.609375 39.3125 
Q 20.609375 37.203125 22.4375 36.078125 
Q 24.265625 34.96875 29 34.421875 
L 32.078125 33.984375 
Q 45.515625 32.28125 50.140625 28.375 
Q 54.78125 24.46875 54.78125 16.109375 
Q 54.78125 7.375 48.328125 2.96875 
Q 41.890625 -1.421875 29.109375 -1.421875 
Q 23.6875 -1.421875 17.890625 -0.5625 
Q 12.109375 0.296875 6 2 
L 6 15.28125 
Q 11.234375 12.75 16.71875 11.46875 
Q 22.21875 10.203125 27.875 10.203125 
Q 33.015625 10.203125 35.59375 11.609375 
Q 38.1875 13.03125 38.1875 15.828125 
Q 38.1875 18.171875 36.40625 19.3125 
Q 34.625 20.453125 29.296875 21.09375 
L 26.21875 21.484375 
Q 14.546875 22.953125 9.859375 26.90625 
Q 5.171875 30.859375 5.171875 38.921875 
Q 5.171875 47.609375 11.125 51.796875 
Q 17.09375 56 29.390625 56 
Q 34.234375 56 39.546875 55.265625 
Q 44.875 54.546875 51.125 52.984375 
z
" id="DejaVuSans-Bold-115"/>
     <path d="M 34.421875 43.5 
Q 28.609375 43.5 25.5625 39.328125 
Q 22.515625 35.15625 22.515625 27.296875 
Q 22.515625 19.4375 25.5625 15.25 
Q 28.609375 11.078125 34.421875 11.078125 
Q 40.140625 11.078125 43.15625 15.25 
Q 46.1875 19.4375 46.1875 27.296875 
Q 46.1875 35.15625 43.15625 39.328125 
Q 40.140625 43.5 34.421875 43.5 
z
M 34.421875 56 
Q 48.53125 56 56.46875 48.375 
Q 64.40625 40.765625 64.40625 27.296875 
Q 64.40625 13.8125 56.46875 6.1875 
Q 48.53125 -1.421875 34.421875 -1.421875 
Q 20.265625 -1.421875 12.28125 6.1875 
Q 4.296875 13.8125 4.296875 27.296875 
Q 4.296875 40.765625 12.28125 48.375 
Q 20.265625 56 34.421875 56 
z
" id="DejaVuSans-Bold-111"/>
     <path d="M 32.90625 24.609375 
Q 27.4375 24.609375 24.671875 22.75 
Q 21.921875 20.90625 21.921875 17.28125 
Q 21.921875 13.96875 24.140625 12.078125 
Q 26.375 10.203125 30.328125 10.203125 
Q 35.25 10.203125 38.625 13.734375 
Q 42 17.28125 42 22.609375 
L 42 24.609375 
z
M 59.625 31.203125 
L 59.625 0 
L 42 0 
L 42 8.109375 
Q 38.484375 3.125 34.078125 0.84375 
Q 29.6875 -1.421875 23.390625 -1.421875 
Q 14.890625 -1.421875 9.59375 3.53125 
Q 4.296875 8.5 4.296875 16.40625 
Q 4.296875 26.03125 10.90625 30.515625 
Q 17.53125 35.015625 31.6875 35.015625 
L 42 35.015625 
L 42 36.375 
Q 42 40.53125 38.71875 42.453125 
Q 35.453125 44.390625 28.515625 44.390625 
Q 22.90625 44.390625 18.0625 43.265625 
Q 13.234375 42.140625 9.078125 39.890625 
L 9.078125 53.21875 
Q 14.703125 54.59375 20.359375 55.296875 
Q 26.03125 56 31.6875 56 
Q 46.484375 56 53.046875 50.171875 
Q 59.625 44.34375 59.625 31.203125 
z
" id="DejaVuSans-Bold-97"/>
     <path d="M 45.609375 9.28125 
Q 42 4.5 37.640625 2.25 
Q 33.296875 0 27.59375 0 
Q 17.578125 0 11.03125 7.875 
Q 4.5 15.765625 4.5 27.984375 
Q 4.5 40.234375 11.03125 48.0625 
Q 17.578125 55.90625 27.59375 55.90625 
Q 33.296875 55.90625 37.640625 53.65625 
Q 42 51.421875 45.609375 46.578125 
L 45.609375 54.6875 
L 63.1875 54.6875 
L 63.1875 5.515625 
Q 63.1875 -7.671875 54.859375 -14.625 
Q 46.53125 -21.578125 30.71875 -21.578125 
Q 25.59375 -21.578125 20.796875 -20.796875 
Q 16.015625 -20.015625 11.1875 -18.40625 
L 11.1875 -4.78125 
Q 15.765625 -7.421875 20.15625 -8.71875 
Q 24.5625 -10.015625 29 -10.015625 
Q 37.59375 -10.015625 41.59375 -6.25 
Q 45.609375 -2.484375 45.609375 5.515625 
z
M 34.078125 43.3125 
Q 28.65625 43.3125 25.625 39.296875 
Q 22.609375 35.296875 22.609375 27.984375 
Q 22.609375 20.453125 25.53125 16.578125 
Q 28.46875 12.703125 34.078125 12.703125 
Q 39.546875 12.703125 42.578125 16.703125 
Q 45.609375 20.703125 45.609375 27.984375 
Q 45.609375 35.296875 42.578125 39.296875 
Q 39.546875 43.3125 34.078125 43.3125 
z
" id="DejaVuSans-Bold-103"/>
     <path d="M 8.40625 54.6875 
L 25.875 54.6875 
L 25.875 0 
L 8.40625 0 
z
M 8.40625 75.984375 
L 25.875 75.984375 
L 25.875 61.71875 
L 8.40625 61.71875 
z
" id="DejaVuSans-Bold-105"/>
     <path d="M 1.515625 54.6875 
L 19 54.6875 
L 32.625 16.890625 
L 46.1875 54.6875 
L 63.71875 54.6875 
L 42.1875 0 
L 23 0 
z
" id="DejaVuSans-Bold-118"/>
     <path d="M 52.59375 52.984375 
L 52.59375 38.71875 
Q 49.03125 41.15625 45.4375 42.328125 
Q 41.84375 43.5 37.984375 43.5 
Q 30.671875 43.5 26.59375 39.234375 
Q 22.515625 34.96875 22.515625 27.296875 
Q 22.515625 19.625 26.59375 15.34375 
Q 30.671875 11.078125 37.984375 11.078125 
Q 42.09375 11.078125 45.78125 12.296875 
Q 49.46875 13.53125 52.59375 15.921875 
L 52.59375 1.609375 
Q 48.484375 0.09375 44.265625 -0.65625 
Q 40.046875 -1.421875 35.796875 -1.421875 
Q 21 -1.421875 12.640625 6.171875 
Q 4.296875 13.765625 4.296875 27.296875 
Q 4.296875 40.828125 12.640625 48.40625 
Q 21 56 35.796875 56 
Q 40.09375 56 44.265625 55.25 
Q 48.4375 54.5 52.59375 52.984375 
z
" id="DejaVuSans-Bold-99"/>
     <path d="M 27.484375 70.21875 
L 27.484375 54.6875 
L 45.515625 54.6875 
L 45.515625 42.1875 
L 27.484375 42.1875 
L 27.484375 19 
Q 27.484375 15.1875 29 13.84375 
Q 30.515625 12.5 35.015625 12.5 
L 44 12.5 
L 44 0 
L 29 0 
Q 18.65625 0 14.328125 4.3125 
Q 10.015625 8.640625 10.015625 19 
L 10.015625 42.1875 
L 1.3125 42.1875 
L 1.3125 54.6875 
L 10.015625 54.6875 
L 10.015625 70.21875 
z
" id="DejaVuSans-Bold-116"/>
    </defs>
    <g transform="translate(158.381 19.3575)scale(0.16 -0.16)">
     <use xlink:href="#DejaVuSans-Bold-84"/>
     <use x="57.212891" xlink:href="#DejaVuSans-Bold-114"/>
     <use x="106.529297" xlink:href="#DejaVuSans-Bold-101"/>
     <use x="174.351562" xlink:href="#DejaVuSans-Bold-110"/>
     <use x="245.542969" xlink:href="#DejaVuSans-Bold-100"/>
     <use x="317.125" xlink:href="#DejaVuSans-Bold-32"/>
     <use x="351.939453" xlink:href="#DejaVuSans-Bold-115"/>
     <use x="411.460938" xlink:href="#DejaVuSans-Bold-111"/>
     <use x="480.162109" xlink:href="#DejaVuSans-Bold-110"/>
     <use x="551.353516" xlink:href="#DejaVuSans-Bold-100"/>
     <use x="622.935547" xlink:href="#DejaVuSans-Bold-97"/>
     <use x="690.416016" xlink:href="#DejaVuSans-Bold-103"/>
     <use x="761.998047" xlink:href="#DejaVuSans-Bold-103"/>
     <use x="833.580078" xlink:href="#DejaVuSans-Bold-105"/>
     <use x="867.857422" xlink:href="#DejaVuSans-Bold-32"/>
     <use x="902.671875" xlink:href="#DejaVuSans-Bold-100"/>
     <use x="974.253906" xlink:href="#DejaVuSans-Bold-101"/>
     <use x="1042.076172" xlink:href="#DejaVuSans-Bold-105"/>
     <use x="1076.353516" xlink:href="#DejaVuSans-Bold-32"/>
     <use x="1111.167969" xlink:href="#DejaVuSans-Bold-118"/>
     <use x="1176.353516" xlink:href="#DejaVuSans-Bold-97"/>
     <use x="1243.833984" xlink:href="#DejaVuSans-Bold-114"/>
     <use x="1293.150391" xlink:href="#DejaVuSans-Bold-105"/>
     <use x="1327.427734" xlink:href="#DejaVuSans-Bold-32"/>
     <use x="1362.242188" xlink:href="#DejaVuSans-Bold-99"/>
     <use x="1421.519531" xlink:href="#DejaVuSans-Bold-97"/>
     <use x="1489" xlink:href="#DejaVuSans-Bold-110"/>
     <use x="1560.191406" xlink:href="#DejaVuSans-Bold-100"/>
     <use x="1631.773438" xlink:href="#DejaVuSans-Bold-105"/>
     <use x="1666.050781" xlink:href="#DejaVuSans-Bold-100"/>
     <use x="1737.632812" xlink:href="#DejaVuSans-Bold-97"/>
     <use x="1805.113281" xlink:href="#DejaVuSans-Bold-116"/>
     <use x="1852.916016" xlink:href="#DejaVuSans-Bold-105"/>
    </g>
   </g>
  </g>
 </g>
 <defs>
  <clipPath id="pc572649d97">
   <rect height="277.2" width="551.862" x="33.425" y="50.53"/>
  </clipPath>
 </defs>
</svg>
